<svg aria-hidden="true" class="icon icon--bullhorn" xmlns="http://www.w3.org/2000/svg" width="48" height="48"><path d="M48 20.121c0-9.418-2.756-17.06-6.163-17.12L41.878 3H37.99s-9.131 6.86-22.276 9.551c-.401 2.123-.658 4.653-.658 7.57s.256 5.447.658 7.57c13.145 2.691 22.276 9.551 22.276 9.551h3.888l-.041-.002C45.245 37.18 48 29.539 48 20.12zm-7.461 14.531c-.44 0-.916-.457-1.16-.729-.592-.659-1.162-1.686-1.649-2.969-1.09-2.87-1.691-6.718-1.691-10.834s.6-7.964 1.691-10.834c.487-1.283 1.058-2.309 1.649-2.969.244-.272.72-.729 1.16-.729s.916.457 1.16.729c.592.659 1.162 1.686 1.649 2.969 1.09 2.87 1.691 6.718 1.691 10.834s-.6 7.964-1.691 10.834c-.487 1.283-1.058 2.309-1.649 2.969-.244.272-.72.729-1.16.729zM11.804 20.121c0-2.435.179-4.801.518-6.989-2.221.307-4.169.484-6.578.484H2.601l-2.6 4.438v4.133l2.6 4.438h3.143c2.409 0 4.358.177 6.578.484a45.976 45.976 0 0 1-.518-6.989zm5.453 9.981-6-1.149 3.836 15.072c.199.78.972 1.174 1.72.874l5.557-2.224a1.28 1.28 0 0 0 .665-1.832l-5.779-10.742zm23.282-4.38c-.17 0-.353-.176-.447-.281-.228-.254-.448-.65-.636-1.144-.42-1.106-.652-2.589-.652-4.176s.231-3.069.652-4.176c.188-.494.408-.89.636-1.144.094-.105.277-.281.447-.281s.353.176.447.281c.228.254.448.65.636 1.144.42 1.106.652 2.589.652 4.176s-.231 3.069-.652 4.176c-.188.494-.408.89-.636 1.144-.094.105-.277.281-.447.281z"/></svg>
