<svg aria-hidden="true" class="icon icon--calendars" width="80" height="65" viewBox="0 0 80 65" fill="none" xmlns="http://www.w3.org/2000/svg">
<path d="M70.7189 6.58968C70.5109 6.55069 70.3225 6.5312 70.069 6.4987H63.7783V7.36953C63.7783 10.3784 59.8271 12.484 56.6752 9.08518L56.6297 8.97471V6.4987H45.5819V7.36303C45.5819 10.3719 41.6307 12.4775 38.4788 9.07869L38.4333 8.96821V6.4987L29.0427 6.17377C32.3766 9.4946 33.7933 11.7691 38.3359 15.9218L74.2022 16.2532V10.9308C74.2122 9.91628 73.8707 8.92957 73.2357 8.13824C72.6008 7.34691 71.7115 6.79976 70.7189 6.58968V6.58968Z" fill="#A7A7A7"/>
<path d="M56.8311 22.0956H46.5566V32.37H56.8311V22.0956Z" fill="#777B80"/>
<path d="M70.1924 22.0956H59.918V32.37H70.1924V22.0956Z" fill="#777B80"/>
<path d="M56.8311 35.5479H46.5566V45.8223H56.8311V35.5479Z" fill="#777B80"/>
<path d="M70.1924 35.5479H59.918V45.8223H70.1924V35.5479Z" fill="#C88B66"/>
<path d="M78.3094 20.133C78.7867 20.133 79.1737 19.746 79.1737 19.2686C79.1737 18.7913 78.7867 18.4043 78.3094 18.4043C77.832 18.4043 77.4451 18.7913 77.4451 19.2686C77.4451 19.746 77.832 20.133 78.3094 20.133Z" fill="#23272B"/>
<path d="M73.8836 16.8966H38.3422C38.0837 16.8966 37.8358 16.7939 37.6529 16.6111C37.4701 16.4283 37.3674 16.1803 37.3674 15.9218C37.3674 15.6633 37.4701 15.4153 37.6529 15.2325C37.8358 15.0497 38.0837 14.947 38.3422 14.947H73.8901C74.1487 14.947 74.3966 15.0497 74.5794 15.2325C74.7622 15.4153 74.8649 15.6633 74.8649 15.9218C74.8649 16.1803 74.7622 16.4283 74.5794 16.6111C74.3966 16.7939 74.1487 16.8966 73.8901 16.8966H73.8836Z" fill="#23272B"/>
<path d="M42.04 8.44831C41.7815 8.44831 41.5335 8.34561 41.3507 8.1628C41.1679 7.97999 41.0652 7.73204 41.0652 7.47351V0.974805C41.0652 0.716271 41.1679 0.468325 41.3507 0.285514C41.5335 0.102702 41.7815 0 42.04 0C42.2985 0 42.5465 0.102702 42.7293 0.285514C42.9121 0.468325 43.0148 0.716271 43.0148 0.974805V7.47351C43.0148 7.73204 42.9121 7.97999 42.7293 8.1628C42.5465 8.34561 42.2985 8.44831 42.04 8.44831Z" fill="#23272B"/>
<path d="M78.4328 16.8966C78.1743 16.8966 77.9264 16.7939 77.7435 16.6111C77.5607 16.4283 77.458 16.1804 77.458 15.9218V10.3264C77.4876 8.48093 76.7836 6.69911 75.5005 5.37222C74.2175 4.04533 72.4604 3.28183 70.6149 3.24935H64.7661C64.5075 3.24935 64.2596 3.14665 64.0768 2.96384C63.894 2.78103 63.7913 2.53308 63.7913 2.27455C63.7913 2.01601 63.894 1.76807 64.0768 1.58526C64.2596 1.40245 64.5075 1.29974 64.7661 1.29974H70.6149C72.9763 1.33738 75.2263 2.31035 76.8711 4.00511C78.5159 5.69987 79.4212 7.97797 79.3881 10.3394V15.9023C79.3907 16.0303 79.3681 16.1576 79.3215 16.2769C79.2748 16.3961 79.2052 16.505 79.1165 16.5974C79.0278 16.6897 78.9217 16.7637 78.8044 16.815C78.6871 16.8664 78.5609 16.8941 78.4328 16.8966V16.8966Z" fill="#23272B"/>
<path d="M60.2365 8.44831C59.978 8.44831 59.73 8.34561 59.5472 8.1628C59.3644 7.97999 59.2617 7.73204 59.2617 7.47351V0.974805C59.2617 0.716271 59.3644 0.468325 59.5472 0.285514C59.73 0.102702 59.978 0 60.2365 0C60.4951 0 60.743 0.102702 60.9258 0.285514C61.1086 0.468325 61.2113 0.716271 61.2113 0.974805V7.47351C61.2113 7.73204 61.1086 7.97999 60.9258 8.1628C60.743 8.34561 60.4951 8.44831 60.2365 8.44831Z" fill="#23272B"/>
<path d="M73.8707 51.8726C73.6122 51.8726 73.3642 51.7699 73.1814 51.5871C72.9986 51.4043 72.8959 51.1564 72.8959 50.8978V10.7424C72.9386 9.95678 72.7165 9.17959 72.2653 8.53513C71.814 7.89066 71.1597 7.41617 70.4069 7.18756L70.134 7.14207H65.104C65.104 8.34857 64.6247 9.50565 63.7716 10.3588C62.9184 11.2119 61.7614 11.6912 60.5549 11.6912C59.3484 11.6912 58.1913 11.2119 57.3382 10.3588C56.4851 9.50565 56.0058 8.34857 56.0058 7.14207H46.2577C46.2577 8.34857 45.7785 9.50565 44.9253 10.3588C44.0722 11.2119 42.9151 11.6912 41.7086 11.6912C40.5022 11.6912 39.3451 11.2119 38.492 10.3588C37.6388 9.50565 37.1596 8.34857 37.1596 7.14207H29.0427C28.7841 7.14207 28.5362 7.03937 28.3534 6.85656C28.1706 6.67375 28.0679 6.4258 28.0679 6.16727C28.0679 5.90873 28.1706 5.66079 28.3534 5.47798C28.5362 5.29516 28.7841 5.19246 29.0427 5.19246H38.1409C38.3994 5.19246 38.6473 5.29516 38.8301 5.47798C39.013 5.66079 39.1157 5.90873 39.1157 6.16727V6.89512C39.1068 7.23977 39.1666 7.58274 39.2916 7.90406C39.4165 8.22538 39.6041 8.51863 39.8435 8.76675C40.3202 9.2637 40.9747 9.55118 41.6632 9.56609C42.3597 9.58171 43.0343 9.32258 43.5413 8.84473C43.7881 8.60791 43.9858 8.3247 44.1229 8.01133C44.2601 7.69796 44.3341 7.36061 44.3406 7.0186V6.17377C44.3405 5.91967 44.4397 5.67559 44.6169 5.49351C44.7941 5.31142 45.0354 5.20574 45.2894 5.19896H56.9871C57.2456 5.19896 57.4936 5.30166 57.6764 5.48448C57.8592 5.66729 57.9619 5.91523 57.9619 6.17377V6.90162C57.953 7.24627 58.0128 7.58924 58.1378 7.91056C58.2627 8.23188 58.4504 8.52513 58.6897 8.77325C59.1665 9.2702 59.8209 9.55768 60.5094 9.57259C61.207 9.58788 61.8824 9.32617 62.3875 8.84473C62.6343 8.60791 62.832 8.3247 62.9692 8.01133C63.1063 7.69796 63.1803 7.36061 63.1869 7.0186V6.17377C63.1868 5.91967 63.2859 5.67559 63.4631 5.49351C63.6403 5.31142 63.8817 5.20574 64.1357 5.19896H69.7895C69.9605 5.18921 70.1319 5.18921 70.3029 5.19896H70.3809L70.7643 5.25745H70.8878C72.0686 5.59275 73.1017 6.31667 73.8199 7.31206C74.5382 8.30745 74.8995 9.51608 74.8455 10.7424V50.8978C74.8455 51.1564 74.7428 51.4043 74.56 51.5871C74.3772 51.7699 74.1292 51.8726 73.8707 51.8726Z" fill="#23272B"/>
<path d="M27.2946 28.2434L9.17625 47.538L9.00728 47.707C8.67998 48.0147 8.29512 48.2548 7.87478 48.4134C7.45445 48.5721 7.00693 48.6461 6.5579 48.6313C6.10888 48.6166 5.66719 48.5133 5.2582 48.3273C4.8492 48.1414 4.48096 47.8765 4.1746 47.5479C3.86823 47.2193 3.62979 46.8334 3.47295 46.4124C3.31611 45.9914 3.24397 45.5436 3.26066 45.0946C3.27734 44.6457 3.38254 44.2044 3.5702 43.7962C3.75786 43.388 4.0243 43.0209 4.35421 42.716L24.0453 25.3449L23.0315 24.4351L27.2946 28.2434Z" fill="#C88B66"/>
<path d="M29.842 30.7649C29.282 30.7658 28.7273 30.6561 28.2098 30.4419C27.6923 30.2278 27.2223 29.9135 26.8266 29.5171L22.4595 25.15C21.661 24.3496 21.2126 23.2652 21.2126 22.1346C21.2126 21.004 21.661 19.9196 22.4595 19.1192L28.1199 13.4588C28.9203 12.6604 30.0047 12.212 31.1353 12.212C32.2658 12.212 33.3503 12.6604 34.1507 13.4588L38.5178 17.8259C39.3162 18.6264 39.7646 19.7108 39.7646 20.8413C39.7646 21.9719 39.3162 23.0563 38.5178 23.8567V23.8567L32.8574 29.5171C32.4618 29.9135 31.9917 30.2278 31.4743 30.4419C30.9568 30.6561 30.4021 30.7658 29.842 30.7649V30.7649ZM31.1418 14.1607C30.5318 14.1542 29.9437 14.3876 29.5041 14.8105L23.8437 20.4709C23.4182 20.9047 23.1799 21.488 23.1799 22.0956C23.1799 22.7032 23.4182 23.2865 23.8437 23.7203L28.2044 28.1394C28.6381 28.5649 29.2214 28.8032 29.829 28.8032C30.4366 28.8032 31.02 28.5649 31.4537 28.1394L37.1141 22.479C37.5427 22.0469 37.7832 21.463 37.7832 20.8543C37.7832 20.2457 37.5427 19.6618 37.1141 19.2297L32.7469 14.856C32.3211 14.4227 31.7427 14.1731 31.1353 14.1607H31.1418Z" fill="#23272B"/>
<path d="M18.2418 19.8665C17.9022 19.8672 17.5658 19.8004 17.2523 19.6698C16.9388 19.5393 16.6544 19.3477 16.4157 19.1062L15.4733 18.1964C14.9931 17.7099 14.7239 17.0538 14.7239 16.3702C14.7239 15.6866 14.9931 15.0306 15.4733 14.5441L23.5057 6.49869C23.9922 6.01848 24.6483 5.74922 25.3319 5.74922C26.0155 5.74922 26.6715 6.01848 27.158 6.49869L28.1003 7.44101C28.5825 7.92778 28.853 8.58523 28.853 9.27039C28.853 9.95555 28.5825 10.613 28.1003 11.0998L20.0679 19.1062C19.8292 19.3477 19.5448 19.5393 19.2313 19.6698C18.9177 19.8004 18.5814 19.8672 18.2418 19.8665V19.8665ZM25.3449 7.66846C25.1766 7.67087 25.0159 7.73843 24.8965 7.85692L16.8511 15.8893C16.7359 16.0102 16.6716 16.1707 16.6716 16.3377C16.6716 16.5047 16.7359 16.6653 16.8511 16.7861L17.7934 17.7285C17.9142 17.8437 18.0748 17.9079 18.2418 17.9079C18.4088 17.9079 18.5693 17.8437 18.6902 17.7285L26.7226 9.69606C26.8378 9.57519 26.9021 9.41462 26.9021 9.24764C26.9021 9.08067 26.8378 8.9201 26.7226 8.79923L25.7803 7.85692C25.6641 7.74147 25.5086 7.67416 25.3449 7.66846Z" fill="#23272B"/>
<path d="M35.6388 37.2635C35.2962 37.2647 34.9568 37.1981 34.6401 37.0676C34.3233 36.9371 34.0355 36.7453 33.7931 36.5032L32.8508 35.5609C32.3686 35.0741 32.0981 34.4167 32.0981 33.7315C32.0981 33.0463 32.3686 32.3889 32.8508 31.9021L40.9027 23.8697C41.3947 23.4001 42.0487 23.1382 42.7289 23.1382C43.409 23.1382 44.063 23.4001 44.555 23.8697L45.4908 24.812C45.973 25.2988 46.2435 25.9563 46.2435 26.6414C46.2435 27.3266 45.973 27.984 45.4908 28.4708V28.4708L37.4649 36.5032C36.9802 36.9874 36.3239 37.2607 35.6388 37.2635ZM42.7289 25.0655C42.5615 25.0662 42.4009 25.1313 42.2804 25.2474L34.2481 33.2798C34.128 33.4009 34.0603 33.5643 34.0596 33.7348C34.0586 33.8184 34.0748 33.9014 34.1073 33.9785C34.1397 34.0557 34.1876 34.1253 34.2481 34.1832L35.1904 35.1255C35.3112 35.2407 35.4718 35.305 35.6388 35.305C35.8057 35.305 35.9663 35.2407 36.0872 35.1255L44.1196 27.0931C44.2367 26.9719 44.3022 26.81 44.3022 26.6414C44.3022 26.4729 44.2367 26.3109 44.1196 26.1898L43.1773 25.2474C43.0568 25.1313 42.8962 25.0662 42.7289 25.0655Z" fill="#23272B"/>
<path d="M6.49861 49.897C5.40619 49.8882 4.3555 49.4763 3.5482 48.7403L3.37924 48.5778C2.96758 48.1673 2.64098 47.6796 2.41813 47.1426C2.19528 46.6057 2.08057 46.03 2.08057 45.4487C2.08057 44.8673 2.19528 44.2917 2.41813 43.7547C2.64098 43.2178 2.96758 42.7301 3.37924 42.3195C3.43123 42.2611 3.48972 42.2091 3.5482 42.1506L23.2523 24.4871C23.4374 24.3199 23.68 24.2306 23.9295 24.2378C24.1789 24.2451 24.4159 24.3484 24.591 24.5261L27.4569 27.3985C27.6293 27.5787 27.7255 27.8185 27.7255 28.0679C27.7255 28.3173 27.6293 28.557 27.4569 28.7373L9.80645 48.4283C9.41794 48.8619 8.94746 49.2144 8.42213 49.4653C7.8968 49.7163 7.327 49.8608 6.74557 49.8905L6.49861 49.897ZM23.8501 26.5537L4.85444 43.6193C4.82097 43.6463 4.79047 43.6768 4.76346 43.7103C4.53161 43.9399 4.34756 44.2132 4.22195 44.5143C4.09635 44.8155 4.03167 45.1386 4.03167 45.4649C4.03167 45.7912 4.09635 46.1143 4.22195 46.4155C4.34756 46.7166 4.53161 46.9899 4.76346 47.2196L4.86094 47.304C5.35068 47.743 5.99459 47.9697 6.65133 47.9344C7.30806 47.8991 7.92394 47.6046 8.36374 47.1156L25.4228 28.1199L23.8501 26.5537Z" fill="#23272B"/>
<path d="M22.0957 21.8226C21.8507 21.813 21.6184 21.7109 21.4458 21.5367L18.8463 18.9372C18.6742 18.7524 18.5804 18.508 18.5849 18.2555C18.5893 18.0029 18.6916 17.762 18.8702 17.5834C19.0488 17.4048 19.2898 17.3025 19.5423 17.298C19.7949 17.2936 20.0393 17.3873 20.2241 17.5595L22.8235 20.159C22.9623 20.2976 23.056 20.4749 23.0925 20.6676C23.1289 20.8604 23.1063 21.0596 23.0277 21.2393C22.9491 21.419 22.818 21.5709 22.6518 21.6749C22.4855 21.779 22.2917 21.8305 22.0957 21.8226V21.8226Z" fill="#23272B"/>
<path d="M29.8486 14.0892C29.7205 14.0894 29.5937 14.0643 29.4755 14.0152C29.3572 13.9661 29.2499 13.8941 29.1597 13.8033L26.5602 11.2038C26.4099 11.0152 26.3348 10.7775 26.3495 10.5368C26.3642 10.296 26.4676 10.0693 26.6397 9.90035C26.8119 9.73142 27.0406 9.63232 27.2816 9.6222C27.5225 9.61207 27.7587 9.69165 27.9444 9.84554L30.5439 12.445C30.6801 12.5813 30.7728 12.755 30.8103 12.9439C30.8479 13.1329 30.8286 13.3288 30.7548 13.5068C30.6811 13.6848 30.5563 13.837 30.3962 13.9441C30.236 14.0513 30.0477 14.1085 29.855 14.1087L29.8486 14.0892Z" fill="#23272B"/>
<path d="M41.4423 25.6894C41.3136 25.6899 41.1862 25.6642 41.0678 25.6139C40.9494 25.5636 40.8424 25.4898 40.7534 25.3969L38.1539 22.7974C38.0607 22.7062 37.9867 22.5972 37.9364 22.4768C37.886 22.3565 37.8603 22.2272 37.8608 22.0968C37.8614 21.9663 37.8881 21.8373 37.9394 21.7173C37.9907 21.5974 38.0655 21.489 38.1595 21.3985C38.2535 21.308 38.3646 21.2373 38.4864 21.1905C38.6082 21.1438 38.7382 21.122 38.8686 21.1264C38.9989 21.1308 39.1271 21.1613 39.2455 21.2162C39.3639 21.271 39.47 21.3491 39.5577 21.4457L42.1571 24.0452C42.2933 24.1815 42.386 24.3551 42.4235 24.5441C42.4611 24.7331 42.4418 24.929 42.3681 25.107C42.2944 25.285 42.1695 25.4372 42.0094 25.5443C41.8493 25.6514 41.661 25.7087 41.4683 25.7089L41.4423 25.6894Z" fill="#23272B"/>
<path d="M37.465 37.7639C36.9785 38.2442 36.3224 38.5134 35.6388 38.5134C34.9552 38.5134 34.2992 38.2442 33.8127 37.7639L32.8704 36.8281C32.6898 36.6361 32.5407 36.4168 32.4285 36.1783V45.5429H42.7029V35.2684H39.967L37.465 37.7639Z" fill="#777B80"/>
<path d="M34.4431 58.7677H68.8862C68.8862 58.018 68.5884 57.299 68.0582 56.7688C67.5281 56.2386 66.809 55.9408 66.0593 55.9408H37.27C36.5203 55.9408 35.8013 56.2386 35.2711 56.7688C34.741 57.299 34.4431 58.018 34.4431 58.7677Z" fill="#A7A7A7"/>
<path d="M42.963 50.8978C42.2546 50.8978 41.5752 51.1792 41.0743 51.6801C40.5734 52.181 40.292 52.8604 40.292 53.5688H63.0374C63.0374 52.8604 62.756 52.181 62.2551 51.6801C61.7542 51.1792 61.0749 50.8978 60.3665 50.8978H42.963Z" fill="#A7A7A7"/>
<path d="M73.1104 60.0675H0.974805C0.716271 60.0675 0.468325 59.9648 0.285514 59.782C0.102702 59.5992 0 59.3512 0 59.0927C0 58.8341 0.102702 58.5862 0.285514 58.4034C0.468325 58.2206 0.716271 58.1179 0.974805 58.1179H73.1104C73.3689 58.1179 73.6169 58.2206 73.7997 58.4034C73.9825 58.5862 74.0852 58.8341 74.0852 59.0927C74.0852 59.3512 73.9825 59.5992 73.7997 59.782C73.6169 59.9648 73.3689 60.0675 73.1104 60.0675Z" fill="#23272B"/>
<path d="M69.2111 60.0675H34.1181C33.8596 60.0675 33.6116 59.9648 33.4288 59.782C33.246 59.5992 33.1433 59.3512 33.1433 59.0927V56.6362C33.145 55.4785 33.6057 54.3687 34.4243 53.5501C35.2429 52.7314 36.3527 52.2708 37.5104 52.2691H65.8188C66.9765 52.2708 68.0863 52.7314 68.9049 53.5501C69.7235 54.3687 70.1842 55.4785 70.1859 56.6362V59.0927C70.1859 59.3512 70.0832 59.5992 69.9004 59.782C69.7176 59.9648 69.4696 60.0675 69.2111 60.0675ZM35.0929 58.1179H68.2363V56.6362C68.2346 55.9955 67.9793 55.3816 67.5263 54.9286C67.0733 54.4756 66.4594 54.2204 65.8188 54.2187H37.5104C36.8698 54.2204 36.2559 54.4756 35.8029 54.9286C35.3499 55.3816 35.0946 55.9955 35.0929 56.6362V58.1179Z" fill="#23272B"/>
<path d="M63.3623 54.2187H39.967C39.7085 54.2187 39.4605 54.116 39.2777 53.9332C39.0949 53.7503 38.9922 53.5024 38.9922 53.2439V51.9441C38.9972 50.8321 39.4385 49.7664 40.2212 48.9765C41.0039 48.1865 42.0654 47.7353 43.1774 47.72H60.1455C61.2585 47.7336 62.3217 48.184 63.1058 48.9742C63.8899 49.7644 64.3321 50.831 64.3371 51.9441V53.2439C64.3371 53.5024 64.2344 53.7503 64.0516 53.9332C63.8688 54.116 63.6208 54.2187 63.3623 54.2187ZM40.9418 52.2691H62.3875V51.9441C62.3859 51.3459 62.1493 50.7722 61.7287 50.3468C61.3081 49.9213 60.7372 49.6781 60.139 49.6696H43.1838C42.5868 49.6798 42.0175 49.9237 41.5983 50.349C41.1791 50.7743 40.9434 51.347 40.9418 51.9441V52.2691Z" fill="#23272B"/>
<path d="M11.3726 65C11.9433 65 12.4059 64.5374 12.4059 63.9667C12.4059 63.396 11.9433 62.9334 11.3726 62.9334C10.802 62.9334 10.3394 63.396 10.3394 63.9667C10.3394 64.5374 10.802 65 11.3726 65Z" fill="#23272B"/>
<path d="M65.312 64.6166H15.9218C15.6633 64.6166 15.4153 64.5139 15.2325 64.3311C15.0497 64.1483 14.947 63.9003 14.947 63.6418C14.947 63.3832 15.0497 63.1353 15.2325 62.9525C15.4153 62.7697 15.6633 62.667 15.9218 62.667H65.312C65.5705 62.667 65.8184 62.7697 66.0012 62.9525C66.1841 63.1353 66.2868 63.3832 66.2868 63.6418C66.2868 63.9003 66.1841 64.1483 66.0012 64.3311C65.8184 64.5139 65.5705 64.6166 65.312 64.6166V64.6166Z" fill="#23272B"/>
</svg>
