<svg aria-hidden="true" class="icon icon--case-management" version="1.1" id="Layer_1" xmlns="http://www.w3.org/2000/svg" width="74" height="69" viewBox="0 0 74 68.6" xml:space="preserve"><style>.st1{fill:#23272b}.st2{fill:#c88b66}</style><g id="Layer_2_00000117634389017760323410000011515955209515886241_"><g id="Layer_1-2"><path d="M22.8 41.8l-7.4.3-2.7-2.8V4.7h-2.1c-1.1 0-2.1.9-2.1 2.1V41c.2 2.9 2.5 5.1 5.4 5.2h13.6l-4.7-4.4zm16.6 1.6l-.2.1-5.6-2.1-2.7.1-1.4 1.1.6 1.8-1.3 1.8h.2c3.9.3 4.7.2 6.7 1.7 2.8 2.1 5.2 1.6 6.9.5.3-.2.5-.5.9-.6l-4.1-4.4zM67.8 4.7h-1.7v34.6L63.7 42H44.6l4.7 4.2H65c2.9 0 5.2-2.3 5.2-5.2V7.1c0-1.3-1.1-2.4-2.4-2.4z" fill="#a7a7a7"/><path class="st1" d="M63.4 42.6H49.2c-.5 0-.9-.4-.9-.9s.4-.9.9-.9h14.2c1.1 0 1.5-.4 1.5-1.5V5.1c0-.6-.5-1-1-1H45.6c-2.3 0-3.6.5-5 1.9v10.9c0 .5-.4.9-.9.9s-.9-.4-.9-.9V5.6c0-.2.1-.5.3-.6 1.9-2 3.6-2.7 6.5-2.7h18.2c1.6 0 2.8 1.3 2.8 2.8v34.3c.1 2-1.1 3.2-3.2 3.2z"/><path class="st1" d="M17.7 42.6h-1.8c-2.1 0-3.3-1.2-3.3-3.3V5c0-1.5 1.2-2.7 2.7-2.7h18.3c2.9 0 4.6.7 6.6 2.6.4.3.4.9 0 1.3s-.9.4-1.3 0c-1.6-1.6-2.9-2.1-5.3-2.1H15.5c-.5-.1-1 .3-1 .8v34.5c0 1.1.4 1.5 1.5 1.5h1.8c.5 0 .9.4.9.9-.1.4-.5.8-1 .8z"/><path class="st2" d="M36.8 59H10.5c-1.4 0-2.6 1.2-2.6 2.6h31.4c.1-1.4-1.1-2.6-2.5-2.6zm-5.2-4.6H15.7c-1.3 0-2.4 1.1-2.4 2.4H34c0-1.3-1.1-2.4-2.4-2.4z"/><path class="st1" d="M69.9 62.8H4.1c-.5 0-.9-.4-.9-.9s.4-.9.9-.9h65.8c.5 0 .9.4.9.9s-.4.9-.9.9z"/><path class="st1" d="M39.7 62.8h-32c-.5 0-.9-.4-.9-.9v-2.2c0-2.2 1.8-4 4-4h25.8c2.2 0 4 1.8 4 4v2.2c0 .5-.4.9-.9.9zM8.5 61h30.2v-1.4c0-1.2-1-2.2-2.2-2.2H10.7c-1.2 0-2.2 1-2.2 2.2V61z"/><path class="st1" d="M34.3 57.5H13c-.5 0-.9-.4-.9-.9v-1.2c0-2.1 1.7-3.8 3.8-3.9h15.5c2.1 0 3.8 1.7 3.8 3.8v1.2c0 .5-.3.9-.9 1 .1 0 0 0 0 0zm-20.4-1.8h19.6v-.3c0-1.1-.9-2-2.1-2H15.9c-1.1 0-2 .9-2 2v.3z"/><path class="st2" d="M40.7 22.5l5.3 5.3-2.4 3-1.2-.6-3.1 2.6c.8.8.8 2.1 0 2.9l-.1.1-.9.8 17.9 15.9c1.3 1.2 1.3 3.1.2 4.4s-3.1 1.3-4.4.2c-.1 0-.1-.1-.2-.2L35.4 39.2l-1 .9c-.8.7-1.3.9-2 .2l-3 2.4.6 1.8-1.8 2.4-6.5-5.9 19-18.5z"/><path class="st1" d="M33.1 41.5c-1 0-2-.4-2.7-1.1l-5.2-5.2c-1.5-1.5-1.5-4 0-5.5l4-4c1.5-1.5 4-1.5 5.5 0l5.2 5.2c1.5 1.5 1.5 4 0 5.5l-4 4c-.8.7-1.8 1.1-2.8 1.1zm-1.2-15.1c-.6 0-1.1.2-1.5.6l-4 4c-.8.8-.8 2.1 0 3l5.2 5.2c.8.8 2.1.8 3 0l4-4c.8-.8.8-2.1 0-3L33.4 27c-.4-.4-1-.6-1.5-.6zm11.8 5.2c-.6 0-1.2-.2-1.7-.7l-7.3-7.3c-.9-.9-.9-2.4 0-3.3l.9-.9c.9-.9 2.4-.9 3.3 0l7.3 7.3c.9.9.9 2.4 0 3.3l-.9.9c-.4.4-1 .7-1.6.7zm-6.5-11.2c-.2 0-.3.1-.4.2l-.9.9c-.2.2-.2.6 0 .8l7.3 7.3c.2.2.6.2.8 0l.9-.9c.2-.2.2-.6 0-.8l-7.3-7.3c-.1-.1-.3-.2-.4-.2zm-9.4 27c-.6 0-1.2-.2-1.7-.7l-7.3-7.4c-.9-.9-.9-2.4 0-3.3l.9-.9c.9-.9 2.4-.9 3.3 0l7.3 7.3c.9.9.9 2.4 0 3.3l-.9.9c-.4.6-1 .9-1.6.8zm-6.5-11.1c-.2 0-.3.1-.4.2l-.9.8c-.2.2-.2.6 0 .8l7.3 7.3c.2.2.6.2.8 0l.9-.9c.2-.2.2-.6 0-.8l-7.3-7.3c-.1 0-.2-.1-.4-.1z"/><path class="st1" d="M54.4 59h-.1c-1.1 0-2.2-.5-2.9-1.3l-16.1-18c-.3-.4-.3-.9 0-1.2l2.6-2.6c.3-.3.9-.4 1.2 0l18 16.1c1.7 1.5 1.8 4.1.3 5.7-.8.8-1.9 1.3-3 1.3zM37.1 39.1l15.6 17.4c.4.5 1 .7 1.6.8.6 0 1.2-.2 1.7-.7.9-.9.9-2.3 0-3.2l-.1-.1-17.4-15.6-1.4 1.4zm3-5.8c-.5 0-.9-.4-.9-.9 0-.2.1-.5.3-.6l2.4-2.4c.3-.3.9-.3 1.3 0 .3.3.4.9 0 1.2L40.8 33c-.2.3-.4.4-.7.3zm-7-7c-.2 0-.5-.1-.6-.3-.3-.3-.3-.9 0-1.3l2.4-2.4c.3-.3.9-.3 1.3 0 .3.3.4.9 0 1.2L33.7 26c-.2.2-.4.3-.6.3zM22.5 36.9c-.5 0-.9-.4-.9-.9 0-.2.1-.5.3-.6l2.4-2.4c.4-.3.9-.3 1.3 0 .3.3.3.9 0 1.2l-2.4 2.4c-.2.2-.5.3-.7.3zm7.1 7c-.5 0-.9-.4-.9-.9 0-.2.1-.5.3-.6l2.4-2.4c.4-.3.9-.3 1.3 0 .3.3.3.9 0 1.2l-2.4 2.4c-.3.2-.5.3-.7.3z"/><circle class="st1" cx="60.4" cy="66.3" r=".9"/><path class="st1" d="M56.3 66.9H11.2c-.5 0-.9-.4-.9-.9s.4-.9.9-.9h45.1c.5 0 .9.4.9.9s-.4.9-.9.9zm2.3-54.5H46.8c-.5 0-.9-.4-.9-.9s.4-.9.9-.9h11.9c.5 0 .9.4.9.9-.1.5-.5.9-1 .9zm.6 22.5H47.4c-.5 0-.9-.4-.9-.9s.4-.9.9-.9h11.9c.5 0 .9.4.9.9s-.5.9-1 .9zm-4.1-16.6h-8.3c-.5 0-.9-.4-.9-.9s.4-.9.9-.9h8.3c.5 0 .9.4.9.9s-.4.9-.9.9zm3 10.7H51c-.5 0-.9-.4-.9-.9s.4-.9.9-.9h7.1c.5 0 .9.4.9.9-.1.5-.5.9-.9.9zM32.6 12.4H20.7c-.5 0-.9-.4-.9-.9s.4-.9.9-.9h11.9c.5 0 .9.4.9.9-.1.5-.5.9-.9.9zM29 18.3h-8.3c-.5 0-.9-.4-.9-.9s.4-.9.9-.9H29c.5 0 .9.4.9.9s-.4.9-.9.9z"/></g></g></svg>
