<svg aria-hidden="true" class="icon chevron-double-right" xmlns="http://www.w3.org/2000/svg" viewBox="0 0 8 14"><path fill="#23272b" d="M4.648 7.5a.27.27 0 0 1-.078.18L.929 11.321c-.047.047-.117.078-.18.078s-.133-.031-.18-.078l-.391-.391C.131 10.883.1 10.813.1 10.75s.031-.133.078-.18l3.07-3.07-3.07-3.07C.131 4.383.1 4.313.1 4.25s.031-.133.078-.18l.391-.391c.047-.047.117-.078.18-.078s.133.031.18.078L4.57 7.32a.268.268 0 0 1 .078.18zm3 0a.27.27 0 0 1-.078.18l-3.641 3.641c-.047.047-.117.078-.18.078s-.133-.031-.18-.078l-.391-.391c-.047-.047-.078-.117-.078-.18s.031-.133.078-.18l3.07-3.07-3.07-3.07c-.047-.047-.078-.117-.078-.18s.031-.133.078-.18l.391-.391c.047-.047.117-.078.18-.078s.133.031.18.078L7.57 7.32a.268.268 0 0 1 .078.18z"/></svg>
