<svg aria-hidden="true" class="icon icon--clerks-services" width="70" height="65" viewBox="0 0 70 65" fill="none" xmlns="http://www.w3.org/2000/svg">
<g clip-path="url(#clip0_216_405)">
<path d="M8.37629 65C3.75928 65 0 60.6711 0 55.3438V5.69588C0 5.42929 0.1059 5.17363 0.294403 4.98513C0.482906 4.79662 0.738571 4.69072 1.00515 4.69072H48.5825C48.8491 4.69072 49.1047 4.79662 49.2932 4.98513C49.4817 5.17363 49.5876 5.42929 49.5876 5.69588V23.1186C49.5876 23.3851 49.4817 23.6408 49.2932 23.8293C49.1047 24.0178 48.8491 24.1237 48.5825 24.1237C48.3159 24.1237 48.0602 24.0178 47.8717 23.8293C47.6832 23.6408 47.5773 23.3851 47.5773 23.1186V6.70103H2.01031V55.3438C2.01031 60.068 5.31392 62.9897 8.37629 62.9897C12.6381 62.9897 15.6201 59.5454 15.6201 54.6134C15.6201 54.3468 15.726 54.0912 15.9145 53.9026C16.103 53.7141 16.3587 53.6082 16.6253 53.6082H29.1495C29.4161 53.6082 29.6717 53.7141 29.8602 53.9026C30.0487 54.0912 30.1546 54.3468 30.1546 54.6134C30.1546 54.88 30.0487 55.1357 29.8602 55.3242C29.6717 55.5127 29.4161 55.6186 29.1495 55.6186H17.5902C17.1814 61.1134 13.4356 65 8.37629 65Z" fill="#23272B"/>
<path d="M47.4701 65H9.04641C8.77983 65 8.52417 64.8941 8.33566 64.7056C8.14716 64.5171 8.04126 64.2614 8.04126 63.9948C8.04126 63.7283 8.14716 63.4726 8.33566 63.2841C8.52417 63.0956 8.77983 62.9897 9.04641 62.9897H47.4701C48.5859 63.0162 49.6955 62.8163 50.7318 62.4019C51.7681 61.9874 52.7097 61.3672 53.4995 60.5786C54.2893 59.7901 54.9111 58.8495 55.3271 57.8138C55.7432 56.7782 55.9449 55.6689 55.9201 54.5531C55.9201 54.2865 56.026 54.0308 56.2145 53.8423C56.403 53.6538 56.6587 53.5479 56.9253 53.5479C57.1919 53.5479 57.4475 53.6538 57.636 53.8423C57.8245 54.0308 57.9304 54.2865 57.9304 54.5531C57.9439 55.9299 57.6824 57.2955 57.1613 58.5699C56.6403 59.8444 55.8701 61.002 54.8959 61.9749C53.9217 62.9479 52.7631 63.7166 51.488 64.2361C50.2128 64.7555 48.8469 65.0152 47.4701 65V65Z" fill="#23272B"/>
<path d="M54.6135 14.0722C54.3469 14.0722 54.0912 13.9663 53.9027 13.7778C53.7142 13.5893 53.6083 13.3336 53.6083 13.067V2.01031H9.71658C9.45 2.01031 9.19433 1.90441 9.00583 1.71591C8.81733 1.5274 8.71143 1.27174 8.71143 1.00515C8.71143 0.738571 8.81733 0.482906 9.00583 0.294403C9.19433 0.1059 9.45 0 9.71658 0L54.6135 0C54.8801 0 55.1357 0.1059 55.3242 0.294403C55.5127 0.482906 55.6186 0.738571 55.6186 1.00515V13.067C55.6186 13.3336 55.5127 13.5893 55.3242 13.7778C55.1357 13.9663 54.8801 14.0722 54.6135 14.0722Z" fill="#23272B"/>
<path d="M37.1907 16.0825H8.37625C8.10966 16.0825 7.854 15.9766 7.6655 15.7881C7.47699 15.5996 7.37109 15.3439 7.37109 15.0773C7.37109 14.8107 7.47699 14.5551 7.6655 14.3666C7.854 14.1781 8.10966 14.0722 8.37625 14.0722H37.1907C37.4573 14.0722 37.7129 14.1781 37.9014 14.3666C38.0899 14.5551 38.1958 14.8107 38.1958 15.0773C38.1958 15.3439 38.0899 15.5996 37.9014 15.7881C37.7129 15.9766 37.4573 16.0825 37.1907 16.0825Z" fill="#23272B"/>
<path d="M35.8505 24.7938H32.5C32.2334 24.7938 31.9778 24.6879 31.7893 24.4994C31.6008 24.3109 31.4949 24.0552 31.4949 23.7887C31.4949 23.5221 31.6008 23.2664 31.7893 23.0779C31.9778 22.8894 32.2334 22.7835 32.5 22.7835H35.8505C36.1171 22.7835 36.3728 22.8894 36.5613 23.0779C36.7498 23.2664 36.8557 23.5221 36.8557 23.7887C36.8557 24.0552 36.7498 24.3109 36.5613 24.4994C36.3728 24.6879 36.1171 24.7938 35.8505 24.7938Z" fill="#23272B"/>
<path d="M23.7886 24.7938H8.37625C8.10966 24.7938 7.854 24.6879 7.6655 24.4994C7.47699 24.3109 7.37109 24.0552 7.37109 23.7887C7.37109 23.5221 7.47699 23.2664 7.6655 23.0779C7.854 22.8894 8.10966 22.7835 8.37625 22.7835H23.7886C24.0552 22.7835 24.3109 22.8894 24.4994 23.0779C24.6879 23.2664 24.7938 23.5221 24.7938 23.7887C24.7938 24.0552 24.6879 24.3109 24.4994 24.4994C24.3109 24.6879 24.0552 24.7938 23.7886 24.7938Z" fill="#23272B"/>
<path d="M20.4381 33.5052H8.37625C8.10966 33.5052 7.854 33.3993 7.6655 33.2108C7.47699 33.0222 7.37109 32.7666 7.37109 32.5C7.37109 32.2334 7.47699 31.9777 7.6655 31.7892C7.854 31.6007 8.10966 31.4948 8.37625 31.4948H20.4381C20.7047 31.4948 20.9604 31.6007 21.1489 31.7892C21.3374 31.9777 21.4433 32.2334 21.4433 32.5C21.4433 32.7666 21.3374 33.0222 21.1489 33.2108C20.9604 33.3993 20.7047 33.5052 20.4381 33.5052V33.5052Z" fill="#23272B"/>
<path d="M51.1021 45.8686L48.5558 43.5567C50.8274 34.6845 54.982 29.3706 59.4382 27.2732C61.6838 26.5153 63.6915 25.1822 65.2614 23.4067C68.7929 19.5737 69.8583 14.8093 67.647 12.7722C67.6169 12.7483 67.5856 12.7259 67.5532 12.7052L67.4795 12.618C65.2614 10.6077 60.6109 12.0351 57.0795 15.868C55.4448 17.5778 54.2892 19.6879 53.7289 21.9861C52.0068 26.6031 47.0279 31.1799 38.3903 34.1686L35.7635 31.7495C34.6134 30.6908 33.0899 30.1321 31.5281 30.1962C29.9662 30.2603 28.4936 30.9419 27.4341 32.0912L25.1558 34.5639C24.9435 34.7924 24.7786 35.0607 24.6707 35.3533C24.5627 35.6459 24.5139 35.9569 24.527 36.2685C24.5401 36.5801 24.6148 36.886 24.7469 37.1685C24.879 37.4511 25.0658 37.7046 25.2965 37.9144L45.8284 56.8046C46.0565 57.0173 46.3244 57.1827 46.6168 57.2912C46.9091 57.3997 47.2201 57.4491 47.5317 57.4367C47.8432 57.4242 48.1493 57.3501 48.432 57.2186C48.7148 57.0871 48.9686 56.9009 49.1789 56.6706L51.4573 54.1912C51.9805 53.6215 52.3863 52.9542 52.6516 52.2276C52.9169 51.5009 53.0365 50.7292 53.0035 49.9563C52.9705 49.1835 52.7856 48.4247 52.4594 47.7233C52.1332 47.022 51.672 46.3917 51.1021 45.8686V45.8686Z" fill="#C88B66"/>
<path d="M47.4232 58.433C46.5786 58.4337 45.7648 58.1154 45.1449 57.5418L24.5861 38.6113C24.259 38.3129 23.9943 37.9526 23.8073 37.5512C23.6203 37.1499 23.5148 36.7154 23.4967 36.273C23.4786 35.8306 23.5484 35.389 23.7021 34.9737C23.8557 34.5584 24.0901 34.1777 24.3918 33.8536L26.6701 31.3809C27.2835 30.7148 28.022 30.1759 28.8436 29.7952C29.6652 29.4145 30.5538 29.1993 31.4585 29.162C32.3633 29.1246 33.2665 29.2659 34.1167 29.5776C34.9668 29.8894 35.7473 30.3655 36.4134 30.9789L38.598 32.9892C45.9691 30.3088 50.9614 26.3283 52.7304 21.6711C53.346 19.2237 54.5885 16.9789 56.3356 15.1577C60.3093 10.849 65.4959 9.38144 68.1562 11.8407L68.2299 11.9211C68.2666 11.9437 68.3003 11.9708 68.3304 12.0015C71.0109 14.4541 69.9655 19.7479 65.9985 24.0634C64.3271 25.9557 62.1904 27.3786 59.8 28.1912C55.3036 30.3423 51.7588 35.6629 49.6815 43.2082L51.7789 45.1381C53.1231 46.379 53.9203 48.1022 53.9957 49.93C54.071 51.7578 53.4184 53.5409 52.181 54.8881L49.9026 57.3608C49.3 58.012 48.4638 58.3975 47.5773 58.433H47.4232ZM31.7428 31.1665C31.0666 31.1653 30.3976 31.3046 29.7781 31.5757C29.1586 31.8468 28.6023 32.2437 28.1444 32.7412L25.8727 35.2139C25.7509 35.3437 25.6561 35.4965 25.594 35.6633C25.5319 35.8302 25.5036 36.0077 25.5108 36.1856C25.5168 36.3641 25.5584 36.5397 25.6332 36.702C25.708 36.8642 25.8145 37.0099 25.9464 37.1304L46.5119 56.0675C46.6422 56.1881 46.7953 56.2817 46.9621 56.3426C47.1289 56.4036 47.3061 56.4308 47.4835 56.4227C47.661 56.4158 47.8353 56.3738 47.9963 56.299C48.1574 56.2243 48.302 56.1182 48.4217 55.9871L50.7 53.5144C51.1357 53.0426 51.4741 52.4894 51.6957 51.8867C51.9174 51.2839 52.0181 50.6434 51.9919 50.0017C51.9658 49.36 51.8134 48.7298 51.5434 48.147C51.2734 47.5643 50.8912 47.0405 50.4186 46.6057L47.8789 44.267C47.7427 44.1451 47.6425 43.9882 47.5893 43.8133C47.5362 43.6385 47.532 43.4523 47.5773 43.2753C49.7485 34.7918 53.8093 28.7742 58.9691 26.3283L59.1165 26.2747C61.184 25.5645 63.0313 24.3291 64.4773 22.6897C67.5531 19.3392 68.6789 15.1778 66.9701 13.5227L66.8696 13.4423C66.842 13.4236 66.8171 13.401 66.7959 13.3753L66.7155 13.2881C64.9263 11.7134 60.8454 13.1809 57.7763 16.518C56.2591 18.0938 55.1803 20.0389 54.6469 22.1603C54.6344 22.2104 54.6187 22.2596 54.6 22.3077C52.5897 27.6686 46.9273 32.2253 38.6516 35.0866C38.4797 35.1453 38.2953 35.157 38.1174 35.1205C37.9394 35.084 37.7745 35.0006 37.6397 34.8789L35.0129 32.4531C34.1199 31.634 32.9546 31.1755 31.7428 31.1665Z" fill="#23272B"/>
<path d="M21.973 41.5335L21.8223 41.6954C21.3132 42.2427 21.3441 43.0992 21.8915 43.6084L40.1433 60.5869C40.6907 61.096 41.5472 61.0651 42.0563 60.5177L42.207 60.3558C42.7161 59.8084 42.6852 58.9519 42.1378 58.4428L23.886 41.4643C23.3386 40.9551 22.4821 40.9861 21.973 41.5335Z" fill="#A7A7A7"/>
</g>
<defs>
<clipPath id="clip0_216_405">
<rect width="69.8046" height="65" fill="white"/>
</clipPath>
</defs>
</svg>
