<svg aria-hidden="true" class="icon icon--close" xmlns="http://www.w3.org/2000/svg" width="48" height="48"><path d="M10 4c-1.656 0-3.16.674-4.242 1.758S4 8.344 4 10v28c0 1.656.674 3.16 1.758 4.242S8.344 44 10 44h28c1.656 0 3.16-.674 4.242-1.758S44 39.656 44 38V10c0-1.656-.674-3.16-1.758-4.242S39.656 4 38 4zm0 4h28c.552 0 1.05.222 1.414.586S40 9.448 40 10v28c0 .552-.222 1.05-.586 1.414S38.552 40 38 40H10c-.552 0-1.05-.222-1.414-.586S8 38.552 8 38V10c0-.552.222-1.05.586-1.414S9.448 8 10 8zm18.586 8.586L24 21.172l-4.586-4.586a2 2 0 1 0-2.828 2.828L21.172 24l-4.586 4.586a2 2 0 1 0 2.828 2.828L24 26.828l4.586 4.586a2 2 0 1 0 2.828-2.828L26.828 24l4.586-4.586a2 2 0 1 0-2.828-2.828z"/></svg>
