<svg aria-hidden="true" class="icon icon--courthouse" width="68" height="65" fill="none" xmlns="http://www.w3.org/2000/svg"><path d="M51.594 15.22h10.873c.093-.253.143-.52.15-.79a2.391 2.391 0 0 0-2.381-2.386A4.765 4.765 0 0 0 56.059 7.2a4.768 4.768 0 0 0-5.238 3.672 3.852 3.852 0 0 0-4.155.43l4.928 3.92Z" fill="#A7A7A7"/><path d="M58.582 21.514H8.67a.853.853 0 0 1-.533-1.528L33.091.19a.853.853 0 0 1 1.065 0l24.958 19.797a.86.86 0 0 1-.532 1.534v-.006Zm-47.45-1.716H56.12L33.623 1.95 11.132 19.797Z" fill="#23272B"/><path d="M20.03 29.284v23.963a2.34 2.34 0 0 0 2.29 2.38v.79h-3.148a2.572 2.572 0 0 1-2.575-2.563V28.678a2.57 2.57 0 0 1 2.564-2.575h2.398l1.047.79a2.65 2.65 0 0 0-1.82.703 2.289 2.289 0 0 0-.755 1.688ZM33.623 16.164a3.565 3.565 0 1 0 0-7.13 3.565 3.565 0 0 0 0 7.13Z" fill="#C88B66"/><path d="M33.623 17.022a4.425 4.425 0 0 1-4.34-5.281 4.423 4.423 0 1 1 4.34 5.281Zm0-7.129a2.708 2.708 0 0 0-2.654 3.239 2.706 2.706 0 1 0 2.654-3.239ZM55.228 25.52H11.732a.859.859 0 0 1 0-1.717h43.496a.858.858 0 1 1 0 1.716ZM65.53 62.14H.857a.859.859 0 0 1 0-1.718H65.53a.858.858 0 1 1 0 1.717ZM57.517 59.278H8.87a.859.859 0 0 1 0-1.716h48.646a.859.859 0 1 1 0 1.716ZM11.16 56.074a.859.859 0 1 1 0-1.717 1.43 1.43 0 0 0 1.43-1.43V30.04a1.43 1.43 0 1 0-1.43 1.43.859.859 0 1 1 0 1.717 3.148 3.148 0 0 1-2.226-5.373 3.148 3.148 0 0 1 5.374 2.226v22.887a3.152 3.152 0 0 1-3.148 3.147ZM21.547 56.646a3.234 3.234 0 0 1-3.233-3.256V29.628a3.233 3.233 0 1 1 4.006 3.118c-.243.061-.493.09-.744.086a.859.859 0 0 1 0-1.717 1.42 1.42 0 0 0 .35-.04 1.528 1.528 0 1 0-1.895-1.47V53.39a1.518 1.518 0 0 0 1.516 1.54.859.859 0 1 1 0 1.716Z" fill="#23272B"/><path d="M54.942 29.284v23.963a2.34 2.34 0 0 0 2.289 2.38v.79h-3.148a2.572 2.572 0 0 1-2.575-2.563V28.678a2.57 2.57 0 0 1 2.564-2.575h2.455l.99.79a2.65 2.65 0 0 0-1.82.703 2.289 2.289 0 0 0-.755 1.688Z" fill="#C88B66"/><path d="M46.07 56.074a.859.859 0 1 1 0-1.717 1.43 1.43 0 0 0 1.432-1.43V30.04a1.43 1.43 0 0 0-2.443-1.012 1.43 1.43 0 0 0 1.012 2.442.859.859 0 1 1 0 1.717 3.148 3.148 0 0 1-2.226-5.373 3.148 3.148 0 0 1 5.373 2.226v22.887a3.152 3.152 0 0 1-3.147 3.147ZM56.458 56.646a3.238 3.238 0 0 1-3.233-3.256V29.628a3.232 3.232 0 0 1 5.22-2.572 3.232 3.232 0 0 1-1.214 5.69c-.232.057-.47.086-.71.086a.87.87 0 0 1-.864-.853.858.858 0 0 1 .853-.864c.111-.002.223-.015.332-.04a1.534 1.534 0 0 0-.384-3.038h-.04a1.517 1.517 0 0 0-1.476 1.568V53.39a1.518 1.518 0 0 0 1.516 1.54.858.858 0 1 1 0 1.716Z" fill="#23272B"/><path d="M37.2 29.284v23.963a2.34 2.34 0 0 0 2.29 2.38v.79h-3.148a2.572 2.572 0 0 1-2.576-2.563V28.678a2.57 2.57 0 0 1 2.564-2.575h2.587l.858.79a2.65 2.65 0 0 0-1.82.703 2.289 2.289 0 0 0-.755 1.688Z" fill="#C88B66"/><path d="M28.33 56.074a.859.859 0 0 1 0-1.717 1.431 1.431 0 0 0 1.43-1.43V30.04a1.43 1.43 0 1 0-1.43 1.43.859.859 0 1 1 0 1.717 3.148 3.148 0 1 1 3.147-3.147v22.887a3.152 3.152 0 0 1-3.148 3.147ZM38.717 56.646a3.239 3.239 0 0 1-3.234-3.256V29.628a3.232 3.232 0 0 1 5.22-2.572 3.233 3.233 0 0 1-1.214 5.69c-.232.057-.47.086-.71.086a.859.859 0 0 1 0-1.717c.112-.002.224-.015.333-.04a1.534 1.534 0 0 0-.395-3.038h-.04a1.516 1.516 0 0 0-1.477 1.568V53.39a1.516 1.516 0 0 0 1.517 1.54.858.858 0 1 1 0 1.716ZM8.67 24.947a.859.859 0 0 1-.858-.858v-3.433a.858.858 0 0 1 1.717 0v3.433a.858.858 0 0 1-.859.858ZM58.582 24.907a.858.858 0 0 1-.859-.858v-3.393a.858.858 0 0 1 1.717 0v3.376a.858.858 0 0 1-.858.875ZM65.53 65a.859.859 0 0 1-.86-.858V61.28a.858.858 0 0 1 1.718 0v2.86a.858.858 0 0 1-.859.859ZM.858 65A.858.858 0 0 1 0 64.142V61.28a.858.858 0 0 1 1.717 0v2.86A.858.858 0 0 1 .858 65ZM10.015 36.963H.858A.858.858 0 0 1 0 36.105V25.233a.858.858 0 0 1 .858-.858h4.579a.858.858 0 1 1 0 1.716h-3.72v9.155h8.298a.859.859 0 1 1 0 1.717ZM66.674 36.963h-9.157a.859.859 0 1 1 0-1.717h8.299v-9.155h-3.72a.859.859 0 1 1 0-1.716h4.578a.858.858 0 0 1 .859.858v10.872a.858.858 0 0 1-.859.858Z" fill="#23272B"/><path d="M3.148 62.14a.859.859 0 0 1-.859-.86V36.106a.858.858 0 1 1 1.717 0V61.28a.858.858 0 0 1-.858.858ZM64.385 62.14a.859.859 0 0 1-.859-.86V36.106a.858.858 0 0 1 1.717 0V61.28a.858.858 0 0 1-.858.858ZM27.757 18.653H17.742a.853.853 0 0 1-.533-1.528l6.983-5.544a.856.856 0 0 1 1.064 1.339l-5.053 4.005h7.554a.858.858 0 1 1 0 1.717v.011ZM49.488 18.653h-9.73a.859.859 0 0 1 0-1.716h7.269l-5.06-4.006a.855.855 0 1 1 1.065-1.339l6.988 5.533a.853.853 0 0 1-.532 1.528Z" fill="#23272B"/><path d="M18.886 8.926c.098-.254.149-.523.149-.795a2.391 2.391 0 0 0-2.387-2.38A4.76 4.76 0 0 0 9.191 1.84a4.76 4.76 0 0 0-1.923 2.766 3.807 3.807 0 0 0-3.176-.143A4.006 4.006 0 0 0 1.648 7.21a3.947 3.947 0 0 0 0 1.716h17.238Z" fill="#A7A7A7"/><path d="M22.034 51.84a.858.858 0 0 1-.858-.859V38.394a.858.858 0 1 1 1.716 0V50.98a.858.858 0 0 1-.858.859ZM44.926 49.551a.859.859 0 0 1-.858-.858V36.105a.858.858 0 0 1 1.717 0v12.588a.858.858 0 0 1-.859.858ZM22.034 36.557a.893.893 0 1 0 0-1.786.893.893 0 0 0 0 1.786ZM44.926 52.618a.893.893 0 1 0 0-1.785.893.893 0 0 0 0 1.785Z" fill="#23272B"/></svg>
