<svg aria-hidden="true" class="icon icon--electronic-filing" width="72" height="65" viewBox="0 0 72 65" fill="none" xmlns="http://www.w3.org/2000/svg">
<path d="M11.5111 20.4607H7.02091C6.95238 20.4622 6.88697 20.4897 6.83793 20.5376C6.78889 20.5855 6.75989 20.6502 6.75679 20.7187V55.0553L2.45703 54.8772V18.7961C2.45866 18.0966 2.73765 17.4264 3.23281 16.9324C3.72797 16.4384 4.39886 16.1609 5.09831 16.1609H11.5234L11.5111 20.4607Z" fill="#A7A7A7"/>
<path d="M59.7481 20.4607H63.624C63.6925 20.4607 63.7581 20.4879 63.8065 20.5363C63.8548 20.5846 63.882 20.6503 63.882 20.7187V55.0553L68.1818 54.8772V18.7961C68.1818 18.0972 67.9041 17.4269 67.41 16.9328C66.9158 16.4386 66.2455 16.1609 65.5466 16.1609H59.7358L59.7481 20.4607Z" fill="#A7A7A7"/>
<path d="M39.1216 54.8587C39.0011 55.2433 38.7525 55.5749 38.4172 55.7985C38.0819 56.022 37.6802 56.1239 37.2789 56.0872H33.9374C33.1573 56.1609 32.0946 54.8587 32.0946 54.8587H0.614258V55.473C0.614258 56.4504 1.00255 57.3879 1.69372 58.079C2.38488 58.7702 3.32231 59.1585 4.29976 59.1585H66.3391C67.3165 59.1585 68.2539 58.7702 68.9451 58.079C69.6363 57.3879 70.0246 56.4504 70.0246 55.473V54.8587H39.1216Z" fill="#A7A7A7"/>
<path d="M62.7579 65C63.3211 65 63.7776 64.5435 63.7776 63.9803C63.7776 63.4172 63.3211 62.9607 62.7579 62.9607C62.1948 62.9607 61.7383 63.4172 61.7383 63.9803C61.7383 64.5435 62.1948 65 62.7579 65Z" fill="#23272B"/>
<path d="M59.2753 64.6867H7.06395C6.81959 64.6867 6.58523 64.5897 6.41244 64.4169C6.23965 64.2441 6.14258 64.0097 6.14258 63.7654C6.14258 63.521 6.23965 63.2866 6.41244 63.1138C6.58523 62.9411 6.81959 62.844 7.06395 62.844H59.2753C59.5196 62.844 59.754 62.9411 59.9268 63.1138C60.0996 63.2866 60.1966 63.521 60.1966 63.7654C60.1966 64.0097 60.0996 64.2441 59.9268 64.4169C59.754 64.5897 59.5196 64.6867 59.2753 64.6867Z" fill="#23272B"/>
<path d="M56.5112 4.42876V6.94718H63.8822V4.29976C63.8822 3.32231 63.4939 2.38488 62.8027 1.69372C62.1116 1.00255 61.1741 0.61426 60.1967 0.61426C59.9281 0.61247 59.6602 0.641321 59.3982 0.700255C58.5654 0.902183 57.8261 1.38122 57.3015 2.05873C56.7769 2.73625 56.4982 3.57198 56.5112 4.42876V4.42876Z" fill="#C88B66"/>
<path d="M2.76415 55.473C2.51979 55.473 2.28543 55.3759 2.11264 55.2031C1.93985 55.0303 1.84277 54.796 1.84277 54.5516V18.4889C1.84602 17.5456 2.22261 16.642 2.89021 15.9755C3.55781 15.3091 4.46211 14.9341 5.40543 14.9324H11.3637C11.608 14.9324 11.8424 15.0295 12.0152 15.2023C12.188 15.3751 12.285 15.6094 12.285 15.8538C12.285 16.0982 12.188 16.3325 12.0152 16.5053C11.8424 16.6781 11.608 16.7752 11.3637 16.7752H5.40543C4.95034 16.7752 4.51381 16.9555 4.19144 17.2768C3.86907 17.598 3.68715 18.0339 3.68553 18.4889V54.5516C3.68553 54.796 3.58845 55.0303 3.41566 55.2031C3.24287 55.3759 3.00851 55.473 2.76415 55.473Z" fill="#23272B"/>
<path d="M68.4889 55.473C68.2445 55.473 68.0102 55.3759 67.8374 55.2031C67.6646 55.0303 67.5675 54.796 67.5675 54.5516V18.4889C67.5675 18.0344 67.387 17.5985 67.0656 17.2771C66.7442 16.9557 66.3083 16.7752 65.8538 16.7752H59.8894C59.645 16.7752 59.4107 16.6781 59.2379 16.5053C59.0651 16.3325 58.968 16.0982 58.968 15.8538C58.968 15.6094 59.0651 15.3751 59.2379 15.2023C59.4107 15.0295 59.645 14.9324 59.8894 14.9324H65.8538C66.7965 14.9341 67.7002 15.3093 68.3668 15.9759C69.0334 16.6425 69.4086 17.5462 69.4103 18.4889V54.5516C69.4103 54.796 69.3132 55.0303 69.1404 55.2031C68.9676 55.3759 68.7333 55.473 68.4889 55.473Z" fill="#23272B"/>
<path d="M7.06395 55.473C6.81959 55.473 6.58523 55.3759 6.41244 55.2031C6.23965 55.0303 6.14258 54.796 6.14258 54.5516V20.4116C6.1442 20.0982 6.26982 19.7982 6.49197 19.5772C6.71412 19.3562 7.01473 19.2322 7.32808 19.2322H11.3637C11.6081 19.2322 11.8424 19.3293 12.0152 19.5021C12.188 19.6748 12.2851 19.9092 12.2851 20.1536C12.2851 20.3979 12.188 20.6323 12.0152 20.8051C11.8424 20.9779 11.6081 21.0749 11.3637 21.0749H7.98533V54.5516C7.98533 54.796 7.88826 55.0303 7.71547 55.2031C7.54267 55.3759 7.30832 55.473 7.06395 55.473Z" fill="#23272B"/>
<path d="M64.1891 54.8587C63.9448 54.8587 63.7104 54.7617 63.5376 54.5889C63.3648 54.4161 63.2678 54.1817 63.2678 53.9374V21.0749H59.8894C59.645 21.0749 59.4107 20.9779 59.2379 20.8051C59.0651 20.6323 58.968 20.3979 58.968 20.1536C58.968 19.9092 59.0651 19.6748 59.2379 19.5021C59.4107 19.3293 59.645 19.2322 59.8894 19.2322H63.9312C64.2439 19.2322 64.5439 19.3564 64.7651 19.5776C64.9863 19.7988 65.1105 20.0988 65.1105 20.4116V53.9374C65.1105 54.1817 65.0134 54.4161 64.8407 54.5889C64.6679 54.7617 64.4335 54.8587 64.1891 54.8587V54.8587Z" fill="#23272B"/>
<path d="M14.4349 54.8587C14.1905 54.8587 13.9562 54.7616 13.7834 54.5889C13.6106 54.4161 13.5135 54.1817 13.5135 53.9373V4.18305C13.5099 3.63793 13.6169 3.09775 13.828 2.59519C14.0392 2.09262 14.3501 1.63813 14.742 1.25921C15.2006 0.837086 15.739 0.51094 16.3255 0.299964C16.912 0.0889872 17.5348 -0.00255861 18.1573 0.030712H59.9263C60.1707 0.030712 60.405 0.127785 60.5778 0.300577C60.7506 0.473368 60.8477 0.707724 60.8477 0.952088C60.8477 1.19645 60.7506 1.43081 60.5778 1.6036C60.405 1.77639 60.1707 1.87346 59.9263 1.87346H18.1573C17.7718 1.84168 17.3838 1.88785 17.0166 2.00921C16.6493 2.13057 16.3103 2.32464 16.0197 2.57985C15.8047 2.78701 15.6348 3.03633 15.5206 3.3122C15.4065 3.58807 15.3505 3.88455 15.3563 4.18305V53.9373C15.3563 54.1817 15.2592 54.4161 15.0864 54.5889C14.9136 54.7616 14.6793 54.8587 14.4349 54.8587V54.8587Z" fill="#23272B"/>
<path d="M56.8181 54.8587C56.5737 54.8587 56.3394 54.7616 56.1666 54.5888C55.9938 54.4161 55.8967 54.1817 55.8967 53.9373V4.35503C55.8967 4.11067 55.9938 3.87631 56.1666 3.70352C56.3394 3.53073 56.5737 3.43365 56.8181 3.43365C57.0625 3.43365 57.2968 3.53073 57.4696 3.70352C57.6424 3.87631 57.7395 4.11067 57.7395 4.35503V53.9373C57.7395 54.1817 57.6424 54.4161 57.4696 54.5888C57.2968 54.7616 57.0625 54.8587 56.8181 54.8587Z" fill="#23272B"/>
<path d="M66.6462 59.7727H4.60688C3.38506 59.7727 2.21328 59.2874 1.34932 58.4234C0.485366 57.5594 0 56.3877 0 55.1658L0 54.5516C0 54.3072 0.0970732 54.0729 0.269865 53.9001C0.442656 53.7273 0.677012 53.6302 0.921376 53.6302H32.0946C32.3245 53.636 32.5438 53.7281 32.7088 53.8882C33.1197 54.2859 33.5927 54.6137 34.1093 54.8587H37.1314C37.6245 54.7187 38.0569 54.4183 38.36 54.0049C38.4464 53.8892 38.5585 53.7952 38.6875 53.7302C38.8165 53.6651 38.9588 53.6309 39.1032 53.6302H70.3317C70.5761 53.6302 70.8104 53.7273 70.9832 53.9001C71.156 54.0729 71.2531 54.3072 71.2531 54.5516V55.1658C71.2531 56.3877 70.7677 57.5594 69.9037 58.4234C69.0398 59.2874 67.868 59.7727 66.6462 59.7727ZM1.84275 55.473C1.91827 56.1484 2.24002 56.7724 2.74652 57.2257C3.25302 57.6789 3.90876 57.9296 4.58845 57.93H66.6278C67.3075 57.9296 67.9632 57.6789 68.4697 57.2257C68.9762 56.7724 69.2979 56.1484 69.3735 55.473H39.5516C39.0007 56.072 38.2881 56.4987 37.5 56.7015C37.4266 56.7105 37.3523 56.7105 37.2789 56.7015H33.9373C33.8108 56.702 33.6854 56.6769 33.5688 56.6278C32.8976 56.3421 32.2757 55.9524 31.726 55.473H1.84275Z" fill="#23272B"/>
<path d="M64.1891 8.17568H56.8181C56.5737 8.17568 56.3394 8.07861 56.1666 7.90581C55.9938 7.73302 55.8967 7.49867 55.8967 7.2543V4.61303C55.8981 4.25738 55.9393 3.903 56.0196 3.55651C56.2986 2.36881 57.0373 1.34027 58.0737 0.696557C59.1101 0.0528417 60.3595 -0.153481 61.5478 0.122854C62.5784 0.375037 63.4926 0.970337 64.1401 1.81091C64.7875 2.65148 65.1297 3.68732 65.1105 4.74816V7.2543C65.1105 7.49867 65.0134 7.73302 64.8406 7.90581C64.6678 8.07861 64.4335 8.17568 64.1891 8.17568V8.17568ZM57.7395 6.33293H63.2677V4.73588C63.2819 4.09115 63.077 3.46067 62.6865 2.94745C62.296 2.43423 61.743 2.06861 61.1179 1.91032C60.4053 1.74847 59.6576 1.87538 59.0383 2.26329C58.419 2.6512 57.9785 3.26856 57.8132 3.98035C57.7652 4.1816 57.7405 4.3877 57.7395 4.5946V6.33293Z" fill="#23272B"/>
<path d="M22.0454 10.0184H20.5774C20.333 10.0184 20.0987 9.92137 19.9259 9.74858C19.7531 9.57578 19.656 9.34143 19.656 9.09707C19.656 8.8527 19.7531 8.61835 19.9259 8.44555C20.0987 8.27276 20.333 8.17569 20.5774 8.17569H22.0454C22.2898 8.17569 22.5242 8.27276 22.697 8.44555C22.8697 8.61835 22.9668 8.8527 22.9668 9.09707C22.9668 9.34143 22.8697 9.57578 22.697 9.74858C22.5242 9.92137 22.2898 10.0184 22.0454 10.0184V10.0184Z" fill="#23272B"/>
<path d="M45.0982 10.0184H42.1437C41.8993 10.0184 41.665 9.92137 41.4922 9.74858C41.3194 9.57578 41.2223 9.34143 41.2223 9.09707C41.2223 8.8527 41.3194 8.61835 41.4922 8.44555C41.665 8.27276 41.8993 8.17569 42.1437 8.17569H45.0982C45.3426 8.17569 45.577 8.27276 45.7497 8.44555C45.9225 8.61835 46.0196 8.8527 46.0196 9.09707C46.0196 9.34143 45.9225 9.57578 45.7497 9.74858C45.577 9.92137 45.3426 10.0184 45.0982 10.0184V10.0184ZM37.414 10.0184H34.4594C34.215 10.0184 33.9807 9.92137 33.8079 9.74858C33.6351 9.57578 33.538 9.34143 33.538 9.09707C33.538 8.8527 33.6351 8.61835 33.8079 8.44555C33.9807 8.27276 34.215 8.17569 34.4594 8.17569H37.414C37.6583 8.17569 37.8927 8.27276 38.0655 8.44555C38.2383 8.61835 38.3353 8.8527 38.3353 9.09707C38.3353 9.34143 38.2383 9.57578 38.0655 9.74858C37.8927 9.92137 37.6583 10.0184 37.414 10.0184V10.0184ZM29.7297 10.0184H26.7751C26.5308 10.0184 26.2964 9.92137 26.1236 9.74858C25.9508 9.57578 25.8538 9.34143 25.8538 9.09707C25.8538 8.8527 25.9508 8.61835 26.1236 8.44555C26.2964 8.27276 26.5308 8.17569 26.7751 8.17569H29.7297C29.974 8.17569 30.2084 8.27276 30.3812 8.44555C30.554 8.61835 30.6511 8.8527 30.6511 9.09707C30.6511 9.34143 30.554 9.57578 30.3812 9.74858C30.2084 9.92137 29.974 10.0184 29.7297 10.0184V10.0184Z" fill="#23272B"/>
<path d="M51.29 10.0184H49.8281C49.5838 10.0184 49.3494 9.92137 49.1766 9.74858C49.0038 9.57578 48.9067 9.34143 48.9067 9.09707C48.9067 8.8527 49.0038 8.61835 49.1766 8.44555C49.3494 8.27276 49.5838 8.17569 49.8281 8.17569H51.29C51.5344 8.17569 51.7688 8.27276 51.9415 8.44555C52.1143 8.61835 52.2114 8.8527 52.2114 9.09707C52.2114 9.34143 52.1143 9.57578 51.9415 9.74858C51.7688 9.92137 51.5344 10.0184 51.29 10.0184V10.0184Z" fill="#23272B"/>
<path d="M51.2899 16.1609H20.5774C20.333 16.1609 20.0987 16.0639 19.9259 15.8911C19.7531 15.7183 19.656 15.4839 19.656 15.2396C19.656 14.9952 19.7531 14.7608 19.9259 14.5881C20.0987 14.4153 20.333 14.3182 20.5774 14.3182H51.2899C51.5343 14.3182 51.7686 14.4153 51.9414 14.5881C52.1142 14.7608 52.2113 14.9952 52.2113 15.2396C52.2113 15.4839 52.1142 15.7183 51.9414 15.8911C51.7686 16.0639 51.5343 16.1609 51.2899 16.1609Z" fill="#23272B"/>
<path d="M51.29 21.6892H45.1475C44.9031 21.6892 44.6687 21.5921 44.4959 21.4193C44.3231 21.2465 44.2261 21.0122 44.2261 20.7678C44.2261 20.5234 44.3231 20.2891 44.4959 20.1163C44.6687 19.9435 44.9031 19.8464 45.1475 19.8464H51.29C51.5343 19.8464 51.7687 19.9435 51.9415 20.1163C52.1143 20.2891 52.2113 20.5234 52.2113 20.7678C52.2113 21.0122 52.1143 21.2465 51.9415 21.4193C51.7687 21.5921 51.5343 21.6892 51.29 21.6892Z" fill="#23272B"/>
<path d="M26.7199 21.6892H20.5774C20.333 21.6892 20.0987 21.5921 19.9259 21.4193C19.7531 21.2465 19.656 21.0122 19.656 20.7678C19.656 20.5234 19.7531 20.2891 19.9259 20.1163C20.0987 19.9435 20.333 19.8464 20.5774 19.8464H26.7199C26.9643 19.8464 27.1986 19.9435 27.3714 20.1163C27.5442 20.2891 27.6413 20.5234 27.6413 20.7678C27.6413 21.0122 27.5442 21.2465 27.3714 21.4193C27.1986 21.5921 26.9643 21.6892 26.7199 21.6892Z" fill="#23272B"/>
<path d="M36.6277 51.2224C36.3833 51.2224 36.149 51.1253 35.9762 50.9525C35.8034 50.7797 35.7063 50.5454 35.7063 50.301V42.3157C35.7063 42.0714 35.8034 41.837 35.9762 41.6642C36.149 41.4914 36.3833 41.3944 36.6277 41.3944C36.872 41.3944 37.1064 41.4914 37.2792 41.6642C37.452 41.837 37.549 42.0714 37.549 42.3157V50.301C37.549 50.5454 37.452 50.7797 37.2792 50.9525C37.1064 51.1253 36.872 51.2224 36.6277 51.2224V51.2224Z" fill="#23272B"/>
<path d="M34.8096 44.8403C34.6267 44.8366 34.4491 44.7786 34.2994 44.6737C34.1496 44.5687 34.0345 44.4216 33.9686 44.251C33.9027 44.0804 33.8891 43.894 33.9295 43.7157C33.9699 43.5373 34.0624 43.375 34.1953 43.2494L36.0381 41.4988C36.2087 41.334 36.4366 41.2419 36.6738 41.2419C36.911 41.2419 37.139 41.334 37.3096 41.4988L39.0725 43.1818C39.2492 43.3513 39.3514 43.584 39.3566 43.8288C39.3618 44.0735 39.2695 44.3104 39.1001 44.4871C38.9307 44.6639 38.698 44.7661 38.4532 44.7713C38.2084 44.7765 37.9716 44.6842 37.7948 44.5148L36.6708 43.4337L35.4423 44.5823C35.2719 44.7457 35.0456 44.838 34.8096 44.8403V44.8403Z" fill="#23272B"/>
<path d="M49.14 27.4017H21.4988C21.2544 27.4017 21.02 27.3047 20.8473 27.1319C20.6745 26.9591 20.5774 26.7247 20.5774 26.4804C20.5774 26.236 20.6745 26.0016 20.8473 25.8288C21.02 25.656 21.2544 25.559 21.4988 25.559H49.14C49.3844 25.559 49.6188 25.656 49.7916 25.8288C49.9643 26.0016 50.0614 26.236 50.0614 26.4804C50.0614 26.7247 49.9643 26.9591 49.7916 27.1319C49.6188 27.3047 49.3844 27.4017 49.14 27.4017Z" fill="#23272B"/>
<path d="M49.14 32.93H21.4988C21.2544 32.93 21.02 32.8329 20.8473 32.6601C20.6745 32.4873 20.5774 32.253 20.5774 32.0086C20.5774 31.7642 20.6745 31.5299 20.8473 31.3571C21.02 31.1843 21.2544 31.0872 21.4988 31.0872H49.14C49.3844 31.0872 49.6188 31.1843 49.7916 31.3571C49.9643 31.5299 50.0614 31.7642 50.0614 32.0086C50.0614 32.253 49.9643 32.4873 49.7916 32.6601C49.6188 32.8329 49.3844 32.93 49.14 32.93V32.93Z" fill="#23272B"/>
<path d="M49.14 38.4582H21.4988C21.2544 38.4582 21.02 38.3612 20.8473 38.1884C20.6745 38.0156 20.5774 37.7812 20.5774 37.5369C20.5774 37.2925 20.6745 37.0581 20.8473 36.8854C21.02 36.7126 21.2544 36.6155 21.4988 36.6155H49.14C49.3844 36.6155 49.6188 36.7126 49.7916 36.8854C49.9643 37.0581 50.0614 37.2925 50.0614 37.5369C50.0614 37.7812 49.9643 38.0156 49.7916 38.1884C49.6188 38.3612 49.3844 38.4582 49.14 38.4582V38.4582Z" fill="#23272B"/>
</svg>
