<svg aria-hidden="true" class="icon icon--fees" width="76" height="65" viewBox="0 0 76 65" fill="none" xmlns="http://www.w3.org/2000/svg">
<g clip-path="url(#clip0_216_233)">
<path d="M55.2339 50.7242C55.2339 53.9229 53.6133 59.1731 49.7712 61.6495C46.3722 63.8468 40.9399 63.4704 37.6319 63.4704C34.1661 63.4704 29.4318 64.478 25.4926 62.2565C21.432 59.9622 18.209 54.3659 18.209 51.3311C18.209 48.9033 18.5671 44.9883 22.4577 39.7988C24.2786 37.3709 29.0008 34.3786 30.3483 31.9082C31.6958 29.4379 31.5622 26.8825 32.1692 24.6246C30.3483 24.0176 26.0995 17.948 27.9204 17.948H44.3085C46.0748 17.948 44.3085 21.5898 41.2737 25.2316C42.2873 28.0176 42.7547 30.9795 44.3085 33.7291C46.2023 37.0796 49.6073 37.8261 51.5921 40.4057C53.7402 43.4405 55.0012 47.0133 55.2339 50.7242V50.7242Z" fill="#C88B66"/>
<path d="M15.3562 51.3311C14.8464 52.6482 11.3503 51.1005 9.584 49.6316C7.81773 48.1628 7.02867 44.8123 7.89056 43.7016C11.8541 45.0065 15.1742 46.7728 15.3562 51.3311Z" fill="#A7A7A7"/>
<path d="M13.4261 56.4478C8.6857 53.7954 3.30191 54.8212 1.57812 55.3917C1.61454 55.7316 3.87853 60.5813 7.97555 62.6753C11.411 64.4416 16.5702 63.695 18.561 62.5114C18.385 61.34 17.0497 58.4508 13.4261 56.4478Z" fill="#A7A7A7"/>
<path d="M17.9298 63.6586C17.7243 63.6585 17.5249 63.5889 17.364 63.461C17.2031 63.3332 17.0902 63.1547 17.0436 62.9545C16.3517 59.9865 14.986 58.8939 12.8738 57.9956C11.6461 57.4809 10.3372 57.187 9.00738 57.1277C8.76592 57.1164 8.53882 57.0097 8.37604 56.831C8.21327 56.6522 8.12815 56.4162 8.13942 56.1747C8.15069 55.9333 8.25742 55.7062 8.43613 55.5434C8.61484 55.3806 8.85089 55.2955 9.09236 55.3068C10.6356 55.3777 12.1541 55.7209 13.5778 56.3204C16.558 57.5768 18.0755 59.3552 18.816 62.5418C18.8705 62.7768 18.8296 63.0239 18.7021 63.2287C18.5747 63.4336 18.3711 63.5795 18.1362 63.6343C18.0687 63.6514 17.9993 63.6595 17.9298 63.6586V63.6586Z" fill="#23272B"/>
<path d="M12.6492 65H12.109C9.18737 64.8194 6.42319 63.6136 4.30341 61.5949C1.88475 59.3288 0.358041 56.271 1.58928e-05 52.976C-0.023477 52.7709 0.0239226 52.5639 0.134339 52.3894C0.244755 52.215 0.41154 52.0836 0.606982 52.017C3.22301 51.149 8.32759 50.0444 13.0983 52.4055C14.6745 53.1069 16.0451 54.1996 17.08 55.5799C18.5383 57.7104 19.1626 60.3026 18.8342 62.8635C18.816 63.0074 18.7636 63.1448 18.6812 63.2642C18.5988 63.3836 18.4889 63.4814 18.3607 63.5494C16.6064 64.4985 14.6438 64.9969 12.6492 65V65ZM1.91803 53.5223C2.36981 56.1016 3.648 58.4641 5.55983 60.2535C7.36971 61.9853 9.73594 63.0179 12.2365 63.167C13.9225 63.2377 15.6002 62.8938 17.1225 62.1655C17.2696 60.2086 16.7498 58.2596 15.6476 56.636C14.7965 55.5161 13.675 54.6306 12.3882 54.0625H12.3518C8.52789 52.1627 4.41266 52.8061 1.91803 53.5223Z" fill="#23272B"/>
<path d="M15.1741 53.2734H15.0891C14.8828 53.2734 10.0513 52.7757 7.933 49.577C5.81469 46.3783 7.36245 41.8564 7.42922 41.6864C7.49321 41.4931 7.62142 41.3274 7.79257 41.217C7.96371 41.1066 8.16747 41.0581 8.37001 41.0795C8.57638 41.0795 13.4018 41.5893 15.5261 44.7759C17.6505 47.9928 16.1331 52.4965 16.0299 52.6664C15.9673 52.8435 15.8515 52.9969 15.6982 53.1056C15.545 53.2143 15.3619 53.2729 15.1741 53.2734V53.2734ZM8.94056 42.955C8.64922 44.1689 8.25469 46.7303 9.45041 48.533C10.6461 50.3357 13.244 51.0641 14.5186 51.3129C14.8099 50.099 15.2045 47.5436 14.0087 45.7349C12.813 43.9261 10.2031 43.2342 8.92842 42.9853L8.94056 42.955Z" fill="#23272B"/>
<path d="M16.3152 56.8545C16.1148 56.8547 15.9199 56.7888 15.7608 56.667C15.6017 56.5452 15.4872 56.3743 15.4351 56.1808C14.6052 53.0826 13.0981 50.2073 11.0225 47.7622C10.8844 47.5767 10.822 47.3456 10.8481 47.1159C10.8741 46.8861 10.9866 46.6749 11.1627 46.525C11.3388 46.3752 11.5654 46.298 11.7963 46.309C12.0273 46.3201 12.2454 46.4186 12.4063 46.5846C14.6549 49.2289 16.2904 52.3381 17.1953 55.6891C17.2265 55.8047 17.2346 55.9253 17.2192 56.044C17.2037 56.1627 17.165 56.2772 17.1052 56.381C17.0455 56.4847 16.9659 56.5756 16.8709 56.6486C16.776 56.7215 16.6676 56.775 16.5519 56.8059C16.4751 56.8311 16.3957 56.8474 16.3152 56.8545V56.8545Z" fill="#23272B"/>
<path d="M47.149 49.5466C47.0769 51.5393 46.4155 53.4658 45.2485 55.0825C44.0815 56.6993 42.4613 57.9337 40.5928 58.6296C38.7243 59.3256 36.6913 59.4518 34.7511 58.9924C32.8108 58.533 31.0503 57.5086 29.6922 56.0487C28.3341 54.5887 27.4395 52.7589 27.1213 50.7905C26.8032 48.8221 27.0759 46.8036 27.9049 44.9902C28.734 43.1768 30.0821 41.6499 31.7789 40.6027C33.4757 39.5555 35.4449 39.0349 37.4376 39.1068C38.7607 39.1546 40.0615 39.4625 41.2657 40.013C42.4699 40.5635 43.5538 41.3458 44.4556 42.3153C45.3574 43.2847 46.0594 44.4223 46.5216 45.6631C46.9837 46.9038 47.1969 48.2235 47.149 49.5466Z" fill="white"/>
<path d="M37.0249 56.8363C36.9053 56.8324 36.7877 56.8049 36.6787 56.7555C36.5698 56.7061 36.4716 56.6357 36.3899 56.5483C36.3081 56.461 36.2444 56.3583 36.2024 56.2463C36.1603 56.1343 36.1408 56.0151 36.1448 55.8955V55.155C36.1488 55.0354 36.1763 54.9178 36.2257 54.8089C36.2752 54.7 36.3456 54.6018 36.4329 54.5201C36.5203 54.4384 36.6229 54.3747 36.7349 54.3326C36.8469 54.2905 36.966 54.2709 37.0856 54.2749C37.2052 54.2789 37.3228 54.3064 37.4317 54.3558C37.5406 54.4053 37.6388 54.4757 37.7205 54.563C37.8022 54.6504 37.8659 54.753 37.908 54.865C37.9501 54.977 37.9697 55.0961 37.9657 55.2157V55.9562C37.9618 56.0758 37.9343 56.1934 37.8849 56.3024C37.8355 56.4114 37.7651 56.5095 37.6777 56.5913C37.5904 56.673 37.4877 56.7367 37.3757 56.7788C37.2637 56.8208 37.1445 56.8404 37.0249 56.8363V56.8363Z" fill="#955E3B"/>
<path d="M36.8187 44.5088H36.7823C36.6627 44.5042 36.5452 44.4759 36.4365 44.4258C36.3278 44.3756 36.2301 44.3046 36.1489 44.2166C36.0677 44.1287 36.0047 44.0256 35.9634 43.9133C35.9221 43.8009 35.9033 43.6816 35.9082 43.562L35.9386 42.779C35.9384 42.6568 35.9631 42.5359 36.0113 42.4236C36.0594 42.3113 36.13 42.2101 36.2186 42.126C36.3072 42.0419 36.4121 41.9768 36.5267 41.9346C36.6414 41.8924 36.7635 41.8741 36.8854 41.8807C37.005 41.8854 37.1225 41.9136 37.2312 41.9637C37.3399 42.0139 37.4376 42.0849 37.5188 42.1729C37.6 42.2608 37.663 42.3639 37.7043 42.4763C37.7456 42.5886 37.7643 42.708 37.7595 42.8275L37.7291 43.6105C37.7259 43.8499 37.6286 44.0784 37.4582 44.2465C37.2878 44.4146 37.0581 44.5089 36.8187 44.5088V44.5088Z" fill="#955E3B"/>
<path d="M36.9097 55.3128C36.1548 55.3148 35.4084 55.1531 34.722 54.8387C34.0356 54.5244 33.4256 54.0649 32.9341 53.4919C32.7731 53.3084 32.6916 53.0685 32.7075 52.8249C32.7235 52.5813 32.8355 52.354 33.019 52.193C33.2025 52.032 33.4425 51.9505 33.6861 51.9665C33.9297 51.9824 34.157 52.0945 34.3179 52.278C34.6318 52.6533 35.0234 52.9562 35.4655 53.1658C35.9077 53.3754 36.39 53.4866 36.8793 53.4919C37.4863 53.4919 38.7427 53.2006 39.0523 52.369C39.1373 52.0808 39.1514 51.7762 39.0933 51.4813C39.0351 51.1865 38.9065 50.91 38.7184 50.6756C38.2511 50.0686 37.5045 49.9594 36.6548 49.8198C35.6533 49.6498 34.3968 49.4435 33.6199 48.2841C33.3038 47.8107 33.11 47.2662 33.056 46.6995C33.002 46.1328 33.0894 45.5615 33.3104 45.0369C33.9902 43.4709 35.8414 42.9307 37.2314 43.0946C37.8293 43.17 38.4059 43.3647 38.9272 43.667C39.4485 43.9694 39.9038 44.3733 40.2662 44.8548C40.4111 45.048 40.4733 45.2908 40.4391 45.5298C40.405 45.7689 40.2773 45.9845 40.0841 46.1294C39.8909 46.2743 39.6481 46.3365 39.4091 46.3024C39.1701 46.2682 38.9544 46.1405 38.8095 45.9473C38.5967 45.6642 38.329 45.4269 38.0224 45.2496C37.7158 45.0723 37.3765 44.9587 37.025 44.9155C36.2602 44.8366 35.2709 45.1401 34.9674 45.7956C34.8682 46.0402 34.8307 46.3054 34.8582 46.5679C34.8857 46.8305 34.9774 47.0822 35.1252 47.3009C35.453 47.7804 36.0357 47.9078 36.9461 48.0535C37.9658 48.2234 39.2344 48.4359 40.1327 49.577C40.5053 50.0525 40.7555 50.6121 40.8614 51.2069C40.9672 51.8017 40.9254 52.4133 40.7396 52.9881C40.157 54.6269 38.3057 55.2339 36.9097 55.3128Z" fill="#955E3B"/>
<path d="M32.4544 14.9132C32.213 14.9132 31.9814 14.8172 31.8106 14.6465C31.6399 14.4758 31.544 14.2442 31.544 14.0027V7.0226H27.2527C27.0113 7.0226 26.7797 6.92668 26.6089 6.75593C26.4382 6.58519 26.3423 6.35361 26.3423 6.11215C26.3423 4.12737 26.3423 0 29.8566 0C31.9871 0 33.3831 1.63274 33.3831 4.16379V14.0027C33.3831 14.1238 33.359 14.2437 33.3121 14.3554C33.2652 14.467 33.1965 14.5682 33.11 14.653C33.0235 14.7378 32.921 14.8045 32.8084 14.8491C32.6959 14.8938 32.5755 14.9156 32.4544 14.9132V14.9132ZM28.2057 5.2017H31.5622V4.16379C31.5622 3.28976 31.3255 1.8209 29.8566 1.8209C28.6063 1.8209 28.2421 3.03483 28.1753 5.2017H28.2057Z" fill="#23272B"/>
<path d="M71.3003 50.1172C71.0588 50.1172 70.8272 50.0213 70.6565 49.8505C70.4858 49.6798 70.3898 49.4482 70.3898 49.2067V5.80867C70.3898 4.8428 70.0062 3.9165 69.3232 3.23353C68.6402 2.55056 67.7139 2.16687 66.748 2.16687H31.2405C30.9991 2.16687 30.7675 2.07095 30.5967 1.90021C30.426 1.72947 30.3301 1.49789 30.3301 1.25642C30.3301 1.01496 30.426 0.783381 30.5967 0.612638C30.7675 0.441896 30.9991 0.345974 31.2405 0.345974H66.7663C68.2151 0.345974 69.6045 0.921506 70.629 1.94596C71.6534 2.97041 72.2289 4.35987 72.2289 5.80867V49.2067C72.229 49.3279 72.2048 49.4477 72.1579 49.5594C72.1111 49.6711 72.0424 49.7723 71.9559 49.8571C71.8694 49.9418 71.7669 50.0085 71.6543 50.0532C71.5417 50.0979 71.4214 50.1196 71.3003 50.1172Z" fill="#23272B"/>
<path d="M56.7332 56.1869C56.4917 56.1869 56.2602 56.0909 56.0894 55.9202C55.9187 55.7495 55.8228 55.5179 55.8228 55.2764C55.8228 55.0349 55.9187 54.8034 56.0894 54.6326C56.2602 54.4619 56.4917 54.366 56.7332 54.366H70.2382C71.4157 54.366 73.4248 53.9896 73.4248 51.8592V50.7242H59.1611C58.9196 50.7242 58.688 50.6282 58.5173 50.4575C58.3465 50.2868 58.2506 50.0552 58.2506 49.8137C58.2506 49.5722 58.3465 49.3407 58.5173 49.1699C58.688 48.9992 58.9196 48.9033 59.1611 48.9033H74.3352C74.5767 48.9033 74.8083 48.9992 74.979 49.1699C75.1497 49.3407 75.2457 49.5722 75.2457 49.8137V51.8592C75.2457 54.4691 73.3337 56.108 70.2564 56.1869H56.7332Z" fill="#23272B"/>
<path d="M59.161 24.0176C59.0048 24.0181 58.8511 23.9781 58.715 23.9015C58.5788 23.8249 58.4648 23.7144 58.3841 23.5806L52.1991 13.4928L48.7455 15.9571C48.5758 16.0769 48.3706 16.1356 48.1633 16.1234C47.9559 16.1113 47.7589 16.0291 47.6044 15.8904L41.6865 10.5066L39.2586 13.9238C39.1918 14.0272 39.1047 14.1159 39.0027 14.1847C38.9006 14.2534 38.7857 14.3008 38.6648 14.3239C38.5439 14.347 38.4196 14.3453 38.2994 14.319C38.1792 14.2927 38.0655 14.2423 37.9653 14.1709C37.8651 14.0994 37.7805 14.0084 37.7164 13.9033C37.6524 13.7982 37.6103 13.6812 37.5928 13.5594C37.5753 13.4376 37.5826 13.3135 37.6143 13.1946C37.6461 13.0757 37.7016 12.9645 37.7776 12.8677L40.8124 8.61891C40.8889 8.51493 40.9867 8.4284 41.0991 8.36507C41.2116 8.30174 41.3363 8.26305 41.4649 8.25157C41.5934 8.24009 41.723 8.25608 41.8449 8.29848C41.9668 8.34089 42.0783 8.40873 42.172 8.49752L48.3024 14.0755L51.9442 11.4656C52.0461 11.3936 52.1616 11.343 52.2837 11.3169C52.4058 11.2908 52.5319 11.2898 52.6543 11.3138C52.7794 11.3367 52.8982 11.3859 53.0028 11.4581C53.1074 11.5303 53.1955 11.6239 53.2613 11.7326L58.9668 21.0617L63.774 8.24259C63.8105 8.12365 63.8711 8.01346 63.9519 7.91884C64.0327 7.82422 64.1321 7.74716 64.2438 7.69244C64.3556 7.63772 64.4774 7.60649 64.6017 7.60068C64.726 7.59487 64.8502 7.6146 64.9666 7.65866C65.0829 7.70272 65.1891 7.77016 65.2783 7.85684C65.3676 7.94351 65.4382 8.04756 65.4857 8.16258C65.5332 8.27759 65.5566 8.40113 65.5545 8.52555C65.5524 8.64997 65.5248 8.77264 65.4735 8.88598L60.0108 23.4532C59.9547 23.6169 59.8529 23.7611 59.7173 23.8687C59.5818 23.9763 59.4182 24.0427 59.246 24.0601L59.161 24.0176Z" fill="#A7A7A7"/>
<path d="M65.2307 30.0873H47.6287C47.3872 30.0873 47.1557 29.9914 46.9849 29.8206C46.8142 29.6499 46.7183 29.4183 46.7183 29.1769C46.7183 28.9354 46.8142 28.7038 46.9849 28.5331C47.1557 28.3623 47.3872 28.2664 47.6287 28.2664H65.2307C65.4722 28.2664 65.7038 28.3623 65.8745 28.5331C66.0453 28.7038 66.1412 28.9354 66.1412 29.1769C66.1412 29.4183 66.0453 29.6499 65.8745 29.8206C65.7038 29.9914 65.4722 30.0873 65.2307 30.0873Z" fill="#23272B"/>
<path d="M65.2306 35.55H54.9122C54.6707 35.55 54.4391 35.4541 54.2684 35.2833C54.0976 35.1126 54.0017 34.881 54.0017 34.6396C54.0017 34.3981 54.0976 34.1665 54.2684 33.9958C54.4391 33.825 54.6707 33.7291 54.9122 33.7291H65.2306C65.4721 33.7291 65.7036 33.825 65.8744 33.9958C66.0451 34.1665 66.141 34.3981 66.141 34.6396C66.141 34.881 66.0451 35.1126 65.8744 35.2833C65.7036 35.4541 65.4721 35.55 65.2306 35.55Z" fill="#23272B"/>
<path d="M64.8544 62.7907C64.6509 62.7779 64.4482 62.8257 64.2718 62.9281C64.0955 63.0305 63.9535 63.1828 63.8636 63.3658C63.7738 63.5489 63.7402 63.7544 63.7671 63.9565C63.794 64.1587 63.8801 64.3483 64.0147 64.5015C64.1493 64.6546 64.3262 64.7645 64.5232 64.8172C64.7201 64.87 64.9283 64.8631 65.1214 64.7976C65.3145 64.7321 65.4838 64.6109 65.6081 64.4492C65.7323 64.2876 65.8059 64.0927 65.8195 63.8893V63.8225C65.8243 63.6913 65.8032 63.5604 65.7572 63.4373C65.7113 63.3143 65.6414 63.2016 65.5517 63.1057C65.462 63.0098 65.3542 62.9326 65.2345 62.8785C65.1148 62.8244 64.9856 62.7946 64.8544 62.7907V62.7907Z" fill="#23272B"/>
<path d="M31.8474 25.8385C31.6627 25.8383 31.4825 25.781 31.3315 25.6747C30.0505 24.7974 28.9433 23.6902 28.066 22.4092C27.459 21.4077 27.0038 19.9024 26.6943 17.772C26.678 17.643 26.6892 17.5121 26.727 17.3877C26.7649 17.2634 26.8286 17.1485 26.914 17.0505C26.9994 16.9525 27.1045 16.8737 27.2225 16.8191C27.3405 16.7646 27.4687 16.7356 27.5986 16.7341H41.5589C41.8003 16.7341 42.0319 16.83 42.2026 17.0007C42.3734 17.1715 42.4693 17.403 42.4693 17.6445C42.4693 17.886 42.3734 18.1175 42.2026 18.2883C42.0319 18.459 41.8003 18.555 41.5589 18.555H28.673C28.806 19.554 29.1142 20.5218 29.5834 21.4138C30.3378 22.4929 31.2793 23.4282 32.3633 24.1755C32.5245 24.2852 32.6462 24.4437 32.7105 24.6278C32.7748 24.8118 32.7784 25.0117 32.7206 25.1979C32.6628 25.3841 32.5468 25.5468 32.3896 25.6622C32.2324 25.7775 32.0424 25.8393 31.8474 25.8385V25.8385Z" fill="#23272B"/>
<path d="M40.9519 25.8386C40.757 25.8393 40.5669 25.7775 40.4097 25.6622C40.2525 25.5468 40.1365 25.3841 40.0787 25.1979C40.021 25.0117 40.0245 24.8118 40.0888 24.6278C40.1531 24.4437 40.2748 24.2852 40.436 24.1755C41.5314 23.4189 42.4813 22.4711 43.2402 21.3774C43.5255 20.9039 43.9685 19.8174 44.2963 17.517C44.3339 17.279 44.4625 17.0648 44.655 16.9198C44.8476 16.7748 45.089 16.7104 45.3281 16.7401C45.4492 16.7536 45.5664 16.7911 45.6727 16.8507C45.7789 16.9102 45.8722 16.9904 45.9469 17.0867C46.0216 17.1829 46.0763 17.2931 46.1076 17.4108C46.1389 17.5285 46.1463 17.6513 46.1293 17.772C45.8259 19.9024 45.3888 21.4138 44.7879 22.3728C43.9061 23.6683 42.7905 24.7881 41.4982 25.6747C41.3384 25.7864 41.1469 25.8438 40.9519 25.8386V25.8386Z" fill="#23272B"/>
<path d="M33.0797 64.6844C27.7506 64.6844 22.9677 62.6753 20.2849 59.3188C17.7296 56.0958 16.8616 50.7059 18.1666 46.2083C19.6597 40.9945 23.2772 37.4862 26.9615 34.4696C28.1935 33.5033 29.1921 32.2721 29.8835 30.8673C30.5749 29.4625 30.9412 27.9201 30.9554 26.3545V24.9281C30.9554 24.6866 31.0513 24.4551 31.222 24.2843C31.3928 24.1136 31.6243 24.0176 31.8658 24.0176C32.1073 24.0176 32.3389 24.1136 32.5096 24.2843C32.6803 24.4551 32.7763 24.6866 32.7763 24.9281V26.3666C32.7609 28.2019 32.3328 30.0103 31.5238 31.6577C30.7148 33.3052 29.5455 34.7495 28.1026 35.8838C24.6551 38.7062 21.2439 41.9778 19.9146 46.7364C18.9435 50.0868 19.247 55.1004 21.7355 58.2081C24.0724 61.1397 28.3211 62.8878 33.104 62.8878C33.3455 62.8878 33.5771 62.9837 33.7478 63.1544C33.9185 63.3252 34.0145 63.5567 34.0145 63.7982C34.0145 64.0397 33.9185 64.2713 33.7478 64.442C33.5771 64.6127 33.3455 64.7087 33.104 64.7087L33.0797 64.6844Z" fill="#23272B"/>
<path d="M23.957 26.4455C23.8204 26.445 23.6856 26.4139 23.5625 26.3545C22.1532 25.6707 20.9625 24.6076 20.1241 23.2845C19.2856 21.9614 18.8327 20.4308 18.816 18.8645C18.8144 18.7442 18.8368 18.6248 18.8819 18.5133C18.927 18.4017 18.9939 18.3003 19.0787 18.215C19.1635 18.1296 19.2644 18.0621 19.3757 18.0162C19.4869 17.9704 19.6061 17.9472 19.7264 17.948H23.9752C24.2167 17.948 24.4483 18.0439 24.619 18.2147C24.7897 18.3854 24.8857 18.617 24.8857 18.8584C24.8857 19.0999 24.7897 19.3315 24.619 19.5022C24.4483 19.673 24.2167 19.7689 23.9752 19.7689H20.6915C20.8528 20.8266 21.2685 21.8294 21.9029 22.691C22.5372 23.5527 23.3712 24.2474 24.3333 24.7157C24.5186 24.8054 24.668 24.9553 24.7572 25.1409C24.8463 25.3265 24.8699 25.5368 24.8241 25.7375C24.7783 25.9382 24.6659 26.1175 24.5051 26.2461C24.3443 26.3747 24.1447 26.445 23.9388 26.4455H23.957Z" fill="#23272B"/>
<path d="M14.3547 41.0855C14.1443 41.0864 13.9402 41.0134 13.7781 40.8792C13.5929 40.7253 13.4756 40.5046 13.4518 40.2649C13.4279 40.0253 13.4994 39.7859 13.6507 39.5985C15.2751 37.6367 17.1067 35.8561 19.1134 34.2875C20.3482 33.1867 21.338 31.8387 22.0187 30.331C22.6993 28.8232 23.0557 27.1893 23.0647 25.5351C23.0647 25.2936 23.1606 25.062 23.3314 24.8913C23.5021 24.7205 23.7337 24.6246 23.9751 24.6246C24.2166 24.6246 24.4482 24.7205 24.6189 24.8913C24.7897 25.062 24.8856 25.2936 24.8856 25.5351C24.881 27.4636 24.4644 29.3689 23.6636 31.1234C22.8628 32.8778 21.6963 34.4409 20.2423 35.7078C18.3456 37.2001 16.614 38.891 15.077 40.7517C14.9895 40.858 14.879 40.9433 14.754 41.0011C14.6289 41.0589 14.4925 41.0877 14.3547 41.0855Z" fill="#23272B"/>
<path d="M40.345 64.6965C40.1036 64.6965 39.872 64.6006 39.7012 64.4299C39.5305 64.2591 39.4346 64.0275 39.4346 63.7861C39.4346 63.5446 39.5305 63.313 39.7012 63.1423C39.872 62.9715 40.1036 62.8756 40.345 62.8756C45.0915 62.8756 49.316 61.1276 51.6346 58.1959C54.0625 55.1004 54.3842 50.0808 53.4191 46.7243C52.0595 41.9899 48.6787 38.7123 45.2311 35.8778C42.2509 33.3831 40.6667 28.3878 40.6667 24.9281C40.6667 24.6866 40.7626 24.4551 40.9334 24.2843C41.1041 24.1136 41.3357 24.0176 41.5772 24.0176C41.8186 24.0176 42.0502 24.1136 42.2209 24.2843C42.3917 24.4551 42.4876 24.6866 42.4876 24.9281C42.4876 28.0176 43.9565 32.4302 46.4086 34.4757C50.0504 37.5105 53.6922 41.0066 55.1853 46.2265C56.2475 49.9048 56.0412 55.5799 53.0852 59.3249C50.3782 62.6875 45.6438 64.6965 40.345 64.6965Z" fill="#23272B"/>
<path d="M40.9519 25.8385H32.4544C32.2129 25.8385 31.9814 25.7426 31.8106 25.5719C31.6399 25.4011 31.5439 25.1696 31.5439 24.9281C31.5439 24.6866 31.6399 24.4551 31.8106 24.2843C31.9814 24.1136 32.2129 24.0176 32.4544 24.0176H40.9519C41.1934 24.0176 41.425 24.1136 41.5957 24.2843C41.7664 24.4551 41.8624 24.6866 41.8624 24.9281C41.8624 25.1696 41.7664 25.4011 41.5957 25.5719C41.425 25.7426 41.1934 25.8385 40.9519 25.8385Z" fill="#23272B"/>
<path d="M60.375 64.6844H19.7083C19.4668 64.6844 19.2353 64.5885 19.0645 64.4177C18.8938 64.247 18.7979 64.0154 18.7979 63.7739C18.7979 63.5325 18.8938 63.3009 19.0645 63.1301C19.2353 62.9594 19.4668 62.8635 19.7083 62.8635H60.375C60.6165 62.8635 60.8481 62.9594 61.0188 63.1301C61.1896 63.3009 61.2855 63.5325 61.2855 63.7739C61.2855 64.0154 61.1896 64.247 61.0188 64.4177C60.8481 64.5885 60.6165 64.6844 60.375 64.6844V64.6844Z" fill="#23272B"/>
</g>
<defs>
<clipPath id="clip0_216_233">
<rect width="75.2456" height="65" fill="white"/>
</clipPath>
</defs>
</svg>
