<svg aria-hidden="true" width="463" height="33" viewBox="0 0 463 33" fill="none" xmlns="http://www.w3.org/2000/svg">
<path fill-rule="evenodd" clip-rule="evenodd" d="M0.900886 0.968506C0.661956 0.968506 0.432813 1.06342 0.263864 1.23237C0.0949145 1.40132 0 1.63046 0 1.86939C0 2.10832 0.0949145 2.33747 0.263864 2.50642C0.432813 2.67537 0.661956 2.77028 0.900886 2.77028L409.403 2.97048C409.415 9.62206 411.558 16.0947 415.519 21.4386L416.169 22.2494C413.477 20.7079 410.764 19.0863 408.102 17.4848C400.935 13.1805 394.038 9.03644 388.252 7.12456C385.51 6.16944 382.565 5.95536 379.714 6.50395C377.041 7.09453 373.778 9.07648 371.005 6.45391C370.495 5.97343 370.264 6.67412 370.374 7.25469C370.785 9.41682 372.487 10.1175 374.468 9.87727C374.269 10.2166 374.104 10.5755 373.978 10.9483C371.866 17.3847 380.224 21.2985 380.915 15.9533C380.961 15.5837 380.917 15.2085 380.786 14.8598C380.655 14.5111 380.442 14.1994 380.164 13.9513C380.164 13.9513 380.084 13.9513 380.054 14.0314C379.273 17.2045 374.178 16.1835 375.7 11.5689C375.942 10.8588 376.379 10.231 376.961 9.75715C377.67 9.1838 378.487 8.75835 379.363 8.50592C382.115 7.78812 385.019 7.92427 387.691 8.89631C388.402 9.12653 389.143 9.40681 389.904 9.70711C389.192 9.82537 388.545 10.1918 388.078 10.7415C387.611 11.2912 387.353 11.9886 387.351 12.7101C387.351 13.2906 387.641 13.9513 388.082 13.4107C392.396 8.15558 403.097 16.6339 407.171 19.0763C412.105 22.0793 417.18 25.0822 422.085 27.5246C425.101 29.4545 428.447 30.8119 431.955 31.5286C434.93 32.3802 438.001 32.8544 441.094 32.94C445.637 33.1616 450.149 32.089 454.107 29.8469C457.303 27.9981 459.843 25.1989 461.374 21.839C462.141 20.1084 462.566 18.2457 462.625 16.3536C462.774 13.4681 462.079 10.6017 460.623 8.10553C459.256 5.89787 457.085 4.30784 454.567 3.67117C453.523 3.39827 452.442 3.28687 451.364 3.34084C449.412 3.43927 447.526 4.08061 445.919 5.19266C444.339 6.26331 443.19 7.8593 442.676 9.6971C440.764 16.9242 450.603 20.7079 451.414 14.4618C451.471 13.991 451.412 13.5136 451.243 13.0706C451.074 12.6277 450.799 12.2325 450.443 11.9193C450.393 11.9193 450.333 11.9193 450.303 12.0294C449.472 15.4327 443.086 15.1725 444.397 10.1776C444.805 8.75446 445.702 7.52087 446.93 6.69414C448.26 5.76232 449.823 5.21825 451.444 5.12259C452.337 5.07834 453.231 5.16946 454.097 5.39286C456.179 5.90805 457.976 7.21996 459.102 9.04645C460.389 11.2335 461.008 13.7491 460.883 16.2836C460.829 17.9453 460.451 19.5806 459.772 21.0983C459.107 22.6074 458.193 23.9946 457.07 25.2024C457.351 24.3778 457.355 23.4841 457.083 22.6567C456.81 21.8294 456.275 21.1135 455.558 20.6178C454.948 20.1374 453.987 19.9972 454.237 20.8781C456.549 28.886 446.89 31.2883 441.164 31.1282C438.272 31.0243 435.403 30.5603 432.626 29.7468L432.466 29.6968C430.385 29.0835 428.345 28.3379 426.36 27.4646C425.268 26.9841 424.167 26.4636 423.056 25.9131C420.755 24.4058 418.724 22.5208 417.05 20.3376C413.162 15.0542 411.14 8.62768 411.305 2.06959C411.306 1.95176 411.284 1.83484 411.24 1.72559C411.196 1.61635 411.13 1.51695 411.047 1.43316C410.964 1.34938 410.866 1.28286 410.757 1.23746C410.648 1.19207 410.532 1.1687 410.414 1.1687L0.900886 0.968506Z" fill="#C88B66"/>
</svg>
