<svg aria-hidden="true" width="464" height="33" viewBox="0 0 464 33" fill="none" xmlns="http://www.w3.org/2000/svg">
<path fill-rule="evenodd" clip-rule="evenodd" d="M462.289 0.968506C462.528 0.968506 462.757 1.06342 462.926 1.23237C463.095 1.40132 463.19 1.63046 463.19 1.86939C463.19 2.10832 463.095 2.33747 462.926 2.50642C462.757 2.67537 462.528 2.77028 462.289 2.77028L53.7871 2.97048C53.7751 9.62206 51.6317 16.0947 47.6711 21.4386L47.0204 22.2494C49.7131 20.7079 52.4258 19.0863 55.0884 17.4848C62.2554 13.1805 69.1523 9.03644 74.9379 7.12456C77.6797 6.16944 80.6252 5.95536 83.4763 6.50395C86.149 7.09453 89.4121 9.07648 92.1849 6.45391C92.6954 5.97343 92.9256 6.67412 92.8155 7.25469C92.4051 9.41682 90.7034 10.1175 88.7215 9.87727C88.9211 10.2166 89.0855 10.5755 89.212 10.9483C91.3241 17.3847 82.9658 21.2985 82.2751 15.9533C82.229 15.5837 82.2733 15.2085 82.404 14.8598C82.5348 14.5111 82.7482 14.1994 83.0259 13.9513C83.0259 13.9513 83.106 13.9513 83.136 14.0314C83.9168 17.2045 89.0118 16.1835 87.4903 11.5689C87.248 10.8588 86.8109 10.231 86.229 9.75715C85.5199 9.1838 84.703 8.75835 83.8267 8.50592C81.0753 7.78812 78.1707 7.92427 75.4985 8.89631C74.7878 9.12653 74.0471 9.40681 73.2863 9.70711C73.998 9.82537 74.6448 10.1918 75.112 10.7415C75.5793 11.2912 75.8367 11.9886 75.8388 12.7101C75.8388 13.2906 75.5485 13.9513 75.1081 13.4107C70.7938 8.15558 60.0933 16.6339 56.0193 19.0763C51.0845 22.0793 46.0095 25.0822 41.1046 27.5246C38.0888 29.4545 34.743 30.8119 31.2349 31.5286C28.2598 32.3802 25.1894 32.8544 22.0959 32.94C17.553 33.1616 13.0405 32.089 9.08313 29.8469C5.88712 27.9981 3.34692 25.1989 1.81598 21.839C1.04898 20.1084 0.624115 18.2457 0.564728 16.3536C0.41568 13.4681 1.11139 10.6017 2.56671 8.10553C3.93378 5.89787 6.10529 4.30784 8.62268 3.67117C9.6673 3.39827 10.7475 3.28687 11.8258 3.34084C13.7779 3.43927 15.6638 4.08061 17.2712 5.19266C18.851 6.26331 20.0001 7.8593 20.5144 9.6971C22.4263 16.9242 12.5866 20.7079 11.7758 14.4618C11.7193 13.991 11.7781 13.5136 11.9473 13.0706C12.1164 12.6277 12.3908 12.2325 12.7467 11.9193C12.7968 11.9193 12.8568 11.9193 12.8869 12.0294C13.7177 15.4327 20.104 15.1725 18.7927 10.1776C18.385 8.75446 17.4882 7.52087 16.2602 6.69414C14.93 5.76232 13.3671 5.21825 11.7458 5.12259C10.853 5.07834 9.95865 5.16946 9.09314 5.39286C7.01062 5.90805 5.21347 7.21996 4.08823 9.04645C2.80136 11.2335 2.18204 13.7491 2.30646 16.2836C2.36118 17.9453 2.73853 19.5806 3.41754 21.0983C4.08334 22.6074 4.99686 23.9946 6.12021 25.2024C5.83911 24.3778 5.83463 23.4841 6.10739 22.6567C6.38016 21.8294 6.91534 21.1135 7.63171 20.6178C8.24231 20.1374 9.20325 19.9972 8.953 20.8781C6.64072 28.886 16.3002 31.2883 22.0258 31.1282C24.9183 31.0243 27.7866 30.5603 30.5642 29.7468L30.7244 29.6968C32.8052 29.0835 34.8447 28.3379 36.8304 27.4646C37.9215 26.9841 39.0226 26.4636 40.1337 25.9131C42.4351 24.4058 44.4656 22.5208 46.1396 20.3376C50.0282 15.0542 52.0495 8.62768 51.8853 2.06959C51.8839 1.95176 51.906 1.83484 51.9502 1.72559C51.9944 1.61635 52.0598 1.51695 52.1426 1.43316C52.2255 1.34938 52.3241 1.28286 52.4329 1.23746C52.5416 1.19207 52.6583 1.1687 52.7761 1.1687L462.289 0.968506Z" fill="#C88B66"/>
</svg>
