<svg aria-hidden="true" class="icon icon--forms" width="65" height="65" viewBox="0 0 65 65" fill="none" xmlns="http://www.w3.org/2000/svg">
<g clip-path="url(#clip0_216_75)">
<path d="M41.0316 49.6132C40.9184 49.4828 40.8232 49.3379 40.7483 49.1823C40.1168 47.937 38.0746 38.9126 37.5258 37.9683C37.4077 37.7617 37.2897 37.561 37.1952 37.3781C37.4431 39.1959 37.4195 47.5002 37.7146 48.7751C37.759 48.943 37.8224 49.1054 37.9035 49.259C38.3048 50.1385 40.2643 53.1485 40.2643 53.1485H2.27832C2.67966 55.232 3.6122 56.3298 4.95788 56.8964C5.46446 57.1206 6.00956 57.2448 6.56326 57.2623C6.65732 57.2741 6.75249 57.2741 6.84656 57.2623H7.00591L7.35414 57.8525H40.6362L42.0173 55.9166L42.1471 56.1291L46.2196 54.8188C44.4312 53.0128 41.9051 50.7582 41.0316 49.6132Z" fill="#A7A7A7"/>
<path d="M33.9077 23.0183H14.4307C14.1959 23.0183 13.9707 22.925 13.8047 22.759C13.6387 22.5929 13.5454 22.3677 13.5454 22.1329C13.5454 21.8981 13.6387 21.673 13.8047 21.5069C13.9707 21.3409 14.1959 21.2476 14.4307 21.2476H33.9077C34.1425 21.2476 34.3677 21.3409 34.5337 21.5069C34.6998 21.673 34.793 21.8981 34.793 22.1329C34.793 22.3677 34.6998 22.5929 34.5337 22.759C34.3677 22.925 34.1425 23.0183 33.9077 23.0183V23.0183Z" fill="#23272B"/>
<path d="M39.2196 8.85317H16.7916C16.5568 8.85317 16.3316 8.7599 16.1656 8.59387C15.9995 8.42784 15.9062 8.20265 15.9062 7.96785C15.9062 7.73305 15.9995 7.50787 16.1656 7.34184C16.3316 7.17581 16.5568 7.08253 16.7916 7.08253H39.2196C39.4544 7.08253 39.6796 7.17581 39.8456 7.34184C40.0116 7.50787 40.1049 7.73305 40.1049 7.96785C40.1049 8.20265 40.0116 8.42784 39.8456 8.59387C39.6796 8.7599 39.4544 8.85317 39.2196 8.85317V8.85317Z" fill="#23272B"/>
<path d="M36.2687 15.9357H13.8406C13.6058 15.9357 13.3807 15.8424 13.2146 15.6764C13.0486 15.5104 12.9553 15.2852 12.9553 15.0504C12.9553 14.8156 13.0486 14.5904 13.2146 14.4244C13.3807 14.2583 13.6058 14.1651 13.8406 14.1651H36.2687C36.5035 14.1651 36.7287 14.2583 36.8947 14.4244C37.0607 14.5904 37.154 14.8156 37.154 15.0504C37.154 15.2852 37.0607 15.5104 36.8947 15.6764C36.7287 15.8424 36.5035 15.9357 36.2687 15.9357Z" fill="#23272B"/>
<path d="M3.8247 39.6327C4.32668 39.6327 4.73362 39.2258 4.73362 38.7238C4.73362 38.2218 4.32668 37.8148 3.8247 37.8148C3.32271 37.8148 2.91577 38.2218 2.91577 38.7238C2.91577 39.2258 3.32271 39.6327 3.8247 39.6327Z" fill="#23272B"/>
<path d="M42.2298 57.1738C42.061 57.1737 41.8957 57.1252 41.7535 57.0343C41.6112 56.9433 41.498 56.8135 41.4271 56.6603C41.4108 56.625 41.391 56.5914 41.3681 56.56C40.5359 55.1553 39.1017 52.7826 38.1101 51.1359C37.3002 49.7997 36.8488 48.277 36.7998 46.7152C36.611 40.3941 36.4221 37.685 36.3218 37.2719C35.7721 35.5889 35.466 33.8359 35.4128 32.0662C35.4128 29.4575 36.369 28.1767 37.1835 27.5629C37.6595 27.2044 38.2107 26.9586 38.7955 26.8441C39.3803 26.7296 39.9834 26.7493 40.5595 26.9018C41.3184 27.0848 42.0025 27.4969 42.519 28.0823C43.7466 29.4457 44.024 31.6235 44.2896 33.6952C44.3946 34.9556 44.6461 36.1995 45.0392 37.4017C45.1705 37.7815 45.4216 38.1083 45.7548 38.333C46.0881 38.5576 46.4852 38.6678 46.8866 38.6471C46.914 38.6413 46.9389 38.6268 46.9574 38.6057L47.0636 38.5054C47.1614 38.4039 47.2163 38.2686 47.2171 38.1277V30.2956C47.1874 30.0254 47.103 29.7642 46.9691 29.5278C46.8351 29.2913 46.6544 29.0847 46.438 28.9204L40.7247 25.1548C39.8879 24.6755 39.2733 23.8861 39.0138 22.9573C38.7543 22.0285 38.8706 21.0348 39.3377 20.1911C39.8121 19.3444 40.6029 18.7203 41.5368 18.4559C42.4706 18.1914 43.4712 18.3082 44.3191 18.7805L51.3486 22.127C52.3214 22.5673 53.1663 23.2477 53.8038 24.1042L56.4893 27.6455C56.967 28.3035 57.3247 29.0408 57.5458 29.8234L59.3164 35.7255C59.3193 35.749 59.3193 35.7728 59.3164 35.7963L60.1014 39.4084C60.5066 41.3669 60.2685 43.4039 59.4226 45.2161C57.9235 48.3619 57.0028 50.6638 56.6841 52.0626C56.6634 52.1809 56.6188 52.2938 56.553 52.3944C56.4873 52.495 56.4017 52.5812 56.3016 52.6476C56.2015 52.7141 56.0889 52.7595 55.9707 52.781C55.8525 52.8026 55.7311 52.7998 55.614 52.7729C55.4969 52.7461 55.3864 52.6956 55.2894 52.6247C55.1924 52.5538 55.1109 52.4638 55.0498 52.3604C54.9886 52.2569 54.9492 52.1421 54.9339 52.0229C54.9186 51.9037 54.9277 51.7827 54.9606 51.6671C55.3148 50.1208 56.2473 47.7658 57.8173 44.4547C58.5032 42.9955 58.6959 41.3527 58.3662 39.7744L57.593 36.2036L55.8224 30.3369C55.6597 29.7562 55.396 29.2088 55.0433 28.7197L52.3637 25.1784C51.9034 24.5592 51.2944 24.0659 50.5931 23.7442L43.5105 20.3623C43.2892 20.2324 43.044 20.1482 42.7896 20.1147C42.5351 20.0813 42.2765 20.0992 42.0291 20.1675C41.789 20.2334 41.5644 20.3468 41.3688 20.5009C41.1732 20.6549 41.0104 20.8466 40.89 21.0646C40.6533 21.4985 40.5961 22.008 40.7307 22.4835C40.8654 22.9591 41.181 23.363 41.6101 23.6085L41.6632 23.6439L47.4355 27.4448L47.4886 27.4802C47.9088 27.8014 48.2564 28.2076 48.5087 28.6725C48.7609 29.1373 48.9121 29.6502 48.9523 30.1775C48.955 30.1991 48.955 30.2209 48.9523 30.2424V38.1336C48.9498 38.7472 48.7084 39.3356 48.2795 39.7744L48.1673 39.8806C47.8473 40.1891 47.43 40.3768 46.9869 40.4118C46.208 40.4633 45.4334 40.2611 44.779 39.8355C44.1247 39.4099 43.6258 38.7838 43.3571 38.0509C42.9066 36.715 42.6173 35.33 42.4954 33.9254C42.2593 32.1016 42.0173 30.2188 41.1556 29.2627C40.8876 28.9506 40.5318 28.7264 40.1345 28.6194C39.8187 28.5343 39.4879 28.5209 39.1662 28.5802C38.8446 28.6394 38.5402 28.7697 38.2754 28.9617C37.5435 29.5106 37.1835 30.5671 37.1835 32.0367C37.2362 33.642 37.5164 35.2318 38.0157 36.7584C38.2163 37.4371 38.3993 40.7541 38.5764 46.6503C38.6175 47.9012 38.9792 49.1206 39.627 50.1916C40.6244 51.8383 42.0645 54.2227 42.8731 55.5861C42.9351 55.6805 42.9903 55.7791 43.0384 55.8812C43.1025 56.0159 43.1312 56.1647 43.122 56.3136C43.1127 56.4625 43.0657 56.6065 42.9854 56.7323C42.9052 56.858 42.7942 56.9612 42.6631 57.0323C42.5319 57.1033 42.3848 57.1398 42.2357 57.1384L42.2298 57.1738Z" fill="#23272B"/>
<path d="M42.9853 65C42.8008 65.0011 42.6205 64.9449 42.4694 64.8391C42.3182 64.7334 42.2036 64.5834 42.1412 64.4098L39.7804 57.162C39.7089 56.9375 39.7279 56.6939 39.8335 56.4832C39.8871 56.3799 39.9606 56.2881 40.0497 56.2131C40.1388 56.1382 40.2419 56.0815 40.3529 56.0465L57.469 50.5103C57.6916 50.4391 57.9332 50.4582 58.1419 50.5634C58.3505 50.6706 58.5093 50.8547 58.5845 51.0769L59.765 54.7716C59.801 54.8825 59.8149 54.9993 59.8057 55.1155C59.7966 55.2317 59.7647 55.3449 59.7118 55.4488C59.6589 55.5527 59.5861 55.6451 59.4975 55.7208C59.4089 55.7965 59.3062 55.854 59.1954 55.8901C58.9716 55.9629 58.728 55.9437 58.5182 55.8369C58.3085 55.7301 58.1497 55.5444 58.077 55.3205L57.1562 52.4639L41.7576 57.4394L43.8293 63.8432C43.8647 63.9551 43.8776 64.0731 43.867 64.19C43.8565 64.307 43.8227 64.4207 43.7678 64.5245C43.7129 64.6284 43.6378 64.7202 43.547 64.7948C43.4563 64.8693 43.3516 64.925 43.239 64.9587C43.157 64.985 43.0714 64.9989 42.9853 65Z" fill="#23272B"/>
<path d="M44.9684 61.2049C45.7018 61.2049 46.2963 60.6104 46.2963 59.877C46.2963 59.1435 45.7018 58.549 44.9684 58.549C44.2349 58.549 43.6404 59.1435 43.6404 59.877C43.6404 60.6104 44.2349 61.2049 44.9684 61.2049Z" fill="#23272B"/>
<path d="M64.2091 42.4952C63.9306 42.9289 63.4916 43.2345 62.9883 43.3451C62.4849 43.4557 61.9582 43.3624 61.5236 43.0854L54.689 38.6707C54.6949 38.6375 54.6949 38.6035 54.689 38.5703C54.6892 37.8986 54.878 37.2405 55.2338 36.6708C55.5896 36.1011 56.0981 35.6427 56.7016 35.3478L63.613 39.8039C63.829 39.9413 64.0158 40.12 64.1627 40.3297C64.3096 40.5394 64.4137 40.776 64.469 41.0259C64.5244 41.2759 64.5299 41.5344 64.4853 41.7865C64.4407 42.0386 64.3468 42.2794 64.2091 42.4952V42.4952Z" fill="#C88B66"/>
<path d="M58.3897 8.26296H47.7659C47.6292 8.26232 47.4944 8.23064 47.3717 8.17032C47.2491 8.11 47.1417 8.02261 47.0577 7.91473C46.9761 7.80547 46.9209 7.67884 46.8963 7.54473C46.8718 7.41062 46.8785 7.27264 46.916 7.14156C46.9927 6.86416 47.0754 6.58086 47.158 6.30346C47.8367 4.13148 48.8578 0.903021 51.8797 0.171159C52.0536 0.1216 52.2313 0.086073 52.4109 0.064921L52.8181 -2.29299e-06H53.2667C53.4141 -0.0096021 53.562 -0.0096021 53.7094 -2.29299e-06C54.4155 0.0285618 55.11 0.188695 55.7574 0.472167C57.0871 1.04502 58.1702 2.07158 58.8134 3.36879C59.4566 4.66599 59.6181 6.14948 59.2691 7.55471C59.229 7.7572 59.1189 7.93913 58.9581 8.06861C58.7973 8.1981 58.5961 8.2669 58.3897 8.26296ZM48.9877 6.49232H57.6402C57.7214 5.58073 57.5122 4.66679 57.0426 3.88125C56.573 3.09572 55.867 2.47884 55.0255 2.11886C54.57 1.91209 54.0792 1.79391 53.5795 1.77063H52.9421L52.6116 1.80605C52.5142 1.82063 52.4177 1.84033 52.3224 1.86507C50.4868 2.36084 49.69 4.21411 48.9877 6.49232Z" fill="#23272B"/>
<path d="M47.394 22.0149C47.1864 22.0155 46.9852 21.9432 46.8255 21.8105C46.6658 21.6778 46.5579 21.4932 46.5205 21.2889C45.8005 17.2404 45.8005 13.0965 46.5205 9.04794C46.6622 8.27477 46.8274 7.54881 47.0281 6.82875C47.0977 6.60773 47.2506 6.4225 47.4544 6.31232C47.6583 6.20214 47.897 6.17567 48.12 6.23854C48.3428 6.30547 48.53 6.45795 48.6406 6.66259C48.7512 6.86723 48.7763 7.10737 48.7102 7.33043C48.5272 7.99737 48.3738 8.67021 48.238 9.38436C47.5504 13.2256 47.5504 17.1585 48.238 20.9997C48.2584 21.1145 48.2559 21.2321 48.2307 21.3459C48.2055 21.4596 48.1581 21.5673 48.0912 21.6627C48.0243 21.7581 47.9393 21.8394 47.8409 21.9019C47.7425 21.9643 47.6328 22.0067 47.518 22.0267C47.4764 22.0265 47.4349 22.0225 47.394 22.0149Z" fill="#23272B"/>
<path d="M40.8546 58.4309H5.6131C5.3783 58.4309 5.15312 58.3377 4.98709 58.1716C4.82106 58.0056 4.72778 57.7804 4.72778 57.5456C4.72778 57.3108 4.82106 57.0856 4.98709 56.9196C5.15312 56.7536 5.3783 56.6603 5.6131 56.6603H40.8546C41.0894 56.6603 41.3146 56.7536 41.4806 56.9196C41.6467 57.0856 41.74 57.3108 41.74 57.5456C41.74 57.7804 41.6467 58.0056 41.4806 58.1716C41.3146 58.3377 41.0894 58.4309 40.8546 58.4309Z" fill="#23272B"/>
<path d="M8.71161 51.9917C8.63531 52.0032 8.55773 52.0032 8.48143 51.9917C8.36898 51.9616 8.26358 51.9096 8.17125 51.8387C8.07892 51.7678 8.00149 51.6794 7.94338 51.5785C7.88526 51.4776 7.84762 51.3663 7.83259 51.2508C7.81757 51.1354 7.82545 51.0181 7.85581 50.9057C7.97365 50.4688 8.06627 50.0254 8.1332 49.5778C9.03623 44.8915 8.72342 41.1554 7.73776 35.8848C7.72598 35.8026 7.72598 35.7192 7.73776 35.637C7.5666 34.6926 7.38954 33.7542 7.21838 32.8276C5.31199 22.6051 3.67121 13.7873 8.38109 3.26385V3.21074C10.1989 -0.159373 14.0412 -1.58499e-05 14.2065 -1.58499e-05H53.3847C53.6195 -1.58499e-05 53.8447 0.0932584 54.0107 0.259288C54.1768 0.425317 54.27 0.650501 54.27 0.885302C54.27 1.1201 54.1768 1.34529 54.0107 1.51132C53.8447 1.67734 53.6195 1.77062 53.3847 1.77062H14.1652C14.0058 1.77062 11.2436 1.68209 9.98647 4.01933C5.51857 14.0175 7.11214 22.5815 8.9536 32.4911C9.14247 33.4945 9.3392 34.5156 9.54381 35.5543C9.55559 35.6365 9.55559 35.72 9.54381 35.8022C10.4763 41.0315 10.8246 45.039 9.89204 49.8552C9.81153 50.3585 9.70316 50.857 9.56742 51.3484C9.51458 51.5344 9.40232 51.6979 9.24778 51.8141C9.09325 51.9303 8.90494 51.9926 8.71161 51.9917Z" fill="#23272B"/>
<path d="M53.5853 1.77063H53.2488C53.014 1.77063 52.7889 1.67736 52.6228 1.51133C52.4568 1.3453 52.3635 1.12012 52.3635 0.885317C52.3635 0.650517 52.4568 0.425333 52.6228 0.259303C52.7889 0.0932742 53.014 0 53.2488 0L53.5853 0C53.8201 0 54.0453 0.0932742 54.2113 0.259303C54.3773 0.425333 54.4706 0.650517 54.4706 0.885317C54.4706 1.12012 54.3773 1.3453 54.2113 1.51133C54.0453 1.67736 53.8201 1.77063 53.5853 1.77063Z" fill="#23272B"/>
<path d="M5.613 58.4309C5.49527 58.4308 5.37879 58.4067 5.27067 58.3601C2.40815 57.1797 -0.123859 54.388 0.548982 51.4429C0.593511 51.2467 0.703919 51.0718 0.861798 50.9472C1.01968 50.8226 1.21549 50.7559 1.41659 50.7582H39.2196C39.4544 50.7582 39.6796 50.8515 39.8456 51.0175C40.0117 51.1835 40.105 51.4087 40.105 51.6435C40.105 51.8783 40.0117 52.1035 39.8456 52.2695C39.6796 52.4356 39.4544 52.5288 39.2196 52.5288H2.21338C2.29011 54.2995 4.07845 55.9344 5.95532 56.7252C6.14643 56.8027 6.3045 56.9445 6.40224 57.1261C6.49998 57.3077 6.53126 57.5177 6.49068 57.7199C6.4501 57.9221 6.34021 58.1038 6.17998 58.2336C6.01974 58.3634 5.81921 58.4332 5.613 58.4309V58.4309Z" fill="#23272B"/>
<path d="M3.37607 37.1833C3.16729 37.1849 2.96477 37.1121 2.80473 36.978C2.6447 36.8439 2.53759 36.6573 2.50256 36.4515C2.46715 36.2331 2.43764 36.0265 2.41993 35.8613C2.28418 35.0704 2.13663 34.2913 1.99498 33.5476C6.33035e-05 22.9474 -1.8473 12.9492 3.50002 0.938439C3.56052 0.794789 3.6295 0.65486 3.70659 0.519389C3.75856 0.410358 3.83229 0.313114 3.92325 0.233641C4.0142 0.154168 4.12046 0.0941465 4.23547 0.0572703C4.35049 0.020394 4.47183 0.00744276 4.59204 0.0192134C4.71225 0.030984 4.82878 0.0672276 4.93446 0.125714C5.04014 0.1842 5.13273 0.263692 5.20654 0.359299C5.28035 0.454906 5.33382 0.564604 5.36365 0.681646C5.39349 0.798687 5.39906 0.920595 5.38002 1.03987C5.36098 1.15914 5.31773 1.27326 5.25295 1.3752C5.20376 1.46275 5.16038 1.55344 5.1231 1.64669C6.34442e-05 13.1676 1.81201 22.9002 3.7302 33.2053C3.87775 33.9667 4.02531 34.7635 4.17286 35.5661C4.17286 35.5661 4.17286 35.6075 4.17286 35.6311C4.17286 35.7963 4.20827 35.9734 4.24368 36.1564C4.28522 36.3855 4.23479 36.6218 4.10332 36.814C3.97186 37.0062 3.76994 37.1389 3.54133 37.1833C3.48649 37.1906 3.43092 37.1906 3.37607 37.1833V37.1833Z" fill="#23272B"/>
<path d="M32.1371 29.5106H15.6111C15.3763 29.5106 15.1512 29.4173 14.9851 29.2513C14.8191 29.0852 14.7258 28.8601 14.7258 28.6253C14.7258 28.3905 14.8191 28.1653 14.9851 27.9992C15.1512 27.8332 15.3763 27.7399 15.6111 27.7399H32.1371C32.3719 27.7399 32.5971 27.8332 32.7631 27.9992C32.9291 28.1653 33.0224 28.3905 33.0224 28.6253C33.0224 28.8601 32.9291 29.0852 32.7631 29.2513C32.5971 29.4173 32.3719 29.5106 32.1371 29.5106V29.5106Z" fill="#23272B"/>
<path d="M24.4643 36.0029H16.7916C16.5568 36.0029 16.3316 35.9096 16.1656 35.7436C15.9995 35.5776 15.9062 35.3524 15.9062 35.1176C15.9062 34.8828 15.9995 34.6576 16.1656 34.4916C16.3316 34.3255 16.5568 34.2323 16.7916 34.2323H24.4643C24.6991 34.2323 24.9243 34.3255 25.0903 34.4916C25.2564 34.6576 25.3496 34.8828 25.3496 35.1176C25.3496 35.3524 25.2564 35.5776 25.0903 35.7436C24.9243 35.9096 24.6991 36.0029 24.4643 36.0029Z" fill="#23272B"/>
<path d="M24.4643 43.0854H16.7916C16.5568 43.0854 16.3316 42.9922 16.1656 42.8261C15.9995 42.6601 15.9062 42.4349 15.9062 42.2001C15.9062 41.9653 15.9995 41.7401 16.1656 41.5741C16.3316 41.4081 16.5568 41.3148 16.7916 41.3148H24.4643C24.6991 41.3148 24.9243 41.4081 25.0903 41.5741C25.2564 41.7401 25.3496 41.9653 25.3496 42.2001C25.3496 42.4349 25.2564 42.6601 25.0903 42.8261C24.9243 42.9922 24.6991 43.0854 24.4643 43.0854Z" fill="#23272B"/>
<path d="M53.9453 33.4532L51.7261 32.0308L49.5778 30.632L48.3973 29.8765L39.1782 23.9744L39.131 23.939L36.7702 22.428C36.6994 22.3867 36.6285 22.3395 36.5518 22.3041L36.3688 22.2333H36.3275C36.1751 22.191 36.019 22.1633 35.8613 22.1506V22.1506L33.282 22.0031C33.1634 21.9966 33.0469 22.0368 32.9575 22.1151C32.8682 22.1934 32.813 22.3037 32.804 22.4221C32.7976 22.5063 32.8161 22.5904 32.8571 22.6641L34.0375 24.9305C34.1881 25.2192 34.4094 25.4649 34.6808 25.6447L38.5644 28.1354L39.0897 28.4718C39.4548 28.2842 39.8596 28.187 40.2701 28.1885C40.962 28.1885 41.6256 28.4634 42.1148 28.9526C42.604 29.4418 42.8789 30.1054 42.8789 30.7973V30.8858L43.4691 31.2635L45.1748 32.3554L48.3973 34.4211L48.9876 34.8225L49.5778 35.2238L51.1005 36.1977L52.942 37.3781C53.1811 36.0879 53.8976 34.9352 54.9487 34.1497L53.9453 33.4532Z" fill="#C88B66"/>
<path d="M44.2186 38.6058C44.0418 38.6072 43.8687 38.5549 43.7222 38.4559C43.5757 38.3568 43.4627 38.2156 43.3982 38.051C42.9343 36.6762 42.6602 35.2445 42.5837 33.7955C42.4008 32.0249 42.2178 30.1893 41.4033 29.2627C41.1228 28.9424 40.7493 28.7176 40.335 28.6194C39.9876 28.5298 39.6245 28.5188 39.2723 28.5872C38.92 28.6556 38.5875 28.8017 38.2988 29.0148C37.5846 29.5637 37.2069 30.6143 37.2069 32.0367C37.2069 32.2715 37.1136 32.4967 36.9476 32.6627C36.7816 32.8287 36.5564 32.922 36.3216 32.922C36.0868 32.922 35.8616 32.8287 35.6956 32.6627C35.5296 32.4967 35.4363 32.2715 35.4363 32.0367C35.4363 29.5165 36.4042 28.2416 37.2069 27.6101C37.7076 27.2366 38.2852 26.9793 38.8977 26.8568C39.5102 26.7343 40.1423 26.7497 40.7482 26.9019C41.5071 27.0848 42.1912 27.4969 42.7077 28.0823C43.9235 29.4339 44.1419 31.5586 44.3485 33.6185C44.4189 34.9021 44.6529 36.1715 45.0449 37.3958C45.0927 37.5055 45.1177 37.6238 45.1185 37.7435C45.1193 37.8631 45.0958 37.9817 45.0494 38.092C45.0031 38.2024 44.9349 38.3022 44.8489 38.3854C44.7629 38.4686 44.6609 38.5335 44.5491 38.5762C44.4418 38.6065 44.3297 38.6166 44.2186 38.6058V38.6058Z" fill="#23272B"/>
</g>
<defs>
<clipPath id="clip0_216_75">
<rect width="64.5042" height="65" fill="white"/>
</clipPath>
</defs>
</svg>
