<svg aria-hidden="true" class="icon icon--judges" width="53" height="65" viewBox="0 0 53 65" fill="none" xmlns="http://www.w3.org/2000/svg">
<g clip-path="url(#clip0_216_313)">
<path d="M19.3943 36.863C21.3228 37.4931 23.3266 37.8632 25.3529 37.9634C28.0104 37.9634 32.5055 36.863 32.5055 36.863L33.9745 41.0775C33.9745 41.0775 31.8617 42.2715 26.6349 42.2715C23.6817 42.3135 20.7411 41.8807 17.9253 40.9895L19.3943 36.863Z" fill="#A7A7A7"/>
<path d="M35.4876 57.8475H29.9857C29.7668 57.8475 29.5569 57.7605 29.4021 57.6057C29.2473 57.451 29.1604 57.2411 29.1604 57.0222C29.1604 56.8033 29.2473 56.5934 29.4021 56.4386C29.5569 56.2838 29.7668 56.1969 29.9857 56.1969H35.4876C35.7065 56.1969 35.9164 56.2838 36.0712 56.4386C36.226 56.5934 36.3129 56.8033 36.3129 57.0222C36.3129 57.2411 36.226 57.451 36.0712 57.6057C35.9164 57.7605 35.7065 57.8475 35.4876 57.8475Z" fill="#23272B"/>
<path d="M35.4876 60.0482H29.9857C29.7668 60.0482 29.5569 59.9613 29.4021 59.8065C29.2473 59.6518 29.1604 59.4418 29.1604 59.223C29.1604 59.0041 29.2473 58.7942 29.4021 58.6394C29.5569 58.4846 29.7668 58.3977 29.9857 58.3977H35.4876C35.7065 58.3977 35.9164 58.4846 36.0712 58.6394C36.226 58.7942 36.3129 59.0041 36.3129 59.223C36.3129 59.4418 36.226 59.6518 36.0712 59.8065C35.9164 59.9613 35.7065 60.0482 35.4876 60.0482V60.0482Z" fill="#23272B"/>
<path d="M9.55138 60.5214L29.9856 59.8392V55.9878L9.55138 55.3111C9.20393 55.3 8.8578 55.3588 8.5335 55.484C8.2092 55.6093 7.91335 55.7983 7.66347 56.04C7.41359 56.2816 7.21477 56.571 7.07881 56.8909C6.94284 57.2109 6.87249 57.5549 6.87193 57.9025V57.9025C6.86879 58.2524 6.9364 58.5994 7.07072 58.9225C7.20503 59.2457 7.40328 59.5383 7.65354 59.783C7.9038 60.0276 8.20092 60.2191 8.52706 60.346C8.85319 60.4729 9.20161 60.5325 9.55138 60.5214V60.5214Z" fill="#C88B66"/>
<path d="M9.46338 61.3247C8.78238 61.3246 8.11694 61.121 7.55247 60.7401C6.988 60.3591 6.55025 59.8181 6.2954 59.1866C6.04054 58.5551 5.98022 57.8619 6.12217 57.1958C6.26411 56.5298 6.60185 55.9214 7.09204 55.4486C7.41538 55.121 7.80365 54.8647 8.23193 54.696C8.66021 54.5273 9.11902 54.4501 9.57892 54.4693L30.0131 55.146C30.2272 55.1532 30.4301 55.2432 30.579 55.3972C30.7279 55.5513 30.811 55.7571 30.8109 55.9713V59.8227C30.8124 60.0373 30.7297 60.2439 30.5806 60.3982C30.4314 60.5525 30.2277 60.6422 30.0131 60.648L9.57892 61.3247H9.46338ZM9.46338 56.1364C9.0058 56.1368 8.56613 56.3142 8.23644 56.6315C7.97994 56.8803 7.80465 57.2008 7.73359 57.551C7.66253 57.9012 7.69902 58.2646 7.83826 58.5937C7.97751 58.9228 8.213 59.202 8.51382 59.3949C8.81465 59.5877 9.16675 59.685 9.5239 59.6741V59.6741L29.1603 59.0194V56.7856L9.5239 56.1199L9.46338 56.1364Z" fill="#23272B"/>
<path d="M5.2269 46.2934C5.00802 46.2934 4.79811 46.2064 4.64333 46.0517C4.48856 45.8969 4.40161 45.687 4.40161 45.4681V42.1999C4.40661 39.4029 5.07257 36.6466 6.3452 34.1559C7.61782 31.6651 9.46109 29.5104 11.7247 27.8674C11.902 27.7389 12.123 27.6862 12.3392 27.7208C12.5554 27.7554 12.749 27.8744 12.8774 28.0517C13.0058 28.229 13.0585 28.45 13.0239 28.6662C12.9894 28.8823 12.8703 29.0759 12.693 29.2043C10.6404 30.694 8.9689 32.6477 7.81482 34.9061C6.66075 37.1645 6.05679 39.6637 6.0522 42.1999V45.4681C6.0522 45.687 5.96525 45.8969 5.81047 46.0517C5.6557 46.2064 5.44578 46.2934 5.2269 46.2934Z" fill="#23272B"/>
<path d="M46.4915 46.2934C46.2726 46.2934 46.0627 46.2064 45.9079 46.0517C45.7531 45.8969 45.6662 45.687 45.6662 45.4681V42.1999C45.6913 39.6884 45.1145 37.2075 43.984 34.9647C42.8535 32.7219 41.2023 30.7825 39.1684 29.3089C39.0806 29.2435 39.0066 29.1614 38.9505 29.0674C38.8944 28.9734 38.8574 28.8693 38.8415 28.761C38.8257 28.6527 38.8313 28.5423 38.8582 28.4362C38.885 28.33 38.9324 28.2302 38.9978 28.1425C39.0632 28.0547 39.1453 27.9806 39.2393 27.9245C39.3333 27.8685 39.4374 27.8314 39.5457 27.8156C39.654 27.7998 39.7644 27.8054 39.8705 27.8322C39.9766 27.859 40.0765 27.9065 40.1642 27.9719C42.4053 29.6006 44.224 31.7421 45.4683 34.2173C46.7127 36.6926 47.3465 39.4297 47.3168 42.1999V45.4681C47.3168 45.687 47.2298 45.8969 47.075 46.0517C46.9203 46.2064 46.7104 46.2934 46.4915 46.2934Z" fill="#23272B"/>
<path d="M25.8592 26.921C23.9344 26.9263 22.0788 26.203 20.6654 24.8963C19.878 24.1742 19.2487 23.297 18.8169 22.3198C18.3851 21.3426 18.1603 20.2866 18.1565 19.2183V15.2074C18.1565 14.9885 18.2434 14.7786 18.3982 14.6238C18.553 14.469 18.7629 14.3821 18.9818 14.3821C19.2007 14.3821 19.4106 14.469 19.5654 14.6238C19.7201 14.7786 19.8071 14.9885 19.8071 15.2074V19.2183C19.8102 20.0539 19.9864 20.8798 20.3244 21.6439C20.6625 22.4081 21.1551 23.094 21.7713 23.6584C22.3888 24.2348 23.1213 24.674 23.9207 24.9471C24.7201 25.2202 25.5683 25.321 26.4094 25.2429C27.9391 25.0684 29.3493 24.3315 30.366 23.1754C31.3828 22.0194 31.9336 20.5266 31.9114 18.9872V15.2074C31.9114 14.9885 31.9983 14.7786 32.1531 14.6238C32.3079 14.469 32.5178 14.3821 32.7367 14.3821C32.9555 14.3821 33.1654 14.469 33.3202 14.6238C33.475 14.7786 33.5619 14.9885 33.5619 15.2074V18.9872C33.5804 20.9395 32.8728 22.8291 31.5765 24.289C30.2802 25.749 28.4877 26.6753 26.547 26.888C26.3104 26.91 26.0793 26.921 25.8592 26.921Z" fill="#23272B"/>
<path d="M20.5387 27.0751C20.3198 27.0751 20.1099 26.9881 19.9551 26.8334C19.8003 26.6786 19.7134 26.4687 19.7134 26.2498V24.049C19.7134 23.8301 19.8003 23.6202 19.9551 23.4654C20.1099 23.3107 20.3198 23.2237 20.5387 23.2237C20.7576 23.2237 20.9675 23.3107 21.1222 23.4654C21.277 23.6202 21.364 23.8301 21.364 24.049V26.2498C21.364 26.4687 21.277 26.6786 21.1222 26.8334C20.9675 26.9881 20.7576 27.0751 20.5387 27.0751V27.0751Z" fill="#23272B"/>
<path d="M31.2674 27.0036C31.0486 27.0036 30.8386 26.9166 30.6839 26.7618C30.5291 26.6071 30.4421 26.3971 30.4421 26.1783V23.9775C30.4421 23.7586 30.5291 23.5487 30.6839 23.3939C30.8386 23.2391 31.0486 23.1522 31.2674 23.1522C31.4863 23.1522 31.6962 23.2391 31.851 23.3939C32.0058 23.5487 32.0927 23.7586 32.0927 23.9775V26.1783C32.0927 26.3971 32.0058 26.6071 31.851 26.7618C31.6962 26.9166 31.4863 27.0036 31.2674 27.0036Z" fill="#23272B"/>
<path d="M25.8592 26.6569C25.4242 26.6575 24.99 26.6225 24.5607 26.5524C22.7493 26.2041 21.1171 25.2326 19.9473 23.8065C18.7774 22.3803 18.1438 20.5896 18.1564 18.7451V14.25C18.1564 12.0493 18.6241 10.5857 19.5869 9.76595C20.8359 8.70958 22.547 8.98468 24.0655 9.21576C24.6578 9.32502 25.2573 9.39122 25.8592 9.41383C26.461 9.39122 27.0605 9.32502 27.6528 9.21576C29.1713 8.96817 30.8824 8.66556 32.1314 9.76595C33.0942 10.5857 33.5619 12.0548 33.5619 14.25V18.9377C33.5619 20.9806 32.7503 22.9398 31.3058 24.3843C29.8613 25.8289 27.902 26.6404 25.8592 26.6404V26.6569ZM22.0078 10.6518C21.5389 10.616 21.0726 10.7486 20.6928 11.0259C20.1426 11.5046 19.8455 12.5885 19.8455 14.25V18.7451C19.8285 20.1923 20.3154 21.6002 21.2229 22.7276C22.1304 23.8549 23.4019 24.6314 24.8193 24.9238V24.9238C25.691 25.0759 26.5854 25.0349 27.4395 24.8039C28.2937 24.5728 29.0867 24.1573 29.7629 23.5866C30.4391 23.0158 30.9819 22.3038 31.3531 21.5006C31.7243 20.6974 31.9148 19.8225 31.9113 18.9377V14.25C31.9113 12.5995 31.6252 11.4991 31.064 11.0259C30.3983 10.4757 29.1933 10.6518 27.9169 10.8608C27.2378 10.9882 26.5498 11.0618 25.8592 11.0809C25.1685 11.0618 24.4805 10.9882 23.8014 10.8608C23.1968 10.7451 22.5844 10.6753 21.9693 10.6518H22.0078Z" fill="#23272B"/>
<path d="M25.9032 10.8443C25.1451 10.8489 24.3947 10.6913 23.7024 10.3822C23.5071 10.2902 23.3556 10.1254 23.2804 9.92309C23.2051 9.72075 23.2122 9.497 23.3 9.29979C23.3878 9.10259 23.5494 8.94764 23.7501 8.86816C23.9508 8.78869 24.1746 8.79101 24.3737 8.87464C24.8511 9.08869 25.369 9.19752 25.8922 9.19375C26.557 9.19298 27.2097 9.01665 27.7845 8.68259C28.3592 8.34854 28.8355 7.86862 29.1652 7.29138C29.4949 6.71414 29.6663 6.06007 29.662 5.39532C29.6578 4.73057 29.4781 4.07874 29.141 3.50576C28.804 2.93278 28.3216 2.45898 27.7426 2.13229C27.1637 1.80561 26.5087 1.63763 25.844 1.64534C25.1793 1.65305 24.5284 1.83619 23.9572 2.17622C23.386 2.51625 22.9147 3.00112 22.591 3.58177C22.5438 3.68801 22.4747 3.78309 22.3883 3.86078C22.3018 3.93846 22.1999 3.997 22.0892 4.03255C21.9785 4.06811 21.8616 4.07988 21.746 4.06709C21.6305 4.05431 21.5189 4.01726 21.4187 3.95837C21.3185 3.89948 21.2318 3.82007 21.1644 3.72536C21.097 3.63065 21.0503 3.52277 21.0275 3.40878C21.0047 3.29479 21.0062 3.17726 21.032 3.0639C21.0578 2.95054 21.1072 2.84391 21.177 2.75097C21.6439 1.91889 22.3222 1.22481 23.1433 0.738906C23.9645 0.253003 24.8993 -0.00750251 25.8534 -0.016277C26.8075 -0.0250514 27.747 0.218216 28.5769 0.688935C29.4069 1.15965 30.0978 1.84114 30.5799 2.6645C31.062 3.48786 31.3182 4.42391 31.3226 5.37802C31.327 6.33214 31.0794 7.27051 30.6049 8.09826C30.1303 8.92601 29.4457 9.61381 28.6201 10.0921C27.7945 10.5705 26.8573 10.8223 25.9032 10.8223V10.8443Z" fill="#23272B"/>
<path d="M17.8098 9.35331C17.6496 9.3528 17.4931 9.30571 17.3593 9.21779C17.2254 9.12986 17.1201 9.0049 17.056 8.85813C16.7383 8.14933 16.6031 7.37229 16.6626 6.59784C16.7221 5.82339 16.9745 5.07614 17.3967 4.42419C17.819 3.77224 18.3976 3.23632 19.08 2.86526C19.7624 2.49421 20.5268 2.29982 21.3035 2.29981C21.5563 2.29821 21.8086 2.32032 22.0573 2.36584C22.1657 2.38715 22.2688 2.4296 22.3608 2.49077C22.4527 2.55194 22.5318 2.63062 22.5933 2.72233C22.6549 2.81403 22.6978 2.91697 22.7196 3.02526C22.7413 3.13354 22.7416 3.24506 22.7203 3.35344C22.699 3.46181 22.6565 3.56493 22.5953 3.65691C22.5342 3.74888 22.4555 3.8279 22.3638 3.88947C22.2721 3.95103 22.1691 3.99393 22.0608 4.01571C21.9526 4.03749 21.841 4.03774 21.7327 4.01642C21.5914 3.98848 21.4475 3.97557 21.3035 3.97791C20.5072 3.97936 19.744 4.29633 19.1809 4.85938C18.6179 5.42244 18.3009 6.18569 18.2995 6.98197C18.2977 7.40523 18.3878 7.82383 18.5635 8.2089C18.6131 8.3339 18.6319 8.46902 18.6181 8.60279C18.6044 8.73656 18.5586 8.86505 18.4846 8.97736C18.4107 9.08966 18.3107 9.18247 18.1932 9.24792C18.0757 9.31337 17.9442 9.34952 17.8098 9.35331V9.35331Z" fill="#23272B"/>
<path d="M33.9965 9.35331C33.8804 9.35202 33.766 9.32575 33.6609 9.27628C33.5601 9.23284 33.469 9.16959 33.3931 9.09028C33.3172 9.01097 33.258 8.91722 33.219 8.81459C33.18 8.71196 33.162 8.60254 33.1661 8.49282C33.1702 8.38311 33.1962 8.27533 33.2428 8.17589C33.4185 7.79082 33.5086 7.37222 33.5069 6.94896C33.5054 6.15173 33.1877 5.38765 32.6234 4.82443C32.0592 4.26122 31.2945 3.9449 30.4973 3.9449C30.3551 3.94253 30.2131 3.95544 30.0737 3.98341C29.9671 4.00472 29.8574 4.00484 29.7507 3.98375C29.6441 3.96266 29.5427 3.92077 29.4523 3.86049C29.3618 3.8002 29.2842 3.72269 29.2237 3.63239C29.1632 3.54208 29.1211 3.44075 29.0998 3.33418C29.0785 3.22761 29.0784 3.11788 29.0995 3.01126C29.1206 2.90465 29.1625 2.80323 29.2227 2.7128C29.283 2.62237 29.3605 2.5447 29.4508 2.48422C29.5411 2.42375 29.6425 2.38165 29.749 2.36034C29.9959 2.31507 30.2464 2.29296 30.4973 2.29431C31.2752 2.29299 32.0411 2.48666 32.7249 2.85762C33.4086 3.22859 33.9885 3.76501 34.4115 4.41787C34.8346 5.07072 35.0872 5.81919 35.1464 6.59486C35.2056 7.37053 35.0694 8.14866 34.7503 8.85814C34.6863 9.0049 34.5809 9.12987 34.4471 9.21779C34.3132 9.30571 34.1567 9.3528 33.9965 9.35331V9.35331Z" fill="#23272B"/>
<path d="M16.0878 31.6472C14.6884 31.6457 13.3466 31.0895 12.3565 30.1005C11.3664 29.1115 10.8088 27.7703 10.8059 26.3708C10.8027 25.0642 11.2896 23.8038 12.1704 22.8386C12.3226 22.7047 12.5187 22.6315 12.7213 22.6329C12.924 22.6344 13.119 22.7103 13.2693 22.8463C13.4196 22.9823 13.5145 23.1688 13.5361 23.3703C13.5577 23.5718 13.5044 23.7742 13.3863 23.939C12.7848 24.5992 12.453 25.4612 12.4565 26.3543C12.493 27.2922 12.8913 28.1795 13.5678 28.8302C14.2443 29.4808 15.1464 29.8443 16.085 29.8443C17.0237 29.8443 17.9258 29.4808 18.6023 28.8302C19.2788 28.1795 19.677 27.2922 19.7136 26.3543C19.7136 26.1354 19.8005 25.9255 19.9553 25.7707C20.1101 25.616 20.32 25.529 20.5389 25.529C20.7578 25.529 20.9677 25.616 21.1224 25.7707C21.2772 25.9255 21.3642 26.1354 21.3642 26.3543C21.3656 27.0484 21.2302 27.736 20.9658 28.3777C20.7013 29.0195 20.313 29.6028 19.823 30.0943C19.3329 30.5859 18.7508 30.9761 18.1099 31.2425C17.469 31.509 16.7819 31.6465 16.0878 31.6472V31.6472Z" fill="#23272B"/>
<path d="M14.0739 25.2099C13.9158 25.2095 13.7611 25.1637 13.6283 25.0779C12.837 24.5593 12.2318 23.8018 11.9007 22.9156C11.7155 22.4252 11.6223 21.9048 11.6256 21.3806C11.6239 20.7764 11.7466 20.1783 11.9861 19.6237C12.2256 19.069 12.5767 18.5695 13.0176 18.1564C13.0964 18.0808 13.1894 18.0215 13.2913 17.9821C13.3932 17.9427 13.5019 17.9239 13.6111 17.9269C13.7203 17.9298 13.8279 17.9544 13.9275 17.9992C14.0271 18.044 14.1169 18.1081 14.1915 18.1879C14.2662 18.2676 14.3243 18.3614 14.3624 18.4638C14.4005 18.5661 14.418 18.6751 14.4137 18.7842C14.4094 18.8934 14.3835 19.0006 14.3374 19.0997C14.2914 19.1988 14.2261 19.2877 14.1455 19.3613C13.8693 19.6176 13.6494 19.9284 13.4998 20.2741C13.3501 20.6198 13.274 20.9929 13.2762 21.3696C13.2727 21.6929 13.3306 22.0141 13.4467 22.3159C13.656 22.8794 14.042 23.36 14.5471 23.6859C14.6949 23.7839 14.8072 23.9269 14.8673 24.0937C14.9274 24.2606 14.9322 24.4423 14.881 24.6121C14.8298 24.7819 14.7252 24.9306 14.5828 25.0363C14.4404 25.142 14.2678 25.199 14.0904 25.1989L14.0739 25.2099Z" fill="#23272B"/>
<path d="M14.8221 20.9349C14.6771 20.937 14.5343 20.8989 14.4095 20.8249C13.7256 20.4298 13.1771 19.8371 12.8359 19.1248C12.5727 18.5951 12.4389 18.0106 12.4453 17.4192C12.4438 16.8004 12.5898 16.1902 12.8711 15.6391C13.1524 15.088 13.5609 14.6119 14.0629 14.25C14.1506 14.1812 14.2515 14.1308 14.3592 14.1021C14.467 14.0733 14.5795 14.0666 14.6899 14.0825C14.8003 14.0984 14.9064 14.1366 15.0016 14.1946C15.0969 14.2526 15.1794 14.3294 15.2442 14.4202C15.309 14.511 15.3546 14.6141 15.3785 14.723C15.4023 14.832 15.4038 14.9447 15.3829 15.0543C15.3619 15.1638 15.319 15.268 15.2567 15.3605C15.1943 15.4531 15.1139 15.532 15.0202 15.5925C14.732 15.8016 14.4978 16.0764 14.3371 16.394C14.1763 16.7117 14.0936 17.0631 14.0959 17.4192C14.0904 17.7567 14.1658 18.0906 14.316 18.393C14.512 18.8133 14.8328 19.163 15.2348 19.3944C15.3924 19.4851 15.5156 19.6253 15.5853 19.7933C15.655 19.9612 15.6673 20.1475 15.6202 20.3232C15.5732 20.4988 15.4694 20.654 15.3251 20.7646C15.1808 20.8753 15.004 20.9351 14.8221 20.9349V20.9349Z" fill="#23272B"/>
<path d="M15.4056 16.5499C15.2592 16.5485 15.1155 16.5107 14.9875 16.4398C14.5484 16.1716 14.173 15.8112 13.8871 15.3834C13.4956 14.8156 13.2864 14.142 13.2874 13.4523C13.2902 12.7936 13.4813 12.1495 13.8381 11.5958C14.1949 11.0421 14.7025 10.6019 15.3011 10.3272C15.4017 10.2679 15.5138 10.2307 15.6299 10.218C15.746 10.2053 15.8634 10.2174 15.9745 10.2534C16.0856 10.2895 16.1877 10.3487 16.2742 10.4272C16.3607 10.5056 16.4296 10.6016 16.4763 10.7086C16.5229 10.8157 16.5463 10.9314 16.5449 11.0482C16.5436 11.165 16.5174 11.2801 16.4682 11.386C16.419 11.4919 16.3479 11.5862 16.2596 11.6626C16.1712 11.739 16.0677 11.7958 15.9558 11.8292C15.6439 11.9711 15.3792 12.1994 15.1929 12.487C15.0067 12.7746 14.9068 13.1096 14.9049 13.4523C14.9056 13.8101 15.015 14.1593 15.2185 14.4536C15.3739 14.6783 15.5768 14.8661 15.8127 15.0038C16.0007 15.115 16.1369 15.2961 16.1915 15.5075C16.2462 15.7189 16.2148 15.9434 16.1044 16.1317C16.0348 16.2566 15.9337 16.361 15.811 16.4344C15.6883 16.5078 15.5485 16.5476 15.4056 16.5499V16.5499Z" fill="#23272B"/>
<path d="M16.3684 12.3464C16.2807 12.3474 16.1934 12.3344 16.1098 12.3079C15.4411 12.0837 14.874 11.629 14.5098 11.0251C14.1456 10.4212 14.0082 9.70744 14.1219 9.01146C14.2357 8.31548 14.5934 7.68267 15.1309 7.22619C15.6685 6.7697 16.3509 6.51932 17.0561 6.51981C17.275 6.51981 17.4849 6.60676 17.6397 6.76153C17.7945 6.9163 17.8814 7.12622 17.8814 7.3451C17.8814 7.56398 17.7945 7.7739 17.6397 7.92867C17.4849 8.08344 17.275 8.17039 17.0561 8.17039C16.7449 8.17411 16.4451 8.28761 16.2094 8.49088C15.9738 8.69415 15.8175 8.97411 15.7681 9.28138C15.7188 9.58865 15.7795 9.90347 15.9397 10.1703C16.0999 10.4371 16.3491 10.6388 16.6435 10.7398C16.828 10.8026 16.9843 10.9286 17.0848 11.0956C17.1853 11.2627 17.2234 11.4598 17.1925 11.6523C17.1615 11.8447 17.0634 12.0199 16.9156 12.147C16.7678 12.274 16.5798 12.3447 16.3849 12.3464H16.3684Z" fill="#23272B"/>
<path d="M35.7185 31.6472C34.3196 31.6457 32.9784 31.0894 31.9892 30.1002C31 29.111 30.4436 27.7698 30.4421 26.3708C30.4421 26.1519 30.5291 25.942 30.6839 25.7873C30.8386 25.6325 31.0485 25.5455 31.2674 25.5455C31.4863 25.5455 31.6962 25.6325 31.851 25.7873C32.0058 25.942 32.0927 26.1519 32.0927 26.3708C32.1293 27.3087 32.5275 28.196 33.204 28.8467C33.8805 29.4974 34.7827 29.8608 35.7213 29.8608C36.6599 29.8608 37.562 29.4974 38.2385 28.8467C38.915 28.196 39.3133 27.3087 39.3498 26.3708C39.3533 25.4777 39.0215 24.6157 38.42 23.9555C38.3327 23.8787 38.2626 23.7843 38.2143 23.6785C38.166 23.5727 38.1406 23.4579 38.1398 23.3416C38.139 23.2254 38.1628 23.1102 38.2096 23.0038C38.2563 22.8973 38.3251 22.8019 38.4113 22.7239C38.4975 22.6459 38.5993 22.587 38.7098 22.551C38.8204 22.515 38.9374 22.5029 39.053 22.5152C39.1686 22.5276 39.2803 22.5643 39.3808 22.6229C39.4812 22.6814 39.5682 22.7606 39.6359 22.8551C40.5167 23.8203 41.0036 25.0807 41.0004 26.3873C40.9931 27.7839 40.4336 29.1209 39.444 30.1064C38.4544 31.0918 37.1151 31.6458 35.7185 31.6472V31.6472Z" fill="#23272B"/>
<path d="M37.7268 25.2099C37.5499 25.2088 37.3781 25.151 37.2366 25.0448C37.0951 24.9387 36.9914 24.79 36.9409 24.6205C36.8904 24.451 36.8956 24.2697 36.9559 24.1034C37.0161 23.9372 37.1282 23.7946 37.2756 23.6969C37.7768 23.3764 38.1623 22.9041 38.376 22.3489C38.4816 22.0375 38.5283 21.7091 38.5136 21.3806C38.5157 21.0039 38.4396 20.6308 38.2899 20.2851C38.1403 19.9394 37.9204 19.6286 37.6442 19.3723C37.5454 19.3063 37.462 19.2197 37.3997 19.1184C37.3374 19.0172 37.2978 18.9036 37.2834 18.7856C37.2691 18.6676 37.2804 18.5479 37.3167 18.4347C37.3529 18.3214 37.4131 18.2174 37.4933 18.1296C37.5735 18.0418 37.6717 17.9724 37.7811 17.9261C37.8906 17.8797 38.0088 17.8576 38.1277 17.8612C38.2465 17.8648 38.3631 17.894 38.4696 17.9469C38.5761 17.9997 38.6699 18.075 38.7446 18.1674C39.1892 18.5769 39.5446 19.0734 39.7888 19.6262C40.033 20.179 40.1608 20.7762 40.1641 21.3806C40.1677 21.9112 40.0706 22.4377 39.878 22.9321C39.5495 23.8122 38.948 24.5641 38.1614 25.0779C38.0316 25.1614 37.8811 25.2071 37.7268 25.2099V25.2099Z" fill="#23272B"/>
<path d="M36.9842 20.9349C36.8023 20.9351 36.6255 20.8752 36.4812 20.7646C36.3369 20.654 36.2331 20.4988 36.1861 20.3231C36.139 20.1475 36.1513 19.9612 36.221 19.7933C36.2907 19.6253 36.4139 19.4851 36.5715 19.3944C36.9669 19.1681 37.2837 18.8264 37.4793 18.415C37.6335 18.1058 37.7126 17.7647 37.7104 17.4192C37.7127 17.0631 37.63 16.7117 37.4692 16.394C37.3085 16.0764 37.0743 15.8016 36.7861 15.5925C36.6924 15.532 36.612 15.4531 36.5496 15.3605C36.4873 15.268 36.4444 15.1638 36.4234 15.0543C36.4025 14.9447 36.404 14.832 36.4278 14.723C36.4517 14.6141 36.4973 14.511 36.5621 14.4202C36.6269 14.3294 36.7094 14.2526 36.8047 14.1946C36.8999 14.1366 37.006 14.0984 37.1164 14.0825C37.2268 14.0666 37.3393 14.0733 37.4471 14.1021C37.5548 14.1308 37.6557 14.1812 37.7434 14.25C38.2454 14.6119 38.6539 15.088 38.9352 15.6391C39.2165 16.1902 39.3625 16.8004 39.361 17.4192C39.3646 18.0168 39.2269 18.6069 38.9594 19.1413C38.6263 19.846 38.0872 20.4331 37.4133 20.8249C37.2834 20.901 37.1347 20.9392 36.9842 20.9349V20.9349Z" fill="#23272B"/>
<path d="M36.4118 16.5499C36.2313 16.5492 36.0559 16.4893 35.9126 16.3794C35.7693 16.2696 35.666 16.1157 35.6185 15.9415C35.5711 15.7672 35.5821 15.5823 35.6498 15.4149C35.7176 15.2475 35.8384 15.107 35.9937 15.0148C36.2263 14.8747 36.4269 14.6873 36.5824 14.4646C36.7314 14.2502 36.8313 14.0055 36.875 13.7481C36.9188 13.4906 36.9052 13.2267 36.8354 12.9751C36.7655 12.7235 36.641 12.4903 36.4708 12.2923C36.3006 12.0942 36.0889 11.9361 35.8506 11.8292C35.6586 11.7343 35.5109 11.5684 35.4389 11.3667C35.3669 11.1649 35.3762 10.943 35.4647 10.748C35.5533 10.5529 35.7143 10.3999 35.9137 10.3214C36.113 10.2429 36.335 10.2449 36.5329 10.3272C36.9946 10.5301 37.4057 10.8328 37.7366 11.2134C38.0675 11.594 38.31 12.0432 38.4468 12.5287C38.5835 13.0141 38.6111 13.5238 38.5275 14.0212C38.4439 14.5186 38.2513 14.9913 37.9634 15.4054C37.6778 15.8304 37.3021 16.1874 36.863 16.4508C36.7241 16.5234 36.5683 16.5576 36.4118 16.5499V16.5499Z" fill="#23272B"/>
<path d="M35.4381 12.3464C35.2432 12.3447 35.0552 12.274 34.9074 12.147C34.7595 12.0199 34.6615 11.8447 34.6305 11.6523C34.5995 11.4598 34.6377 11.2627 34.7381 11.0956C34.8386 10.9286 34.995 10.8026 35.1795 10.7398C35.4743 10.6386 35.7238 10.4365 35.8838 10.1691C36.0439 9.90171 36.1043 9.58632 36.0542 9.27871C36.0042 8.97111 35.8469 8.69112 35.6103 8.48829C35.3737 8.28546 35.073 8.17285 34.7613 8.17039C34.5424 8.17039 34.3325 8.08344 34.1778 7.92867C34.023 7.77389 33.936 7.56398 33.936 7.3451C33.936 7.12622 34.023 6.9163 34.1778 6.76153C34.3325 6.60676 34.5424 6.51981 34.7613 6.51981C35.4656 6.52192 36.1462 6.77415 36.6818 7.23151C37.2174 7.68887 37.5731 8.32162 37.6854 9.01688C37.7978 9.71214 37.6595 10.4247 37.2952 11.0275C36.931 11.6303 36.3644 12.084 35.6967 12.3079C35.6131 12.3344 35.5258 12.3474 35.4381 12.3464V12.3464Z" fill="#23272B"/>
<path d="M25.9032 10.8443C25.0852 10.8487 24.2768 10.6672 23.5391 10.3136C22.8015 9.96003 22.1537 9.44354 21.6447 8.80311C21.5061 8.63093 21.4415 8.41073 21.4653 8.19095C21.489 7.97117 21.5991 7.76982 21.7713 7.6312C21.9434 7.49258 22.1636 7.42803 22.3834 7.45176C22.6032 7.47549 22.8045 7.58556 22.9432 7.75775C23.3391 8.2582 23.8556 8.64993 24.4443 8.89622C25.0329 9.14251 25.6745 9.2353 26.3088 9.16589C26.9432 9.09647 27.5495 8.86713 28.071 8.49936C28.5925 8.13159 29.012 7.63744 29.2904 7.06321C29.5687 6.48898 29.6966 5.85349 29.6622 5.21629C29.6279 4.5791 29.4322 3.96107 29.0937 3.42013C28.7552 2.8792 28.2849 2.43307 27.7269 2.12356C27.1688 1.81406 26.5413 1.65132 25.9032 1.65058C25.6843 1.65058 25.4744 1.56363 25.3196 1.40886C25.1649 1.25409 25.0779 1.04417 25.0779 0.825292C25.0779 0.606411 25.1649 0.396495 25.3196 0.241722C25.4744 0.0869502 25.6843 0 25.9032 0C27.3114 0.0448618 28.6468 0.635783 29.6271 1.64774C30.6073 2.6597 31.1554 4.0133 31.1554 5.42217C31.1554 6.83104 30.6073 8.18464 29.6271 9.1966C28.6468 10.2086 27.3114 10.7995 25.9032 10.8443V10.8443Z" fill="#23272B"/>
<path d="M25.9031 30.3817C23.7366 30.3898 21.6159 29.7582 19.8069 28.5661C19.71 28.5096 19.6256 28.4338 19.5589 28.3436C19.4922 28.2533 19.4447 28.1504 19.4191 28.0411C19.3936 27.9318 19.3906 27.8185 19.4103 27.708C19.4301 27.5976 19.4721 27.4923 19.534 27.3986C19.5958 27.305 19.676 27.2249 19.7699 27.1633C19.8637 27.1017 19.9691 27.0599 20.0796 27.0405C20.1901 27.021 20.3034 27.0243 20.4126 27.0501C20.5218 27.0759 20.6246 27.1237 20.7147 27.1906C22.2543 28.196 24.0533 28.7314 25.8921 28.7314C27.7308 28.7314 29.5298 28.196 31.0694 27.1906C31.1595 27.1237 31.2623 27.0759 31.3715 27.0501C31.4807 27.0243 31.5941 27.021 31.7046 27.0405C31.8151 27.0599 31.9205 27.1017 32.0143 27.1633C32.1081 27.2249 32.1884 27.305 32.2502 27.3986C32.312 27.4923 32.3541 27.5976 32.3738 27.708C32.3936 27.8185 32.3906 27.9318 32.365 28.0411C32.3395 28.1504 32.2919 28.2533 32.2252 28.3436C32.1585 28.4338 32.0742 28.5096 31.9772 28.5661C30.1745 29.7541 28.0621 30.3855 25.9031 30.3817V30.3817Z" fill="#23272B"/>
<path d="M25.9031 43.0252C23.0927 43.0364 20.2963 42.6285 17.6062 41.8148C17.5025 41.783 17.4061 41.7311 17.3225 41.6621C17.2388 41.593 17.1696 41.5082 17.1188 41.4124C17.068 41.3166 17.0365 41.2117 17.0262 41.1038C17.0159 40.9958 17.0269 40.8869 17.0587 40.7832C17.0905 40.6795 17.1424 40.5831 17.2115 40.4995C17.2805 40.4159 17.3654 40.3466 17.4612 40.2958C17.6546 40.1931 17.881 40.1715 18.0904 40.2357C20.6236 41.0011 23.2568 41.3849 25.9031 41.3746C28.5865 41.39 31.2565 40.9948 33.8204 40.2027C34.0291 40.1363 34.2556 40.1556 34.4501 40.2562C34.6446 40.3568 34.7911 40.5305 34.8575 40.7392C34.9239 40.9478 34.9047 41.1743 34.8041 41.3688C34.7035 41.5633 34.5298 41.7099 34.3211 41.7763C31.5949 42.6182 28.7563 43.0393 25.9031 43.0252V43.0252Z" fill="#23272B"/>
<path d="M25.9031 38.8107C23.578 38.8225 21.2706 38.4046 19.0972 37.5783C18.9906 37.5433 18.8922 37.487 18.808 37.4127C18.7239 37.3384 18.6558 37.2477 18.6079 37.1462C18.56 37.0447 18.5334 36.9344 18.5295 36.8223C18.5257 36.7101 18.5448 36.5983 18.5856 36.4938C18.6265 36.3892 18.6882 36.2941 18.7671 36.2142C18.8459 36.1344 18.9403 36.0714 19.0443 36.0293C19.1483 35.9871 19.2598 35.9666 19.372 35.969C19.4843 35.9714 19.5948 35.9967 19.6969 36.0433C23.7288 37.5458 28.1693 37.5321 32.1918 36.0047C32.2926 35.9646 32.4003 35.9448 32.5088 35.9463C32.6173 35.9478 32.7244 35.9707 32.824 36.0136C32.9236 36.0565 33.0138 36.1187 33.0894 36.1964C33.1651 36.2742 33.2246 36.3661 33.2647 36.4669C33.3048 36.5677 33.3247 36.6754 33.3232 36.7839C33.3216 36.8923 33.2988 36.9994 33.2558 37.0991C33.2129 37.1987 33.1508 37.2889 33.073 37.3645C32.9953 37.4401 32.9034 37.4997 32.8026 37.5398C30.603 38.393 28.2623 38.8241 25.9031 38.8107V38.8107Z" fill="#23272B"/>
<path d="M34.068 41.8148C33.8987 41.8132 33.7339 41.7595 33.5961 41.6611C33.4583 41.5627 33.3542 41.4243 33.2977 41.2646L31.7242 37.0501C30.7173 34.3487 29.7104 31.6307 28.7751 29.1603C28.7248 29.056 28.697 28.9422 28.6935 28.8264C28.69 28.7106 28.711 28.5953 28.755 28.4882C28.799 28.381 28.8651 28.2843 28.9489 28.2043C29.0328 28.1244 29.1326 28.063 29.2417 28.0242C29.3509 27.9853 29.467 27.9699 29.5825 27.9789C29.698 27.9879 29.8103 28.0211 29.9121 28.0764C30.014 28.1316 30.103 28.2077 30.1735 28.2997C30.244 28.3917 30.2943 28.4974 30.3212 28.6101C31.24 31.064 32.2633 33.782 33.2702 36.4944L34.8438 40.7144C34.9204 40.9194 34.9124 41.1465 34.8216 41.3456C34.7308 41.5447 34.5646 41.6997 34.3596 41.7763C34.2657 41.8075 34.1667 41.8205 34.068 41.8148V41.8148Z" fill="#23272B"/>
<path d="M17.8428 41.8533C17.7448 41.8537 17.6476 41.8351 17.5567 41.7983C17.4544 41.7619 17.3602 41.7058 17.2796 41.633C17.199 41.5602 17.1336 41.4722 17.0871 41.374C17.0406 41.2759 17.0139 41.1695 17.0086 41.0611C17.0032 40.9526 17.0194 40.8441 17.056 40.7419L21.5346 28.6376C21.5615 28.5249 21.6118 28.4192 21.6823 28.3272C21.7528 28.2352 21.8418 28.1591 21.9436 28.1039C22.0455 28.0486 22.1578 28.0154 22.2733 28.0064C22.3888 27.9974 22.5049 28.0128 22.6141 28.0517C22.7232 28.0905 22.823 28.1519 22.9068 28.2318C22.9907 28.3118 23.0568 28.4085 23.1008 28.5157C23.1448 28.6228 23.1658 28.7381 23.1623 28.8539C23.1588 28.9697 23.131 29.0835 23.0807 29.1878L18.6076 41.2921C18.5526 41.4525 18.4499 41.5923 18.3132 41.6926C18.1765 41.7929 18.0123 41.849 17.8428 41.8533V41.8533Z" fill="#23272B"/>
<path d="M12.9295 46.2934C12.7107 46.2934 12.5007 46.2064 12.346 46.0517C12.1912 45.8969 12.1042 45.687 12.1042 45.4681V39.9661C12.1042 39.7473 12.1912 39.5373 12.346 39.3826C12.5007 39.2278 12.7107 39.1408 12.9295 39.1408C13.1484 39.1408 13.3583 39.2278 13.5131 39.3826C13.6679 39.5373 13.7548 39.7473 13.7548 39.9661V45.4681C13.7548 45.687 13.6679 45.8969 13.5131 46.0517C13.3583 46.2064 13.1484 46.2934 12.9295 46.2934V46.2934Z" fill="#23272B"/>
<path d="M38.2386 46.2934C38.0197 46.2934 37.8098 46.2064 37.6551 46.0517C37.5003 45.8969 37.4133 45.687 37.4133 45.4681V39.9661C37.4133 39.7473 37.5003 39.5373 37.6551 39.3826C37.8098 39.2278 38.0197 39.1408 38.2386 39.1408C38.4575 39.1408 38.6674 39.2278 38.8222 39.3826C38.977 39.5373 39.0639 39.7473 39.0639 39.9661V45.4681C39.0639 45.687 38.977 45.8969 38.8222 46.0517C38.6674 46.2064 38.4575 46.2934 38.2386 46.2934Z" fill="#23272B"/>
<path d="M51.4432 50.1447H0.825292C0.606411 50.1447 0.396495 50.0578 0.241722 49.903C0.0869502 49.7483 0 49.5383 0 49.3195L0 46.0183C0 45.7994 0.0869502 45.5895 0.241722 45.4347C0.396495 45.2799 0.606411 45.193 0.825292 45.193H51.4432C51.6621 45.193 51.872 45.2799 52.0268 45.4347C52.1815 45.5895 52.2685 45.7994 52.2685 46.0183V49.3195C52.2685 49.5383 52.1815 49.7483 52.0268 49.903C51.872 50.0578 51.6621 50.1447 51.4432 50.1447ZM1.65058 48.4942H50.6179V46.8436H1.65058V48.4942Z" fill="#23272B"/>
<path d="M41.9303 62.7992H35.9277C35.7303 62.7991 35.5394 62.7287 35.3892 62.6007C35.239 62.4727 35.1392 62.2953 35.1079 62.1005C34.6347 58.9259 34.7833 57.0167 35.1079 53.644C35.1295 53.4397 35.2256 53.2504 35.3778 53.1124C35.53 52.9744 35.7277 52.8973 35.9332 52.8957H41.9303C42.1355 52.8962 42.3332 52.9731 42.4848 53.1115C42.6363 53.2498 42.7309 53.4397 42.7501 53.644C43.0747 57.0167 43.2177 58.9259 42.7501 62.1005C42.7198 62.2958 42.6203 62.4738 42.4699 62.602C42.3194 62.7303 42.128 62.8002 41.9303 62.7992V62.7992ZM36.6429 61.1486H41.2095C41.4705 58.9549 41.4594 56.7373 41.1765 54.5463H36.6759C36.3958 56.7375 36.3847 58.9547 36.6429 61.1486V61.1486Z" fill="#23272B"/>
<path d="M42.6401 54.5463H34.9374C34.7185 54.5463 34.5086 54.4593 34.3538 54.3046C34.199 54.1498 34.1121 53.9399 34.1121 53.721V51.5202C34.1121 51.3013 34.199 51.0914 34.3538 50.9367C34.5086 50.7819 34.7185 50.6949 34.9374 50.6949H42.6401C42.859 50.6949 43.0689 50.7819 43.2237 50.9367C43.3784 51.0914 43.4654 51.3013 43.4654 51.5202V53.721C43.4654 53.9399 43.3784 54.1498 43.2237 54.3046C43.0689 54.4593 42.859 54.5463 42.6401 54.5463ZM35.7626 52.8957H41.8148V52.3455H35.7626V52.8957Z" fill="#23272B"/>
<path d="M42.6401 65H34.9374C34.7185 65 34.5086 64.913 34.3538 64.7583C34.199 64.6035 34.1121 64.3936 34.1121 64.1747V61.9739C34.1121 61.755 34.199 61.5451 34.3538 61.3904C34.5086 61.2356 34.7185 61.1486 34.9374 61.1486H42.6401C42.859 61.1486 43.0689 61.2356 43.2237 61.3904C43.3784 61.5451 43.4654 61.755 43.4654 61.9739V64.1747C43.4654 64.3936 43.3784 64.6035 43.2237 64.7583C43.0689 64.913 42.859 65 42.6401 65V65ZM35.7626 63.3494H41.8148V62.7992H35.7626V63.3494Z" fill="#23272B"/>
<path d="M2.15122 43.0252C1.93234 43.0252 1.72242 42.9383 1.56765 42.7835C1.41288 42.6287 1.32593 42.4188 1.32593 42.1999C1.33367 37.6259 2.8412 33.1806 5.61745 29.5455C5.68082 29.4532 5.7623 29.3748 5.85691 29.3151C5.95152 29.2553 6.0573 29.2154 6.16782 29.1978C6.27833 29.1802 6.39127 29.1853 6.49977 29.2127C6.60827 29.2401 6.71006 29.2893 6.79895 29.3573C6.88785 29.4252 6.96199 29.5106 7.01687 29.6081C7.07175 29.7056 7.10622 29.8133 7.11819 29.9246C7.13016 30.0358 7.11937 30.1484 7.08649 30.2554C7.05361 30.3623 6.99931 30.4615 6.92691 30.5468C4.37115 33.8946 2.98348 37.9881 2.97651 42.1999C2.97651 42.4188 2.88956 42.6287 2.73479 42.7835C2.58002 42.9383 2.3701 43.0252 2.15122 43.0252Z" fill="#23272B"/>
<path d="M3.5543 58.7278C3.33541 58.7278 3.1255 58.6408 2.97073 58.4861C2.81595 58.3313 2.729 58.1214 2.729 57.9025C2.72929 57.0332 2.90429 56.1729 3.24361 55.3725C3.58292 54.5722 4.07963 53.8483 4.70423 53.2437C5.32883 52.6391 6.06857 52.1662 6.87951 51.8531C7.69045 51.5401 8.55605 51.3932 9.42487 51.4212L20.1097 51.7788C20.218 51.7824 20.3246 51.8074 20.4234 51.8522C20.5221 51.897 20.6111 51.9608 20.6852 52.04C20.7592 52.1192 20.817 52.2122 20.8551 52.3137C20.8933 52.4152 20.911 52.5232 20.9074 52.6316C20.9038 52.74 20.8789 52.8466 20.8341 52.9454C20.7893 53.0441 20.7255 53.1331 20.6463 53.2071C20.5671 53.2812 20.4741 53.339 20.3726 53.3771C20.271 53.4152 20.163 53.433 20.0546 53.4294L9.35335 53.0718C8.70532 53.051 8.05972 53.1606 7.45485 53.394C6.84997 53.6275 6.29814 53.98 5.8321 54.4308C5.37197 54.8831 5.00805 55.4239 4.76222 56.0205C4.51639 56.6171 4.39372 57.2573 4.4016 57.9025C4.40163 58.0127 4.37958 58.1219 4.33674 58.2235C4.29389 58.3251 4.23113 58.417 4.15214 58.494C4.07316 58.5709 3.97957 58.6312 3.87688 58.6714C3.7742 58.7115 3.66451 58.7307 3.5543 58.7278V58.7278Z" fill="#23272B"/>
<path d="M41.5618 18.1179C41.5885 17.886 41.6013 17.6526 41.6003 17.4192C41.5946 16.3094 41.2885 15.2219 40.7145 14.2721C40.7558 14.0007 40.7779 13.7267 40.7805 13.4523C40.7776 12.3674 40.4645 11.306 39.8782 10.3932" fill="#23272B"/>
<path d="M41.5616 18.9432H41.4681C41.2507 18.9183 41.052 18.8082 40.9159 18.6369C40.7797 18.4656 40.7171 18.2473 40.7418 18.0299C40.7633 17.8289 40.7744 17.6268 40.7748 17.4247C40.7728 16.4649 40.5104 15.5236 40.0156 14.7012C39.9185 14.5353 39.8816 14.341 39.911 14.151C39.9451 13.9178 39.9635 13.6825 39.966 13.4468C39.9643 12.5191 39.695 11.6117 39.1903 10.8333C39.0721 10.6487 39.032 10.4248 39.079 10.2107C39.1259 9.99656 39.256 9.80988 39.4406 9.69168C39.6252 9.57348 39.8492 9.53346 40.0633 9.58041C40.2774 9.62735 40.4641 9.75743 40.5823 9.94202C41.2572 10.9864 41.6164 12.2033 41.6166 13.4468C41.6166 13.6613 41.6166 13.8759 41.5781 14.1015C42.1304 15.1144 42.4216 16.249 42.4254 17.4027C42.4193 17.6713 42.3991 17.9394 42.3649 18.2059C42.3424 18.405 42.2487 18.5893 42.1011 18.7248C41.9535 18.8603 41.7619 18.9378 41.5616 18.9432Z" fill="#23272B"/>
<path d="M23.1083 35.7902C23.0553 35.7959 23.0018 35.7959 22.9488 35.7902C22.8418 35.7704 22.7398 35.7296 22.6487 35.67C22.5577 35.6104 22.4794 35.5333 22.4185 35.4432C22.3576 35.3531 22.3152 35.2517 22.2938 35.145C22.2724 35.0383 22.2725 34.9285 22.294 34.8218L23.3944 29.2594C23.4108 29.1489 23.4495 29.043 23.5081 28.9479C23.5666 28.8528 23.6439 28.7706 23.7351 28.7063C23.8264 28.6419 23.9297 28.5968 24.0389 28.5735C24.1481 28.5503 24.2609 28.5494 24.3705 28.5711C24.48 28.5927 24.584 28.6363 24.6762 28.6993C24.7684 28.7622 24.8469 28.8433 24.9069 28.9374C24.9668 29.0316 25.0071 29.137 25.0252 29.2472C25.0432 29.3574 25.0387 29.4701 25.012 29.5785L23.9116 35.1409C23.8706 35.3239 23.769 35.4877 23.6231 35.6055C23.4773 35.7234 23.2958 35.7885 23.1083 35.7902Z" fill="#23272B"/>
<path d="M45.9413 62.249C45.7224 62.249 45.5125 62.1621 45.3577 62.0073C45.2029 61.8525 45.116 61.6426 45.116 61.4237V53.1708C45.116 52.9519 45.2029 52.742 45.3577 52.5872C45.5125 52.4325 45.7224 52.3455 45.9413 52.3455C46.1601 52.3455 46.3701 52.4325 46.5248 52.5872C46.6796 52.742 46.7665 52.9519 46.7665 53.1708V61.4237C46.7665 61.6426 46.6796 61.8525 46.5248 62.0073C46.3701 62.1621 46.1601 62.249 45.9413 62.249V62.249Z" fill="#23272B"/>
</g>
<defs>
<clipPath id="clip0_216_313">
<rect width="52.2685" height="65" fill="white"/>
</clipPath>
</defs>
</svg>
