<svg aria-hidden="true" class="icon icon--locations" width="53" height="65" viewBox="0 0 53 65" fill="none" xmlns="http://www.w3.org/2000/svg">
<path fill-rule="evenodd" clip-rule="evenodd" d="M37.375 11.8641C37.375 5.22826 32.4239 0.815216 26.3206 0.815216C20.2174 0.815216 15.2717 5.22826 15.2717 11.8641C15.2717 18.7826 26.3206 31.1685 26.3206 31.1685C26.3206 31.1685 37.375 18.7717 37.375 11.8641ZM22.1956 12.0163C22.1956 11.2005 22.4376 10.4029 22.8908 9.72458C23.3441 9.04622 23.9883 8.51751 24.7421 8.2053C25.4958 7.89309 26.3252 7.8114 27.1254 7.97056C27.9256 8.12973 28.6606 8.5226 29.2375 9.09949C29.8143 9.67638 30.2072 10.4114 30.3664 11.2116C30.5255 12.0117 30.4439 12.8411 30.1316 13.5949C29.8194 14.3486 29.2907 14.9929 28.6124 15.4461C27.934 15.8994 27.1365 16.1413 26.3206 16.1413C25.2266 16.1413 24.1774 15.7067 23.4038 14.9331C22.6302 14.1595 22.1956 13.1103 22.1956 12.0163V12.0163Z" fill="#C88B66"/>
<path d="M46.962 40.2446C47.0544 40.3859 47.9457 41.8043 47.3479 43.1413C46.5599 44.913 43.9892 44.7283 43.4947 44.6957C43.184 44.7049 42.8806 44.6006 42.6414 44.4022C42.3207 44.087 42.3642 43.5489 42.0979 42.9402C41.7338 42.0109 41.799 41.4565 40.6794 40.6467C40.6794 41.7337 40.0599 39.7283 40.7338 44.1413C40.7878 44.509 40.9735 44.8445 41.2565 45.0855C41.5394 45.3264 41.9002 45.4563 42.2718 45.4511C42.2718 45.4511 44.674 45.538 44.9892 45.625C45.3044 45.712 44.9892 46.875 44.2936 47.8859C43.4849 48.9747 42.575 49.9846 41.5762 50.9022C40.4892 51.9891 41.299 51.8804 41.2447 52.7717C41.1281 53.6786 40.7504 54.5321 40.1577 55.2283C39.5893 56.1062 38.9533 56.9384 38.2555 57.7174C37.9701 58.09 37.5955 58.3849 37.1662 58.5748C36.7369 58.7648 36.2668 58.8437 35.799 58.8043C34.8805 58.8043 34.712 58.6957 34.4892 57.9674C34.2664 57.2391 33.2012 55.7554 33.2283 54.8913C33.2555 54.0272 33.511 52.4674 33.4838 51.3207C33.4566 50.1739 32.7229 50.7337 32.2555 50.2011C31.7881 49.6685 32.0599 48.9185 31.6631 48.3315C31.2664 47.7446 30.5436 47.9348 29.4892 48.0217C28.4349 48.1087 27.8099 48.4185 27.0544 48.4402C26.299 48.462 26.049 48.3315 25.462 47.5761C24.8751 46.8207 24.3153 46.7391 24.1251 45.5652C24.0075 44.2635 24.0075 42.9539 24.1251 41.6522C24.1251 41.375 25.0218 40.8967 25.3805 40.3098C25.5912 39.9141 25.7729 39.5036 25.924 39.0815C26.1468 38.6413 26.9457 38.4946 27.5164 38.3152H27.5599C28.0526 38.1181 28.5595 37.9582 29.0762 37.837C29.9186 37.6739 30.0055 37.3967 31.3153 37.0326C32.6251 36.6685 32.4023 37.337 33.049 38.0054C33.5843 38.6843 34.3652 39.1255 35.2229 39.2337C36.3697 39.462 39.2501 39.0978 39.2501 39.0978C39.2911 38.9499 39.2767 38.7921 39.2097 38.654C39.1427 38.516 39.0276 38.4071 38.886 38.3478C38.5356 38.1916 38.2416 37.9318 38.0436 37.6033C37.7706 37.3703 37.4241 37.2414 37.0653 37.2391C36.6468 37.2391 36.962 37.8804 36.962 37.8804C36.962 37.8804 36.761 38.3043 36.3153 37.7717C36.2183 37.6544 36.1345 37.5269 36.0653 37.3913C36.0054 37.284 35.907 37.2034 35.7899 37.1661C35.6728 37.1287 35.5458 37.1374 35.4349 37.1902C35.0591 37.3136 34.6566 37.3305 34.2718 37.2391C33.682 37.1202 33.1551 36.792 32.7881 36.3152C32.1468 36.3152 31.5925 36.2663 31.4783 36.2663C30.7399 36.4161 30.0382 36.7097 29.4131 37.1304C28.7689 37.4423 28.0636 37.6075 27.3479 37.6141C26.9294 37.5054 26.2338 37.337 26.1686 37.0978C26.1033 36.8587 26.6142 35.9022 26.8914 35.538C27.1686 35.1739 27.7066 35.7011 28.462 35.538C29.2175 35.375 29.049 35.087 29.1033 34.7283C29.1202 34.5069 29.0891 34.2846 29.0122 34.0764C28.9353 33.8682 28.8144 33.679 28.6577 33.5217C28.4077 33.413 27.7066 33.913 27.1794 34C26.6523 34.087 26.1142 33.1522 26.1468 32.8261C26.1794 32.5 26.6903 32.5707 27.0653 32.462C27.4403 32.3533 28.4892 31.0924 28.7664 30.9565C29.0436 30.8207 29.3479 31.5217 29.4077 31.8207C29.4675 32.1196 29.5164 32.7228 29.5762 33.25C29.5762 33.413 29.5762 33.5978 29.6305 33.6848C29.7926 33.8545 30.0088 33.9624 30.2418 33.9902C30.4748 34.018 30.7102 33.9638 30.9077 33.837V33.837L31.0273 33.7826C31.2773 33.6413 31.4947 33.4728 31.6305 33.3804C31.8588 32.9946 31.6577 32.4783 31.6577 32.1848C31.6577 31.788 31.4566 31.7337 31.2936 31.5435C31.1305 31.3533 32.0164 30.1141 33.2718 29.2446C34.5273 28.375 37.0762 28.3804 37.9131 28.4674C38.7501 28.5543 38.2881 29.9674 38.511 30.1902C38.7338 30.413 39.174 30.1902 39.174 30.1902C39.7473 29.9208 40.2933 29.5969 40.8044 29.2228C40.899 29.1448 41.0054 29.0824 41.1197 29.038C44.1957 32.0673 46.2398 35.9882 46.962 40.2446V40.2446Z" fill="#A7A7A7"/>
<path d="M21.0109 61.4783C19.7609 60.7065 19.5381 60.2935 19.462 60.1304C19.1033 59.3641 19.5489 59.087 19.3424 57.8424C19.1142 56.4565 18.4511 56.1685 18.7337 55.4674C18.9796 55.0312 19.1922 54.577 19.3696 54.1087C19.4409 53.9345 19.4409 53.7394 19.3696 53.5652C19.3098 53.4457 19.1685 53.3859 18.9348 53.2174C18.4892 52.9022 18.8642 52.4565 18.7989 51.6902C18.7337 50.9239 19.1087 51.1467 19.0326 50.2826C18.9565 49.4185 18.9892 49.7826 18.5381 49.3478C18.3875 49.1753 18.2024 49.0364 17.9946 48.9402C17.7174 48.8478 17.6196 49.0054 17.4511 48.9402C17.2826 48.875 17.2826 48.4837 17.1794 47.9783C17.1385 47.5116 16.9368 47.0736 16.6087 46.7391C16.2555 46.4728 15.9511 46.6848 15.212 46.6196C14.2609 46.5326 14.2174 46.125 13.4457 46.0054C12.1522 45.8098 11.5652 46.8478 10.7283 46.5489C10.3696 46.4239 9.92938 46.0326 9.64133 44.8207C9.09785 44.163 8.34785 42.8696 8.7772 42.2663C9.01633 41.9293 9.36959 42.1522 9.94568 41.7663C10.5218 41.3804 10.375 40.9022 11.2229 39.8859C12.0707 38.8696 12.6522 38.7989 12.8533 38.8804C12.8582 38.8833 12.8639 38.8848 12.8696 38.8848C12.8753 38.8848 12.8809 38.8833 12.8859 38.8804C13.0272 38.8804 13.0652 38.212 13.0761 37.4837C13.125 37.3641 13.212 37.2174 13.3315 37.212C13.4511 37.2065 13.5381 37.4457 13.7446 37.5326C13.8575 37.5618 13.9755 37.5657 14.0901 37.5441C14.2047 37.5225 14.3131 37.4759 14.4076 37.4076C15.4294 36.8641 15.962 37.163 16.962 36.4348C17.6642 36.0082 18.1744 35.3266 18.3859 34.5326C18.4837 33.9348 18.2392 33.7283 18.3859 32.9728C18.5326 32.2174 18.7989 32.1793 19 31.4783C19.2147 30.8114 19.1897 30.0906 18.9294 29.4402C18.3261 28.2065 16.6033 28.0924 16.4837 28.0815L14.8913 25.7772L13.2609 26.4891C11.9511 27.6467 10.9294 28.663 10.2065 29.4402C9.61045 30.0389 9.0651 30.6861 8.57611 31.375C8.01441 32.2448 7.53585 33.1655 7.14677 34.125C6.83155 34.8315 6.55981 35.5217 6.0272 36.875C5.43481 38.3315 5.15764 39.0815 5.12503 39.2772C5.01496 40.8108 5.37722 42.3414 6.16307 43.663V43.663C6.83761 43.8359 7.48244 44.1089 8.07611 44.4728C8.34573 44.663 8.57454 44.9053 8.74908 45.1853C8.92363 45.4653 9.04036 45.7774 9.09242 46.1033C9.09242 46.8207 8.78264 47.0761 8.89133 48.038C8.94568 48.5326 9.05437 48.5 9.09242 48.9511C9.16307 49.7609 8.83155 50.1793 8.68481 50.8533C8.58206 51.5607 8.65294 52.2826 8.89133 52.9565C9.43481 55.3315 11.4185 57.4348 11.8098 57.8478C12.6029 58.7896 13.5165 59.6229 14.5272 60.3261C15.5512 61.0168 16.644 61.5997 17.7881 62.0652C18.7718 62.4891 18.875 62.4511 20.2011 63.0326C20.8152 63.3613 21.4642 63.6201 22.1359 63.8043C23.4239 64.0543 24.7826 63.7337 24.8098 63.413C24.8098 63.2826 24.6196 63.087 23.7229 62.8043C22.7741 62.4604 21.8649 62.0159 21.0109 61.4783V61.4783Z" fill="#A7A7A7"/>
<path d="M39.3533 19.2772C39.239 19.2773 39.126 19.2532 39.0218 19.2065C38.9231 19.1624 38.8342 19.0993 38.76 19.0208C38.6858 18.9422 38.6279 18.8498 38.5895 18.7488C38.5511 18.6478 38.5331 18.5403 38.5364 18.4323C38.5397 18.3243 38.5642 18.218 38.6087 18.1196C39.6957 15.7228 40.2391 13.6141 40.2391 11.8533C40.258 9.68935 39.7822 7.54973 38.8478 5.59783C38.7823 5.50111 38.7383 5.39143 38.7189 5.27623C38.6995 5.16103 38.705 5.043 38.7352 4.93013C38.7653 4.81727 38.8194 4.7122 38.8937 4.62205C38.968 4.5319 39.0609 4.45878 39.1659 4.40764C39.2709 4.3565 39.3857 4.32853 39.5025 4.32563C39.6193 4.32273 39.7354 4.34497 39.8428 4.39083C39.9503 4.4367 40.0466 4.50513 40.1253 4.59147C40.204 4.67782 40.2632 4.78008 40.2989 4.89131C41.3378 7.06787 41.8675 9.45241 41.8478 11.8641C41.8478 13.8587 41.2554 16.212 40.0924 18.7935C40.0293 18.937 39.9258 19.0591 39.7946 19.145C39.6634 19.2308 39.5101 19.2768 39.3533 19.2772V19.2772ZM13.2663 19.2772C13.1087 19.2771 12.9545 19.2314 12.8224 19.1456C12.6903 19.0597 12.5858 18.9374 12.5217 18.7935C11.4675 16.6288 10.8717 14.2698 10.7717 11.8641C10.7578 9.45001 11.297 7.06476 12.3478 4.89131C12.3894 4.78725 12.452 4.69288 12.5317 4.6141C12.6114 4.53532 12.7065 4.47382 12.811 4.43343C12.9156 4.39305 13.0273 4.37465 13.1393 4.37938C13.2512 4.38411 13.361 4.41188 13.4618 4.46094C13.5625 4.51001 13.6521 4.57932 13.7248 4.66454C13.7976 4.74977 13.852 4.84908 13.8846 4.95628C13.9173 5.06347 13.9275 5.17625 13.9146 5.28757C13.9018 5.39889 13.8661 5.50636 13.8098 5.60326C12.8792 7.55624 12.4052 9.69541 12.4239 11.8587C12.5311 14.0373 13.0862 16.1704 14.0544 18.125C14.1003 18.2232 14.1261 18.3297 14.1301 18.4381C14.1342 18.5464 14.1164 18.6545 14.0779 18.7559C14.0394 18.8573 13.9809 18.9499 13.9059 19.0282C13.8309 19.1066 13.7409 19.169 13.6413 19.212C13.5301 19.2604 13.4092 19.2827 13.2881 19.2772H13.2663Z" fill="#23272B"/>
<path d="M43.5108 21.3696C43.3749 21.37 43.2411 21.3363 43.1217 21.2714C43.0022 21.2066 42.901 21.1127 42.8274 20.9985C42.7538 20.8843 42.7101 20.7533 42.7003 20.6178C42.6906 20.4822 42.7152 20.3464 42.7717 20.2228C44.163 17.1141 44.8641 14.3043 44.8641 11.8641C44.8884 8.97338 44.2547 6.115 43.0108 3.50543C42.9584 3.40842 42.9261 3.30177 42.916 3.19194C42.906 3.08211 42.9183 2.97138 42.9523 2.86645C42.9862 2.76152 43.0412 2.66457 43.1137 2.58148C43.1862 2.49839 43.2748 2.43087 43.3742 2.38303C43.4736 2.33518 43.5816 2.308 43.6918 2.30312C43.802 2.29824 43.912 2.31577 44.0152 2.35465C44.1184 2.39353 44.2127 2.45295 44.2923 2.52931C44.3719 2.60567 44.4351 2.69739 44.4782 2.7989C45.8298 5.62839 46.5194 8.72849 46.4945 11.8641C46.4945 14.5326 45.7445 17.5706 44.2554 20.8859C44.1919 21.0302 44.0876 21.1529 43.9553 21.2389C43.8231 21.3248 43.6686 21.3702 43.5108 21.3696V21.3696ZM9.1304 21.3696C8.97357 21.3693 8.82009 21.3241 8.68813 21.2394C8.55617 21.1546 8.45127 21.0338 8.38584 20.8913C6.90214 17.5924 6.14671 14.5543 6.14671 11.8641C6.12077 8.72958 6.80646 5.63001 8.15214 2.7989C8.19525 2.69739 8.25851 2.60567 8.33809 2.52931C8.41767 2.45295 8.51192 2.39353 8.61513 2.35465C8.71834 2.31577 8.82837 2.29824 8.93856 2.30312C9.04874 2.308 9.15679 2.33518 9.25616 2.38303C9.35553 2.43087 9.44417 2.49839 9.51669 2.58148C9.58921 2.66457 9.64412 2.76152 9.67809 2.86645C9.71206 2.97138 9.72439 3.08211 9.71432 3.19194C9.70426 3.30177 9.67201 3.40842 9.61953 3.50543C8.37823 6.11587 7.74461 8.97366 7.76627 11.8641C7.76627 14.3206 8.47279 17.1304 9.8641 20.2174C9.90856 20.3158 9.93314 20.4221 9.93644 20.5301C9.93973 20.6381 9.92167 20.7456 9.8833 20.8466C9.84492 20.9476 9.78699 21.04 9.71281 21.1186C9.63863 21.1971 9.54968 21.2603 9.45105 21.3043C9.34986 21.3481 9.24065 21.3703 9.1304 21.3696V21.3696Z" fill="#23272B"/>
<path d="M45.413 61.0217C45.2566 61.021 45.1037 60.9753 44.9725 60.89C44.8414 60.8048 44.7375 60.6836 44.6733 60.5409C44.6091 60.3983 44.5874 60.2401 44.6106 60.0854C44.6338 59.9307 44.7011 59.786 44.8043 59.6685C48.3066 55.738 50.4471 50.7823 50.9076 45.538C50.9511 45.0652 50.9783 44.5598 50.9891 44.038C51.1579 39.0917 49.8095 34.2122 47.125 30.0543C47.0075 29.8727 46.967 29.6519 47.0124 29.4404C47.0577 29.2289 47.1852 29.0441 47.3668 28.9266C47.5485 28.8091 47.7693 28.7686 47.9808 28.814C48.1923 28.8593 48.3771 28.9869 48.4946 29.1685C51.3589 33.6042 52.7983 38.8098 52.6196 44.087C52.6196 44.6304 52.5761 45.1739 52.5326 45.6902C52.0354 51.281 49.7483 56.5624 46.0109 60.75C45.9353 60.834 45.8432 60.9015 45.7403 60.9483C45.6374 60.995 45.526 61.02 45.413 61.0217V61.0217ZM4.92391 57.9891C4.78711 57.9878 4.65279 57.9523 4.5332 57.8859C4.4136 57.8194 4.31251 57.7242 4.23913 57.6087C1.023 52.6809 -0.432622 46.8105 0.108695 40.9511C0.168478 40.288 0.260869 39.5869 0.385869 38.875C0.859896 36.0349 1.80594 33.2941 3.18478 30.7663L3.29891 30.5598C3.67479 29.8737 4.0866 29.2079 4.53261 28.5652V28.5652L4.57609 28.5C5.3509 27.3632 6.21408 26.2892 7.15761 25.288C7.23045 25.2076 7.31861 25.1426 7.41693 25.0967C7.51524 25.0508 7.62173 25.0249 7.73015 25.0207C7.83857 25.0165 7.94674 25.034 8.04832 25.0721C8.1499 25.1103 8.24285 25.1683 8.32171 25.2428C8.40057 25.3173 8.46377 25.4068 8.50758 25.5061C8.5514 25.6054 8.57497 25.7124 8.57689 25.8209C8.57882 25.9293 8.55907 26.0371 8.5188 26.1379C8.47853 26.2386 8.41856 26.3303 8.34239 26.4076C7.45559 27.349 6.64506 28.3594 5.91848 29.4293V29.4293L5.86957 29.5054C5.45767 30.0995 5.07673 30.7145 4.72826 31.3478L4.61413 31.5543C3.3239 33.9157 2.43845 36.4765 1.99456 39.1304C1.875 39.8043 1.78804 40.4619 1.7337 41.0815C1.21952 46.5817 2.58556 52.0938 5.6087 56.7174C5.72565 56.8984 5.76615 57.1184 5.72134 57.3292C5.67653 57.5401 5.55005 57.7246 5.36957 57.8424C5.23778 57.9322 5.08331 57.9831 4.92391 57.9891Z" fill="#23272B"/>
<path d="M45.6795 27.6576C45.6784 27.8115 45.723 27.9623 45.8078 28.0909C45.8925 28.2194 46.0135 28.3198 46.1554 28.3795C46.2973 28.4391 46.4538 28.4553 46.6049 28.4259C46.756 28.3966 46.895 28.323 47.0042 28.2145C47.1135 28.106 47.188 27.9676 47.2185 27.8167C47.2489 27.6658 47.2338 27.5092 47.1752 27.3669C47.1165 27.2246 47.0169 27.1029 46.889 27.0172C46.761 26.9316 46.6106 26.8859 46.4566 26.8859C46.3548 26.8852 46.2539 26.9046 46.1596 26.943C46.0654 26.9815 45.9797 27.0382 45.9074 27.11C45.8352 27.1817 45.7778 27.267 45.7387 27.361C45.6996 27.455 45.6795 27.5558 45.6795 27.6576V27.6576Z" fill="#23272B"/>
<path d="M5.6902 59.2391C5.68913 59.3931 5.73379 59.5438 5.81853 59.6724C5.90327 59.8009 6.02427 59.9013 6.16618 59.961C6.30809 60.0207 6.46453 60.0368 6.61564 60.0075C6.76675 59.9781 6.90574 59.9045 7.01497 59.796C7.12421 59.6876 7.19877 59.5491 7.2292 59.3982C7.25963 59.2473 7.24456 59.0907 7.1859 58.9484C7.12724 58.8061 7.02763 58.6844 6.89971 58.5987C6.77179 58.5131 6.62132 58.4674 6.46738 58.4674C6.2622 58.4674 6.06534 58.5485 5.91975 58.6931C5.77415 58.8377 5.69164 59.0339 5.6902 59.2391Z" fill="#23272B"/>
<path d="M26.3207 31.9837C26.2058 31.9838 26.0922 31.9597 25.9873 31.9129C25.8824 31.8661 25.7886 31.7976 25.712 31.712C25.2555 31.1957 14.4565 19.0217 14.4565 11.8641C14.4565 4.98913 19.4457 0 26.3207 0C33.1957 0 38.1902 4.98913 38.1902 11.8641C38.1902 19.0217 27.3913 31.1957 26.9294 31.712C26.853 31.7979 26.7592 31.8665 26.6543 31.9134C26.5493 31.9602 26.4356 31.9842 26.3207 31.9837V31.9837ZM26.3207 1.63043C20.3913 1.63043 16.087 5.93478 16.087 11.8641C16.087 17.4837 24.0326 27.2337 26.3207 29.9239C28.6087 27.2065 36.5598 17.4728 36.5598 11.8641C36.5598 5.93478 32.25 1.63043 26.3207 1.63043ZM26.3207 16.9565C25.3421 16.9576 24.3851 16.6683 23.571 16.1253C22.7568 15.5823 22.1221 14.8099 21.7471 13.906C21.3721 13.0021 21.2737 12.0072 21.4644 11.0474C21.655 10.0875 22.1261 9.20576 22.8181 8.51377C23.5101 7.82178 24.3919 7.35064 25.3517 7.15999C26.3116 6.96933 27.3064 7.06773 28.2104 7.44273C29.1143 7.81772 29.8866 8.45246 30.4297 9.2666C30.9727 10.0807 31.262 11.0377 31.2609 12.0163C31.2595 13.3261 30.7385 14.5818 29.8123 15.508C28.8862 16.4341 27.6305 16.9551 26.3207 16.9565V16.9565ZM26.3207 8.70109C25.6648 8.70001 25.0233 8.89353 24.4774 9.25716C23.9315 9.62078 23.5057 10.1382 23.2539 10.7439C23.0022 11.3495 22.9358 12.0163 23.0631 12.6597C23.1904 13.3032 23.5057 13.8944 23.9691 14.3586C24.4325 14.8228 25.0232 15.1391 25.6665 15.2674C26.3097 15.3958 26.9766 15.3304 27.5827 15.0797C28.1888 14.8289 28.7068 14.404 29.0714 13.8587C29.4359 13.3134 29.6305 12.6722 29.6305 12.0163C29.6312 11.5809 29.5461 11.1497 29.3802 10.7472C29.2142 10.3447 28.9706 9.97885 28.6633 9.6705C28.356 9.36215 27.9909 9.11735 27.5889 8.95009C27.187 8.78282 26.756 8.69637 26.3207 8.69565V8.70109Z" fill="#23272B"/>
<path d="M26.3207 65C20.5728 64.9942 15.0619 62.7083 10.9974 58.6439C6.93303 54.5795 4.64711 49.0686 4.64136 43.3207C4.64136 42.7446 4.64136 42.1739 4.71201 41.625C4.88994 39.2233 5.47433 36.8692 6.44027 34.663V34.625C6.71098 34.0028 7.01392 33.3951 7.34788 32.8043V32.8043C8.7749 30.2276 10.7174 27.9724 13.0544 26.1793C13.2501 26.0435 13.4131 25.9185 13.5979 25.7989L14.1414 25.4239C15.0736 24.7857 16.0549 24.2224 17.0761 23.7391C17.1735 23.6878 17.2803 23.6567 17.39 23.6477C17.4997 23.6387 17.6101 23.652 17.7145 23.6869C17.8189 23.7217 17.9152 23.7774 17.9976 23.8504C18.0799 23.9235 18.1466 24.0125 18.1936 24.112C18.2406 24.2116 18.267 24.3196 18.2711 24.4296C18.2752 24.5396 18.2571 24.6493 18.2176 24.7521C18.1782 24.8549 18.1184 24.9486 18.0418 25.0276C17.9651 25.1067 17.8733 25.1694 17.7718 25.212C16.8274 25.6574 15.9189 26.1753 15.0544 26.7609L14.5707 27.1141L14.0272 27.4891C11.8826 29.1418 10.098 31.215 8.78266 33.5815V33.6141C8.46964 34.1673 8.18662 34.737 7.93484 35.3207V35.3641C7.04756 37.3988 6.511 39.5689 6.34788 41.7826C6.3044 42.2971 6.28266 42.8188 6.28266 43.3478C6.28266 48.6651 8.39495 53.7646 12.1549 57.5245C15.9148 61.2844 21.0143 63.3967 26.3316 63.3967C31.6489 63.3967 36.7484 61.2844 40.5083 57.5245C44.2682 53.7646 46.3805 48.6651 46.3805 43.3478C46.3805 42.9348 46.3805 42.538 46.337 42.125C46.0959 37.7032 44.3729 33.4914 41.4457 30.1685C39.6382 28.0842 37.4174 26.3982 34.924 25.2174C34.7279 25.1251 34.5766 24.9588 34.5032 24.755C34.4298 24.5511 34.4404 24.3265 34.5327 24.1304C34.6249 23.9344 34.7913 23.783 34.9951 23.7097C35.1989 23.6363 35.4236 23.6469 35.6196 23.7391C38.3193 25.0161 40.725 26.8389 42.6848 29.0924C45.8574 32.6814 47.7297 37.2337 48.0001 42.0163C48.0272 42.4565 48.0435 42.8967 48.0435 43.3478C48.0306 49.0986 45.7355 54.6091 41.6625 58.6689C37.5894 62.7287 32.0715 65.0058 26.3207 65V65Z" fill="#23272B"/>
</svg>
