<svg aria-hidden="true" class="icon icon--naturalization" version="1.1" id="Layer_1" xmlns="http://www.w3.org/2000/svg" width="70" height="68" viewBox="0 0 70.2 67.7" xml:space="preserve"><style>.st0{fill:#23272b}.st1{fill:#c88b66}</style><g id="Layer_2_00000022547871212105763420000007620185906784449163_"><g id="Layer_1-2"><path class="st0" d="M48 29.8H37.2c-.5 0-.9-.4-.9-.9s.4-.9.9-.9H48c.5 0 .9.4.9.9s-.4.9-.9.9zm-1.1-13.2H33.7c-.5 0-.9-.4-.9-.9s.4-.9.9-.9h13.1c.5 0 .9.4.9.9 0 .6-.3.9-.8.9zm0 6.9h-6.3c-.5 0-.9-.4-.9-.9s.4-.9.9-.9h6.3c.5 0 .9.4.9.9s-.4.9-.9.9zm0 13.1H35.4c-.5 0-.9-.4-.9-.9s.4-.9.9-.9h11.4c.5 0 .9.4.9.9s-.3.9-.8.9zm-12.6 6.9h-4c-.5 0-.9-.4-.9-.9s.4-.9.9-.9h4c.5 0 .9.4.9.9s-.4.9-.9.9zm-1.7 6.9H20c-.5 0-.9-.4-.9-.9s.4-.9.9-.9h12.6c.5 0 .9.4.9.9-.1.5-.4.9-.9.9z"/><path class="st1" d="M45.1 40.9c.4.5 1.1.8 1.8.6.9-.3 1.9.3 2.1 1.2 0 .1.1.3.1.4 0 .7.5 1.3 1.1 1.5.9.3 1.3 1.3 1 2.2 0 .1-.1.3-.2.4-.4.6-.4 1.3 0 1.9.5.8.3 1.9-.5 2.4-.1.1-.3.1-.4.2-.7.2-1.1.8-1.1 1.5 0 .9-.8 1.7-1.8 1.7-.1 0-.3 0-.4-.1-.7-.2-1.4 0-1.8.6-.6.7-1.7.9-2.4.3l-.3-.3c-.4-.5-1.1-.8-1.8-.6-.9.3-1.9-.3-2.1-1.2 0-.1-.1-.3-.1-.4 0-.7-.5-1.3-1.1-1.5-.9-.3-1.3-1.3-1-2.2 0-.1.1-.3.2-.4.4-.6.4-1.3 0-1.9-.5-.8-.3-1.9.5-2.4.1-.1.2-.1.4-.2.7-.2 1.1-.8 1.1-1.5 0-.9.8-1.7 1.8-1.7.1 0 .3 0 .4.1.7.2 1.4 0 1.8-.6.6-.8 1.6-.9 2.4-.3l.3.3z"/><path d="M43.7 53.6c-3 0-5.5-2.4-5.5-5.5 0-3 2.4-5.5 5.5-5.5 3 0 5.5 2.4 5.5 5.5s-2.4 5.5-5.5 5.5zm0-9.2c-2.1 0-3.8 1.7-3.8 3.8s1.7 3.8 3.8 3.8c2.1 0 3.8-1.7 3.8-3.8 0-2.1-1.7-3.8-3.8-3.8z" fill="#fff"/><path class="st1" d="M62.9 24.9h3.4v30.3h-3.4z"/><path class="st0" d="M66.3 56.1h-3.4c-.5 0-.9-.4-.9-.9V24.9c0-.5.4-.9.9-.9h3.4c.5 0 .9.4.9.9v30.3c0 .5-.4.9-.9.9zm-2.6-1.7h1.7V25.8h-1.7v28.6z"/><path class="st0" d="M66.3 25.8h-3.4c-.5 0-.9-.4-.9-.9v-2.3c0-.5.4-.9.9-.9h3.4c.5 0 .9.4.9.9v2.3c0 .5-.4.9-.9.9zm-2.6-1.7h1.7v-.6h-1.7v.6zm.9 37.6c-.4 0-.7-.2-.8-.6l-1.7-5.6c-.1-.5.1-.9.6-1.1h3.6c.3 0 .5.1.7.3.2.2.2.5.1.8l-1.7 5.6c-.1.3-.4.6-.8.6zm-.6-5.6l.6 1.8.6-1.8H64z"/><path class="st0" d="M64.6 64.1c-.5 0-.9-.4-.9-.9v-2.9c0-.5.4-.9.9-.9s.9.4.9.9v2.9c0 .5-.4.9-.9.9zm-4-24.6c-.2 0-.4-.1-.5-.2-.4-.3-.5-.8-.2-1.2.4-.5.7-1.1.7-1.8.1-.8-.3-1.3-.8-2.1-.6-.9-1.1-1.9-1.3-2.9-.2-1.1-.6-3.9 1.2-5.7.9-.8 2-1.3 3.2-1.4.5 0 .9.3.9.8s-.3.9-.8.9c-.8 0-1.5.3-2.1.9-1.2 1.2-.9 3.5-.7 4.1.2.9.6 1.7 1.1 2.4.7.9 1.1 2 1 3.1-.1 1-.5 1.9-1.1 2.7-.1.3-.3.4-.6.4zM14.3 60.1c-.5 0-.9-.4-.9-.9v-.3c.9-3.3 1.1-8 .6-14.3v-.4c0-.5.4-.9.9-.9s.9.4.9.9v.3c.6 6.5.3 11.3-.6 14.8-.2.5-.5.8-.9.8zm34.1 6.2h-40c-.5 0-.9-.4-.9-.9s.4-.9.9-.9h40c.5 0 .9.4.9.9s-.4.9-.9.9z"/><path class="st0" d="M44 60.1H4c-.5 0-.9-.4-.9-.9s.4-.9.9-.9h40c.5 0 .9.4.9.9s-.4.9-.9.9z"/><path class="st0" d="M8.8 66.3c-.8 0-1.5-.1-2.2-.4-2.6-1.2-4-4.1-3.4-6.9.1-.5.5-.8 1-.7s.8.5.7 1v.1c-.4 2 .6 4 2.4 4.9.5.2 1 .3 1.6.3.5 0 .9.4.9.9s-.5.8-1 .8zm3.7-51h-.1c-.5-.1-.8-.5-.7-1 .1-1.1.3-2.1.6-3.1v-.1c1.1-4.1 3.3-6.3 6.4-6.5h40.2c.5 0 .9.4.9.9s-.4.9-.9.9H18.8c-2.3.1-3.9 1.8-4.8 5.1v.1c-.3 1-.4 2-.6 3 0 .3-.4.7-.9.7zm2.4 30.5c-.1 0-.2 0-.3-.1-.1 0-.2-.1-.3-.2-.2-.2-.3-.4-.3-.6 0-.2.1-.4.3-.6.3-.3.9-.3 1.2 0 .2.2.3.4.3.6 0 .2-.1.4-.3.6-.2.2-.4.3-.6.3zm33.7 20.5c-.5 0-.9-.4-.9-.8 0-.5.4-.9.8-.9 2.3-.1 3.9-2 4.8-5.4s1.1-8.3.6-14.5v-.1c-.2-2.3-.5-4.7-.8-7l-.1-.5c.1-.3 0-.7 0-1.1l-.1-.4-.1-.7c-.1-.5.3-.9.7-1 .5-.1.9.3 1 .7 0 .2.1.5.1.7l.1.4c.1.4.1.7.2 1.1l.1.5c.4 2.3.7 4.8.9 7.1v.1c.6 6.4.3 11.4-.7 15-1.5 5.4-4.4 6.7-6.6 6.8z"/><path class="st0" d="M48.5 66.3c-.7 0-1.3-.2-1.9-.4-2.5-1.2-3.9-4-3.2-6.7.1-.5.6-.8 1-.6.5.1.8.6.6 1-.5 1.9.4 3.9 2.2 4.7.4.2.9.3 1.3.3.5 0 .9.4.8.9.1.5-.3.8-.8.8zm6.4-20.5c-.2 0-.4-.1-.6-.3-.2-.2-.3-.4-.3-.6 0-.2.1-.4.3-.6.3-.3.9-.3 1.2 0 .2.2.3.4.3.6 0 .2-.1.4-.3.6-.2.2-.4.3-.6.3zM64 12.1H53.2c-.5 0-.9-.4-.9-.9s.4-.9.9-.9H64c.5 0 .9.4.9.9s-.4.9-.9.9z"/><path class="st0" d="M53.8 36.9c-.4 0-.8-.3-.8-.7l-.1-.4c0-.2-.1-.5-.1-.7-.1-.3-.1-.7-.2-1.1l-.1-.5c-.4-2.4-.7-4.9-.9-7.2-.6-6.4-.3-11.4.6-15v-.1c1.1-4.1 3.3-6.3 6.4-6.5h.6c.6 0 1.3.2 1.9.4 2.5 1.1 3.9 3.8 3.3 6.5-.1.5-.5.8-1 .7-.5-.1-.8-.5-.7-1v-.1c.5-1.8-.5-3.8-2.2-4.5-.4-.2-.8-.3-1.3-.3h-.5c-2.3.1-3.9 1.8-4.8 5.1v.1c-.9 3.4-1.1 8.2-.6 14.5.2 2.3.5 4.8.8 7.1l.1.5c.1.4.1.7.2 1.1 0 .2.1.5.1.7l.1.4c.1.5-.2.9-.7 1h-.1zm-35.3 9.2c-.3 0-.6 0-.8-.1l-1.8-.6h-.1c-5.1-2-8.3-6.1-9.5-7.8-3.8-5.8-4-14.3-.5-21.7l1-1.9c.2-.4.6-.5.9-.5l2 .4c1.2.2 2.4.2 3.6 0 1.2-.2 2.3-.7 3.3-1.4l1.5-1c.3-.2.7-.2 1 0l1.5 1c1 .7 2.1 1.1 3.3 1.4 1.2.2 2.4.2 3.6 0l2-.4c.4-.1.8.1.9.5l.9 1.8c3.6 7.4 3.4 16-.5 21.7-1.1 1.7-4.3 5.9-9.5 7.8l-2 .7c-.2.1-.5.1-.8.1zm-2.1-2.3l1.8.6c.2.1.5.1.7 0l1.8-.6c4.6-1.8 7.5-5.6 8.6-7.2 3.5-5.3 3.6-13.1.3-20l-.6-1.2-1.3.2c-1.4.3-2.9.3-4.3 0s-2.7-.8-3.9-1.6l-1-.6-1 .7c-1.2.8-2.5 1.3-3.9 1.6-1.4.3-2.9.3-4.3 0L8 15.4l-.6 1.2c-3.3 6.9-3.2 14.8.3 20 1.1 1.6 4 5.4 8.7 7.2z"/><path d="M28 17.4c-3.3.7-6.7 0-9.5-1.9-1.4.9-2.9 1.6-4.5 1.9-1.6.3-3.3.3-5 0-3.1 6.5-2.9 13.6.2 18.2.5.8 3.8 5.6 9.3 7 5.5-1.4 8.7-6.2 9.3-7 3.1-4.6 3.3-11.7.2-18.2z" fill="#a7a7a7"/><path class="st0" d="M10.1 11.4h-.2c-.4-.1-.7-.6-.6-1.1 2-7.4 6.8-8.8 9.4-8.9h.2c.5 0 .9.4.9.9s-.4.9-.9.9h-.1c-2.2.1-6.2 1.3-7.9 7.7-.1.2-.4.5-.8.5zm8.4 21.1c-2.3 0-4.2-1.9-4.2-4.2s1.9-4.2 4.2-4.2c2.3 0 4.2 1.9 4.2 4.2 0 2.3-1.9 4.2-4.2 4.2zm0-6.7c-1.4 0-2.5 1.1-2.5 2.5s1.1 2.5 2.5 2.5 2.5-1.1 2.5-2.5-1.1-2.5-2.5-2.5z"/><path class="st0" d="M18.3 25.8c-.5 0-.9-.4-.9-.9v-4c0-.5.4-.9.9-.9s.9.4.9.9v4c0 .5-.4.9-.9.9zm0 10.8c-.5 0-.9-.4-.9-.9v-4c0-.5.4-.9.9-.9s.9.4.9.9v4c0 .6-.4.9-.9.9z"/><path class="st0" d="M18.3 25.8c-.5 0-.9-.4-.9-.9v-4c0-.5.4-.9.9-.9s.9.4.9.9v4c0 .5-.4.9-.9.9zm0 10.8c-.5 0-.9-.4-.9-.9v-4c0-.5.4-.9.9-.9s.9.4.9.9v4c0 .6-.4.9-.9.9zm-2.8-9c-.1 0-.3 0-.4-.1l-3.7-1.9c-.4-.2-.6-.7-.4-1.2.2-.4.7-.6 1.2-.4l3.7 1.9c.4.2.6.7.4 1.2-.2.3-.5.5-.8.5zm9.7 5c-.1 0-.3 0-.4-.1l-3.7-1.9c-.4-.2-.6-.7-.4-1.2s.7-.6 1.2-.4l3.7 1.9c.4.2.6.7.4 1.1-.1.4-.4.6-.8.6zm-3.7-5c-.5 0-.9-.4-.9-.8 0-.3.2-.6.5-.8l3.7-1.9c.4-.2.9-.1 1.2.4.2.4.1.9-.4 1.2l-3.7 1.9h-.4zm-9.7 5c-.3 0-.6-.2-.7-.5-.2-.4 0-.9.4-1.1l3.7-1.9c.4-.2.9 0 1.2.4.2.4 0 .9-.4 1.2l-3.7 1.9h-.5zm-2.2 13c-.2 0-.4-.1-.5-.2-2.1-1.7-4-3.7-5.5-6-.2-.4 0-.9.4-1.1.4-.2.8-.1 1 .2 1.4 2.1 3.1 4 5.1 5.6.4.3.4.8.1 1.2-.1.2-.3.3-.6.3z"/></g></g></svg>
