<svg aria-hidden="true" class="icon icon--opinions" width="64" height="65" viewBox="0 0 64 65" fill="none" xmlns="http://www.w3.org/2000/svg">
<g clip-path="url(#clip0_216_142)">
<path d="M29.4801 30.1991H26.604V17.5443L29.4801 18.6947V30.1991Z" fill="#A7A7A7"/>
<path d="M29.4801 7.19026H26.604V12.9425H29.4801V7.19026Z" fill="#A7A7A7"/>
<path d="M27.7544 28.042C25.0378 28.0273 22.4055 27.0974 20.2826 25.4024C18.1597 23.7074 16.6701 21.3463 16.0544 18.7004C16.0046 18.4762 16.0456 18.2414 16.1685 18.0474C16.2914 17.8533 16.4861 17.7159 16.7101 17.665C16.8208 17.6404 16.9352 17.6379 17.0469 17.6575C17.1585 17.6772 17.2652 17.7186 17.3608 17.7795C17.4564 17.8404 17.5391 17.9196 17.6042 18.0125C17.6692 18.1053 17.7153 18.2101 17.7398 18.3208C18.2563 20.5914 19.529 22.6191 21.349 24.0716C23.1691 25.5241 25.4286 26.3152 27.7572 26.3152C30.0858 26.3152 32.3454 25.5241 34.1655 24.0716C35.9855 22.6191 37.2581 20.5914 37.7747 18.3208C37.7932 18.2042 37.8354 18.0927 37.8987 17.9931C37.962 17.8935 38.0451 17.8079 38.1428 17.7417C38.2405 17.6755 38.3508 17.63 38.4668 17.6081C38.5828 17.5862 38.702 17.5883 38.8171 17.6143C38.9323 17.6403 39.0408 17.6897 39.1361 17.7594C39.2314 17.829 39.3114 17.9175 39.3711 18.0193C39.4308 18.1211 39.469 18.2341 39.4834 18.3512C39.4977 18.4684 39.4878 18.5872 39.4544 18.7004C38.8386 21.3463 37.349 23.7074 35.2261 25.4024C33.1032 27.0974 30.4709 28.0273 27.7544 28.042V28.042Z" fill="#23272B"/>
<path d="M26.3164 14.6681C26.0876 14.6681 25.8681 14.5772 25.7063 14.4154C25.5445 14.2536 25.4536 14.0341 25.4536 13.8053V6.90266C25.4536 6.67382 25.5445 6.45436 25.7063 6.29254C25.8681 6.13073 26.0876 6.03983 26.3164 6.03983C26.5453 6.03983 26.7647 6.13073 26.9266 6.29254C27.0884 6.45436 27.1793 6.67382 27.1793 6.90266V13.8053C27.1793 14.0341 27.0884 14.2536 26.9266 14.4154C26.7647 14.5772 26.5453 14.6681 26.3164 14.6681Z" fill="#23272B"/>
<path d="M29.7676 14.6681C29.5388 14.6681 29.3193 14.5772 29.1575 14.4154C28.9957 14.2536 28.9048 14.0341 28.9048 13.8053V6.90266C28.9048 6.67382 28.9957 6.45436 29.1575 6.29254C29.3193 6.13073 29.5388 6.03983 29.7676 6.03983C29.9965 6.03983 30.2159 6.13073 30.3777 6.29254C30.5395 6.45436 30.6304 6.67382 30.6304 6.90266V13.8053C30.6304 14.0341 30.5395 14.2536 30.3777 14.4154C30.2159 14.5772 29.9965 14.6681 29.7676 14.6681Z" fill="#23272B"/>
<path d="M26.3164 30.1991C26.0876 30.1991 25.8681 30.1082 25.7063 29.9464C25.5445 29.7846 25.4536 29.5651 25.4536 29.3363V18.4071C25.4536 18.1782 25.5445 17.9588 25.7063 17.797C25.8681 17.6352 26.0876 17.5443 26.3164 17.5443C26.5453 17.5443 26.7647 17.6352 26.9266 17.797C27.0884 17.9588 27.1793 18.1782 27.1793 18.4071V29.3363C27.1793 29.5651 27.0884 29.7846 26.9266 29.9464C26.7647 30.1082 26.5453 30.1991 26.3164 30.1991Z" fill="#23272B"/>
<path d="M29.7676 30.1991C29.5388 30.1991 29.3193 30.1082 29.1575 29.9464C28.9957 29.7846 28.9048 29.5651 28.9048 29.3363V18.4071C28.9048 18.1782 28.9957 17.9588 29.1575 17.797C29.3193 17.6352 29.5388 17.5443 29.7676 17.5443C29.9965 17.5443 30.2159 17.6352 30.3777 17.797C30.5395 17.9588 30.6304 18.1782 30.6304 18.4071V29.3363C30.6304 29.5651 30.5395 29.7846 30.3777 29.9464C30.2159 30.1082 29.9965 30.1991 29.7676 30.1991Z" fill="#23272B"/>
<path d="M27.881 8.0531C27.0847 8.0531 26.3062 7.81695 25.644 7.3745C24.9818 6.93206 24.4658 6.3032 24.161 5.56744C23.8562 4.83169 23.7765 4.02208 23.9319 3.24101C24.0872 2.45994 24.4707 1.74247 25.0338 1.17935C25.597 0.616228 26.3144 0.232736 27.0955 0.0773708C27.8766 -0.0779945 28.6862 0.00174467 29.4219 0.306505C30.1577 0.611265 30.7866 1.12736 31.229 1.78952C31.6714 2.45168 31.9076 3.23017 31.9076 4.02655C31.9076 5.09446 31.4834 6.11863 30.7282 6.87375C29.9731 7.62887 28.9489 8.0531 27.881 8.0531V8.0531ZM27.881 1.72567C27.426 1.72567 26.9811 1.86061 26.6027 2.11343C26.2244 2.36626 25.9295 2.72561 25.7553 3.14604C25.5812 3.56647 25.5356 4.0291 25.6244 4.47543C25.7131 4.92176 25.9323 5.33174 26.2541 5.65352C26.5759 5.97531 26.9858 6.19444 27.4322 6.28322C27.8785 6.372 28.3411 6.32644 28.7616 6.15229C29.182 5.97814 29.5413 5.68323 29.7942 5.30485C30.047 4.92647 30.1819 4.48162 30.1819 4.02655C30.1819 3.41632 29.9395 2.83108 29.508 2.39958C29.0765 1.96808 28.4913 1.72567 27.881 1.72567Z" fill="#23272B"/>
<path d="M13.673 19.8912C12.263 19.9116 10.868 19.6002 9.60044 18.9823C8.15933 18.2053 6.90802 17.119 5.93627 15.8013C5.8698 15.7096 5.82205 15.6056 5.79576 15.4953C5.76947 15.3851 5.76515 15.2708 5.78304 15.1589C5.80094 15.047 5.8407 14.9397 5.90005 14.8432C5.95941 14.7466 6.03719 14.6627 6.12897 14.5962C6.22075 14.5298 6.32473 14.482 6.43496 14.4557C6.54519 14.4294 6.65953 14.4251 6.77143 14.443C6.88333 14.4609 6.99061 14.5007 7.08715 14.56C7.18369 14.6194 7.26759 14.6972 7.33406 14.7889C8.13991 15.8707 9.17007 16.7655 10.354 17.412C12.0686 18.2227 14.0155 18.398 15.8473 17.9066C16.836 17.6846 17.7707 17.2682 18.5969 16.6814C19.4977 16.0458 20.4964 15.562 21.5535 15.2491C22.5856 14.9418 23.6577 14.7905 24.7345 14.8005C24.848 14.8012 24.9603 14.8245 25.0648 14.869C25.1692 14.9135 25.2638 14.9783 25.343 15.0596C25.4222 15.1409 25.4845 15.2372 25.5261 15.3428C25.5678 15.4484 25.5881 15.5613 25.5858 15.6748C25.58 15.8987 25.4885 16.1119 25.33 16.2703C25.1716 16.4287 24.9585 16.5203 24.7345 16.5261C23.8322 16.5075 22.9323 16.6258 22.0655 16.877C21.168 17.1424 20.3205 17.5544 19.5575 18.0965C18.5726 18.8066 17.456 19.3131 16.273 19.5863C15.4209 19.7874 14.5485 19.8897 13.673 19.8912V19.8912Z" fill="#23272B"/>
<path d="M41.8415 19.8912C40.9718 19.8887 40.1052 19.7864 39.2588 19.5863C38.0757 19.313 36.9591 18.8066 35.9743 18.0965C35.2134 17.5578 34.3704 17.146 33.4778 16.877C32.609 16.6258 31.7072 16.5075 30.803 16.5261C30.5742 16.5261 30.3547 16.4352 30.1929 16.2734C30.0311 16.1116 29.9402 15.8921 29.9402 15.6633C29.9402 15.4344 30.0311 15.215 30.1929 15.0532C30.3547 14.8914 30.5742 14.8004 30.803 14.8004C31.876 14.7827 32.9457 14.9222 33.9782 15.2146C35.0291 15.5415 36.0198 16.0369 36.9119 16.6814C37.7321 17.2774 38.6629 17.7037 39.6499 17.9354C41.4818 18.4268 43.4287 18.2515 45.1433 17.4407C46.3991 16.8002 47.4495 15.8195 48.1747 14.6106C48.2337 14.513 48.3115 14.428 48.4036 14.3606C48.4957 14.2932 48.6003 14.2448 48.7112 14.2181C48.8221 14.1914 48.9373 14.1869 49.05 14.205C49.1626 14.2231 49.2706 14.2634 49.3676 14.3235C49.4646 14.3836 49.5487 14.4623 49.6151 14.5552C49.6814 14.648 49.7287 14.7531 49.7542 14.8643C49.7797 14.9755 49.7828 15.0907 49.7635 15.2032C49.7441 15.3156 49.7027 15.4231 49.6415 15.5195C48.7429 16.9931 47.4524 18.188 45.9141 18.9708C44.6475 19.5927 43.2524 19.908 41.8415 19.8912V19.8912Z" fill="#23272B"/>
<path d="M28.0421 19.2124C27.3595 19.2124 26.6923 19.01 26.1247 18.6307C25.5571 18.2515 25.1148 17.7125 24.8535 17.0818C24.5923 16.4512 24.524 15.7572 24.6571 15.0877C24.7903 14.4182 25.119 13.8033 25.6017 13.3206C26.0844 12.8379 26.6993 12.5092 27.3688 12.376C28.0383 12.2429 28.7323 12.3112 29.3629 12.5724C29.9936 12.8337 30.5326 13.276 30.9118 13.8436C31.2911 14.4112 31.4935 15.0784 31.4935 15.7611C31.4935 16.6764 31.1299 17.5543 30.4826 18.2015C29.8354 18.8488 28.9575 19.2124 28.0421 19.2124V19.2124ZM28.0421 14.0354C27.7008 14.0354 27.3672 14.1366 27.0834 14.3262C26.7996 14.5158 26.5785 14.7853 26.4478 15.1007C26.3172 15.416 26.2831 15.763 26.3496 16.0977C26.4162 16.4325 26.5806 16.7399 26.8219 16.9813C27.0633 17.2226 27.3707 17.387 27.7055 17.4536C28.0402 17.5201 28.3872 17.486 28.7025 17.3554C29.0179 17.2247 29.2874 17.0036 29.477 16.7198C29.6666 16.436 29.7678 16.1024 29.7678 15.7611C29.7678 15.3034 29.586 14.8644 29.2624 14.5408C28.9388 14.2172 28.4998 14.0354 28.0421 14.0354Z" fill="#23272B"/>
<path d="M5.86145 15.9739C5.34949 15.9739 4.84903 15.8221 4.42335 15.5376C3.99768 15.2532 3.6659 14.8489 3.46999 14.376C3.27407 13.903 3.22281 13.3825 3.32269 12.8804C3.42257 12.3783 3.6691 11.9171 4.0311 11.555C4.39311 11.193 4.85434 10.9465 5.35646 10.8466C5.85857 10.7468 6.37903 10.798 6.85202 10.9939C7.32501 11.1898 7.72927 11.5216 8.0137 11.9473C8.29813 12.373 8.44994 12.8734 8.44994 13.3854C8.44842 14.0714 8.17522 14.7289 7.69011 15.2141C7.205 15.6992 6.54749 15.9724 5.86145 15.9739V15.9739ZM5.86145 12.5226C5.69079 12.5226 5.52397 12.5732 5.38208 12.668C5.24019 12.7628 5.1296 12.8975 5.06429 13.0552C4.99899 13.2129 4.9819 13.3863 5.01519 13.5537C5.04849 13.7211 5.13066 13.8748 5.25133 13.9955C5.372 14.1162 5.52574 14.1983 5.69312 14.2316C5.86049 14.2649 6.03397 14.2478 6.19164 14.1825C6.3493 14.1172 6.48405 14.0066 6.57886 13.8648C6.67367 13.7229 6.72428 13.556 6.72428 13.3854C6.72428 13.1566 6.63337 12.9371 6.47156 12.7753C6.30975 12.6135 6.09028 12.5226 5.86145 12.5226V12.5226Z" fill="#23272B"/>
<path d="M49.7279 15.9739C49.2159 15.9739 48.7155 15.8221 48.2898 15.5376C47.8641 15.2532 47.5324 14.8489 47.3364 14.376C47.1405 13.903 47.0893 13.3825 47.1891 12.8804C47.289 12.3783 47.5356 11.9171 47.8976 11.555C48.2596 11.193 48.7208 10.9465 49.2229 10.8466C49.725 10.7468 50.2455 10.798 50.7185 10.9939C51.1915 11.1898 51.5957 11.5216 51.8802 11.9473C52.1646 12.373 52.3164 12.8734 52.3164 13.3854C52.3149 14.0714 52.0417 14.7289 51.5566 15.2141C51.0715 15.6992 50.4139 15.9724 49.7279 15.9739V15.9739ZM49.7279 12.5226C49.5572 12.5226 49.3904 12.5732 49.2485 12.668C49.1066 12.7628 48.9961 12.8975 48.9307 13.0552C48.8654 13.2129 48.8484 13.3863 48.8816 13.5537C48.9149 13.7211 48.9971 13.8748 49.1178 13.9955C49.2385 14.1162 49.3922 14.1983 49.5596 14.2316C49.7269 14.2649 49.9004 14.2478 50.0581 14.1825C50.2158 14.1172 50.3505 14.0066 50.4453 13.8648C50.5401 13.7229 50.5907 13.556 50.5907 13.3854C50.5907 13.1566 50.4998 12.9371 50.338 12.7753C50.1762 12.6135 49.9567 12.5226 49.7279 12.5226V12.5226Z" fill="#23272B"/>
<path d="M43.3832 30.0668C43.2152 30.0684 43.0506 30.0206 42.9096 29.9294C42.7686 29.8382 42.6575 29.7076 42.5901 29.5538C42.5227 29.4 42.502 29.2298 42.5305 29.0643C42.559 28.8989 42.6355 28.7454 42.7504 28.623L45.8163 25.3097C45.8951 25.2247 45.9902 25.1565 46.096 25.109C46.2017 25.0616 46.3159 25.036 46.4318 25.0336C46.5486 25.0262 46.6656 25.0451 46.7741 25.0889C46.8826 25.1328 46.9799 25.2003 47.0588 25.2867L50.0845 28.3066C50.2447 28.4692 50.3345 28.6882 50.3345 28.9164C50.3345 29.1446 50.2447 29.3636 50.0845 29.5261C50.0048 29.6068 49.9098 29.6709 49.8051 29.7146C49.7005 29.7583 49.5882 29.7809 49.4747 29.7809C49.3613 29.7809 49.249 29.7583 49.1443 29.7146C49.0397 29.6709 48.9447 29.6068 48.865 29.5261L46.4778 27.1274L44.0216 29.7907C43.94 29.8783 43.8411 29.948 43.7312 29.9955C43.6214 30.043 43.5029 30.0673 43.3832 30.0668V30.0668Z" fill="#23272B"/>
<path d="M46.449 26.7478C46.2202 26.7478 46.0007 26.6569 45.8389 26.4951C45.6771 26.3333 45.5862 26.1138 45.5862 25.885V17.8319C45.5862 17.603 45.6771 17.3836 45.8389 17.2217C46.0007 17.0599 46.2202 16.969 46.449 16.969C46.6778 16.969 46.8973 17.0599 47.0591 17.2217C47.2209 17.3836 47.3118 17.603 47.3118 17.8319V25.885C47.3118 26.1138 47.2209 26.3333 47.0591 26.4951C46.8973 26.6569 46.6778 26.7478 46.449 26.7478Z" fill="#23272B"/>
<path d="M15.3872 34.2257C15.2684 34.2257 15.1509 34.2012 15.042 34.1537C14.9332 34.1061 14.8353 34.0367 14.7545 33.9496L8.46156 27.1274L1.61643 33.9726C1.53671 34.0533 1.44177 34.1173 1.3371 34.1611C1.23243 34.2048 1.12013 34.2273 1.00669 34.2273C0.893261 34.2273 0.780955 34.2048 0.676289 34.1611C0.571623 34.1173 0.476679 34.0533 0.39696 33.9726C0.236772 33.8101 0.146973 33.591 0.146973 33.3628C0.146973 33.1346 0.236772 32.9156 0.39696 32.7531L7.87484 25.2752C7.95402 25.1892 8.05136 25.1218 8.15981 25.078C8.26826 25.0342 8.38509 25.0151 8.50183 25.0221C8.61857 25.0243 8.73368 25.0499 8.84038 25.0973C8.94708 25.1447 9.0432 25.2131 9.12307 25.2982L16.0257 32.7761C16.1024 32.8596 16.1619 32.9573 16.2008 33.0638C16.2398 33.1702 16.2573 33.2833 16.2525 33.3966C16.2477 33.5098 16.2206 33.621 16.1728 33.7238C16.125 33.8266 16.0575 33.9189 15.974 33.9956C15.815 34.1445 15.605 34.2268 15.3872 34.2257V34.2257Z" fill="#23272B"/>
<path d="M8.28894 41.646C6.09204 41.6445 3.98547 40.7715 2.43149 39.2186C0.877504 37.6657 0.00304649 35.5597 0 33.3628C0 33.134 0.0909052 32.9145 0.252718 32.7527C0.41453 32.5909 0.633995 32.5 0.862832 32.5H15.7093C15.9381 32.5 16.1576 32.5909 16.3194 32.7527C16.4812 32.9145 16.5721 33.134 16.5721 33.3628C16.5691 35.5587 15.6954 37.6638 14.1427 39.2166C12.5899 40.7693 10.4848 41.643 8.28894 41.646V41.646ZM1.78319 34.2257C1.98839 35.8052 2.76151 37.2561 3.95817 38.3074C5.15483 39.3586 6.69322 39.9384 8.28606 39.9384C9.8789 39.9384 11.4173 39.3586 12.614 38.3074C13.8106 37.2561 14.5837 35.8052 14.7889 34.2257H1.78319Z" fill="#23272B"/>
<path d="M8.48441 26.7478C8.25558 26.7478 8.03611 26.6569 7.8743 26.4951C7.71249 26.3333 7.62158 26.1138 7.62158 25.885V17.8319C7.62158 17.603 7.71249 17.3836 7.8743 17.2217C8.03611 17.0599 8.25558 16.969 8.48441 16.969C8.71325 16.969 8.93272 17.0599 9.09453 17.2217C9.25634 17.3836 9.34725 17.603 9.34725 17.8319V25.885C9.34725 26.1138 9.25634 26.3333 9.09453 26.4951C8.93272 26.6569 8.71325 26.7478 8.48441 26.7478V26.7478Z" fill="#23272B"/>
<path d="M16.5375 58.9602H2.73222C2.50338 58.9602 2.28391 58.8693 2.1221 58.7075C1.96029 58.5456 1.86938 58.3262 1.86938 58.0973C1.86938 57.8685 1.96029 57.649 2.1221 57.4872C2.28391 57.3254 2.50338 57.2345 2.73222 57.2345H16.5375C16.7664 57.2345 16.9858 57.3254 17.1476 57.4872C17.3095 57.649 17.4004 57.8685 17.4004 58.0973C17.4004 58.3262 17.3095 58.5456 17.1476 58.7075C16.9858 58.8693 16.7664 58.9602 16.5375 58.9602V58.9602Z" fill="#23272B"/>
<path d="M9.05985 58.9602C8.83102 58.9602 8.61155 58.8693 8.44974 58.7075C8.28793 58.5456 8.19702 58.3262 8.19702 58.0973V57.315C8.19854 56.2262 8.63174 55.1825 9.40164 54.4126C10.1715 53.6427 11.2153 53.2095 12.3041 53.208H16.5377C16.7666 53.208 16.986 53.2989 17.1478 53.4607C17.3097 53.6225 17.4006 53.842 17.4006 54.0708C17.4006 54.2996 17.3097 54.5191 17.1478 54.6809C16.986 54.8427 16.7666 54.9336 16.5377 54.9336H12.3041C11.673 54.9351 11.0681 55.1865 10.6219 55.6328C10.1756 56.0791 9.9242 56.6839 9.92269 57.315V58.0973C9.92269 58.3262 9.83178 58.5456 9.66997 58.7075C9.50815 58.8693 9.28869 58.9602 9.05985 58.9602Z" fill="#23272B"/>
<path d="M61.8824 33.6505H61.1174V59.6332L59.3342 61.2611H44.0851C43.7687 61.3243 41.4275 59.9611 41.4275 59.9611C39.9952 61.008 38.4076 61.4279 36.659 61.8363H22.6293L21.4271 59.6735V33.6505H20.6678C20.2566 33.7279 19.8825 33.9391 19.6037 34.2512C19.3249 34.5633 19.157 34.9588 19.1262 35.3761V60.6858C19.2988 62.8199 21.0245 64.1372 23.1528 64.1372H38.1085C40.4094 65.2876 42.7103 65.2876 44.436 64.1372H59.3917C61.5258 64.1372 63.2514 62.8199 63.4183 60.6858V35.3761C63.3878 34.9596 63.2207 34.5647 62.9431 34.2528C62.6654 33.9408 62.2926 33.7291 61.8824 33.6505V33.6505ZM23.055 61.7673L22.8306 61.5314L24.2054 61.727L23.055 61.7673ZM58.92 61.7673L57.7696 61.727L59.1444 61.5314L58.92 61.7673Z" fill="#C88B66"/>
<path d="M59.0521 62.4115H45.7185C44.779 62.4732 43.8376 62.3245 42.9629 61.9762C42.0882 61.6279 41.3022 61.0888 40.6623 60.3982C40.4998 60.2365 40.4083 60.0169 40.4077 59.7876C40.4072 59.5584 40.4977 59.3384 40.6594 59.1759C40.8211 59.0134 41.0408 58.9218 41.27 58.9213C41.4992 58.9207 41.7193 59.0113 41.8818 59.173C42.3612 59.7045 42.9569 60.118 43.6224 60.3814C44.2879 60.6448 45.0052 60.751 45.7185 60.6916H59.0521C59.7712 60.6916 59.9667 60.496 59.9667 59.7827V34.2199C59.9667 34.0673 59.9061 33.921 59.7983 33.8132C59.6904 33.7053 59.5441 33.6447 59.3915 33.6447H45.7185C45.0647 33.5897 44.4066 33.6753 43.7885 33.8955C43.1705 34.1158 42.6066 34.4656 42.1349 34.9217V56.3717C42.1349 56.6005 42.044 56.82 41.8822 56.9818C41.7203 57.1436 41.5009 57.2345 41.272 57.2345C41.0432 57.2345 40.8237 57.1436 40.6619 56.9818C40.5001 56.82 40.4092 56.6005 40.4092 56.3717V34.5593C40.4084 34.4442 40.4304 34.33 40.4738 34.2234C40.5172 34.1168 40.5813 34.0198 40.6623 33.938C41.3017 33.2464 42.0874 32.7062 42.9621 32.3569C43.8369 32.0076 44.7786 31.858 45.7185 31.919H59.3973C60.0075 31.919 60.5927 32.1614 61.0242 32.5929C61.4557 33.0244 61.6981 33.6097 61.6981 34.2199V59.777C61.6924 61.4509 60.7318 62.4115 59.0521 62.4115Z" fill="#23272B"/>
<path d="M36.7624 62.4115H23.4863C21.8124 62.4115 20.8518 61.4509 20.8518 59.777V34.1164C20.8533 33.5356 21.0847 32.979 21.4954 32.5684C21.9061 32.1577 22.4626 31.9263 23.0434 31.9248H36.7624C37.6984 31.8637 38.6362 32.0127 39.5071 32.3611C40.3781 32.7095 41.16 33.2483 41.7956 33.9381C41.8763 34.0178 41.9404 34.1127 41.9841 34.2174C42.0278 34.3221 42.0504 34.4344 42.0504 34.5478C42.0504 34.6612 42.0278 34.7735 41.9841 34.8782C41.9404 34.9829 41.8763 35.0778 41.7956 35.1575C41.6331 35.3177 41.4141 35.4075 41.1859 35.4075C40.9577 35.4075 40.7387 35.3177 40.5761 35.1575C40.1014 34.6265 39.5098 34.213 38.848 33.9494C38.1862 33.6859 37.4723 33.5796 36.7624 33.6389H23.0434C22.9822 33.6389 22.9216 33.651 22.8651 33.6744C22.8086 33.6978 22.7572 33.7321 22.7139 33.7754C22.6707 33.8187 22.6364 33.87 22.6129 33.9266C22.5895 33.9831 22.5775 34.0437 22.5775 34.1049V59.7655C22.5775 60.4788 22.773 60.6743 23.4863 60.6743H36.7624C37.4723 60.7337 38.1862 60.6274 38.848 60.3639C39.5098 60.1003 40.1014 59.6868 40.5761 59.1558C40.7387 58.9956 40.9577 58.9058 41.1859 58.9058C41.4141 58.9058 41.6331 58.9956 41.7956 59.1558C41.8763 59.2355 41.9404 59.3304 41.9841 59.4351C42.0278 59.5398 42.0504 59.6521 42.0504 59.7655C42.0504 59.8789 42.0278 59.9912 41.9841 60.0959C41.9404 60.2006 41.8763 60.2955 41.7956 60.3752C41.1621 61.0692 40.3812 61.6123 39.5102 61.9647C38.6391 62.3171 37.7002 62.4698 36.7624 62.4115V62.4115Z" fill="#23272B"/>
<path d="M55.6525 42.2788H46.449C46.2202 42.2788 46.0007 42.1879 45.8389 42.026C45.6771 41.8642 45.5862 41.6448 45.5862 41.4159C45.5862 41.1871 45.6771 40.9676 45.8389 40.8058C46.0007 40.644 46.2202 40.5531 46.449 40.5531H55.6525C55.8814 40.5531 56.1009 40.644 56.2627 40.8058C56.4245 40.9676 56.5154 41.1871 56.5154 41.4159C56.5154 41.6448 56.4245 41.8642 56.2627 42.026C56.1009 42.1879 55.8814 42.2788 55.6525 42.2788Z" fill="#23272B"/>
<path d="M52.7764 46.8805H46.449C46.2202 46.8805 46.0007 46.7896 45.8389 46.6278C45.6771 46.466 45.5862 46.2465 45.5862 46.0177C45.5862 45.7889 45.6771 45.5694 45.8389 45.4076C46.0007 45.2458 46.2202 45.1549 46.449 45.1549H52.7764C53.0053 45.1549 53.2247 45.2458 53.3866 45.4076C53.5484 45.5694 53.6393 45.7889 53.6393 46.0177C53.6393 46.2465 53.5484 46.466 53.3866 46.6278C53.2247 46.7896 53.0053 46.8805 52.7764 46.8805Z" fill="#23272B"/>
<path d="M36.0952 42.2788H26.8916C26.6628 42.2788 26.4433 42.1879 26.2815 42.026C26.1197 41.8642 26.0288 41.6448 26.0288 41.4159C26.0288 41.1871 26.1197 40.9676 26.2815 40.8058C26.4433 40.644 26.6628 40.5531 26.8916 40.5531H36.0952C36.324 40.5531 36.5435 40.644 36.7053 40.8058C36.8671 40.9676 36.958 41.1871 36.958 41.4159C36.958 41.6448 36.8671 41.8642 36.7053 42.026C36.5435 42.1879 36.324 42.2788 36.0952 42.2788V42.2788Z" fill="#23272B"/>
<path d="M36.0952 51.4823H26.8916C26.6628 51.4823 26.4433 51.3914 26.2815 51.2296C26.1197 51.0678 26.0288 50.8483 26.0288 50.6195C26.0288 50.3906 26.1197 50.1712 26.2815 50.0094C26.4433 49.8475 26.6628 49.7566 26.8916 49.7566H36.0952C36.324 49.7566 36.5435 49.8475 36.7053 50.0094C36.8671 50.1712 36.958 50.3906 36.958 50.6195C36.958 50.8483 36.8671 51.0678 36.7053 51.2296C36.5435 51.3914 36.324 51.4823 36.0952 51.4823V51.4823Z" fill="#23272B"/>
<path d="M33.2191 46.8805H26.8916C26.6628 46.8805 26.4433 46.7896 26.2815 46.6278C26.1197 46.466 26.0288 46.2465 26.0288 46.0177C26.0288 45.7889 26.1197 45.5694 26.2815 45.4076C26.4433 45.2458 26.6628 45.1549 26.8916 45.1549H33.2191C33.4479 45.1549 33.6674 45.2458 33.8292 45.4076C33.991 45.5694 34.0819 45.7889 34.0819 46.0177C34.0819 46.2465 33.991 46.466 33.8292 46.6278C33.6674 46.7896 33.4479 46.8805 33.2191 46.8805Z" fill="#23272B"/>
</g>
<defs>
<clipPath id="clip0_216_142">
<rect width="63.4181" height="65" fill="white"/>
</clipPath>
</defs>
</svg>
