<svg aria-hidden="true" class="icon icon--orders" width="63" height="65" viewBox="0 0 63 65" fill="none" xmlns="http://www.w3.org/2000/svg">
<path d="M54.0576 23.752C52.0846 23.7999 50.1351 23.3168 48.4128 22.3532C47.7938 21.9773 47.2063 21.5519 46.656 21.0811C46.1389 20.6072 45.5496 20.2187 44.9103 19.9301C44.7066 19.8483 44.5436 19.6889 44.4574 19.487C44.3712 19.2851 44.3687 19.0572 44.4505 18.8535C44.5322 18.6497 44.6916 18.4868 44.8935 18.4006C45.0954 18.3143 45.3233 18.3118 45.5271 18.3936C46.3326 18.7418 47.0764 19.2178 47.7299 19.8034C48.2118 20.2136 48.7276 20.5821 49.2719 20.9049C50.9055 21.7984 52.7622 22.2018 54.6193 22.0669C54.8384 22.0588 55.0517 22.1381 55.2123 22.2874C55.3729 22.4366 55.4676 22.6435 55.4756 22.8626C55.4837 23.0817 55.4043 23.295 55.2551 23.4556C55.1059 23.6162 54.8989 23.7109 54.6798 23.719L54.0576 23.752Z" fill="#23272B"/>
<path d="M32.0127 23.752H31.407C31.1879 23.7433 30.9812 23.6478 30.8325 23.4867C30.6838 23.3256 30.6052 23.112 30.6139 22.8929C30.6227 22.6738 30.7181 22.4672 30.8793 22.3185C31.0404 22.1698 31.254 22.0911 31.473 22.0999C33.3312 22.2309 35.1877 21.8236 36.8204 20.9269C37.3647 20.6041 37.8805 20.2356 38.3624 19.8255C38.9947 19.2554 39.7118 18.7872 40.4881 18.4377C40.5886 18.3961 40.6964 18.3747 40.8052 18.3748C40.914 18.3748 41.0217 18.3963 41.1222 18.438C41.2226 18.4797 41.3139 18.5407 41.3908 18.6177C41.4677 18.6946 41.5287 18.786 41.5703 18.8865C41.6118 18.987 41.6332 19.0948 41.6332 19.2036C41.6331 19.3123 41.6116 19.4201 41.57 19.5205C41.5283 19.621 41.4672 19.7123 41.3903 19.7892C41.3133 19.8661 41.222 19.9271 41.1214 19.9687C40.4948 20.252 39.9182 20.6352 39.4142 21.1031C38.864 21.5739 38.2765 21.9994 37.6575 22.3752C35.933 23.3311 33.9836 23.8066 32.0127 23.752V23.752Z" fill="#23272B"/>
<path d="M29.3032 29.6446C29.1294 29.6458 28.9597 29.5918 28.8186 29.4904C28.7301 29.4269 28.655 29.3466 28.5977 29.2541C28.5404 29.1615 28.5019 29.0586 28.4845 28.9511C28.4671 28.8436 28.4711 28.7337 28.4963 28.6278C28.5215 28.5219 28.5674 28.422 28.6314 28.3339L32.8002 22.579C32.8777 22.4735 32.9789 22.3877 33.0955 22.3284C33.2122 22.2691 33.3412 22.238 33.4721 22.2376V22.2376C33.603 22.238 33.7319 22.2691 33.8486 22.3284C33.9653 22.3877 34.0664 22.4735 34.1439 22.579L38.3128 28.3449C38.3764 28.4328 38.4221 28.5323 38.4473 28.6379C38.4725 28.7434 38.4766 28.8529 38.4595 28.96C38.4424 29.0671 38.4043 29.1698 38.3475 29.2623C38.2906 29.3547 38.2162 29.435 38.1283 29.4986C38.0404 29.5623 37.9409 29.608 37.8354 29.6332C37.7298 29.6583 37.6204 29.6625 37.5132 29.6453C37.4061 29.6282 37.3034 29.5901 37.211 29.5333C37.1185 29.4765 37.0382 29.402 36.9746 29.3142L33.4721 24.4734L29.9696 29.3142C29.8927 29.4182 29.7922 29.5024 29.6763 29.5598C29.5604 29.6173 29.4325 29.6463 29.3032 29.6446V29.6446Z" fill="#23272B"/>
<path d="M56.767 29.6446C56.6367 29.6451 56.5082 29.6143 56.3923 29.5549C56.2763 29.4955 56.1763 29.4092 56.1006 29.3031L52.5981 24.4624L49.0956 29.3031C49.032 29.391 48.9517 29.4655 48.8592 29.5223C48.7668 29.5791 48.6641 29.6172 48.557 29.6343C48.4498 29.6515 48.3404 29.6473 48.2348 29.6222C48.1293 29.597 48.0298 29.5513 47.9419 29.4876C47.854 29.424 47.7796 29.3437 47.7227 29.2512C47.6659 29.1588 47.6278 29.0561 47.6107 28.949C47.5936 28.8418 47.5977 28.7324 47.6229 28.6269C47.6481 28.5213 47.6938 28.4218 47.7574 28.3339L51.9263 22.579C52.0062 22.4781 52.1079 22.3966 52.2238 22.3406C52.3396 22.2845 52.4667 22.2554 52.5954 22.2554C52.7241 22.2554 52.8511 22.2845 52.967 22.3406C53.0829 22.3966 53.1846 22.4781 53.2645 22.579L57.4388 28.3449C57.5666 28.5234 57.6185 28.7451 57.5835 28.9617C57.5484 29.1784 57.4291 29.3723 57.2516 29.5014C57.1091 29.5989 56.9396 29.649 56.767 29.6446V29.6446Z" fill="#23272B"/>
<path d="M27.9484 28.0861C27.6566 31.0819 30.2229 33.5931 33.4555 33.5931C36.6882 33.5931 39.2269 31.0819 38.9626 28.0861H27.9484Z" fill="#C88B66"/>
<path d="M47.2233 28.0861C46.9315 31.0819 49.4978 33.5931 52.7304 33.5931C55.9631 33.5931 58.5018 31.0819 58.2375 28.0861H47.2233Z" fill="#C88B66"/>
<path d="M43.0653 21.2188C42.5207 21.2188 41.9883 21.0573 41.5355 20.7547C41.0827 20.4521 40.7298 20.0221 40.5214 19.519C40.313 19.0158 40.2584 18.4622 40.3647 17.928C40.4709 17.3939 40.7332 16.9033 41.1183 16.5182C41.5034 16.1331 41.994 15.8708 42.5281 15.7646C43.0623 15.6583 43.6159 15.7129 44.119 15.9213C44.6222 16.1297 45.0522 16.4826 45.3548 16.9354C45.6573 17.3883 45.8188 17.9206 45.8188 18.4652C45.8188 19.1955 45.5287 19.8959 45.0123 20.4123C44.496 20.9287 43.7956 21.2188 43.0653 21.2188ZM43.0653 17.3638C42.8475 17.3638 42.6345 17.4284 42.4534 17.5494C42.2723 17.6705 42.1311 17.8425 42.0477 18.0437C41.9644 18.245 41.9426 18.4664 41.9851 18.6801C42.0276 18.8938 42.1325 19.09 42.2865 19.244C42.4405 19.3981 42.6368 19.503 42.8504 19.5455C43.0641 19.588 43.2855 19.5662 43.4868 19.4828C43.6881 19.3994 43.8601 19.2583 43.9811 19.0771C44.1021 18.896 44.1667 18.6831 44.1667 18.4652C44.1667 18.1731 44.0507 17.893 43.8441 17.6864C43.6376 17.4799 43.3574 17.3638 43.0653 17.3638Z" fill="#23272B"/>
<path d="M43.1316 24.7818C41.4185 24.7997 39.7293 24.3788 38.2248 23.5593C38.0605 23.4344 37.9489 23.2525 37.912 23.0494C37.8751 22.8464 37.9155 22.6369 38.0253 22.4621C38.1352 22.2874 38.3064 22.1601 38.5054 22.1053C38.7044 22.0505 38.9166 22.0721 39.1004 22.166C40.3448 22.8129 41.7292 23.1439 43.1316 23.1297C44.4896 23.1543 45.8303 22.822 47.0196 22.166C47.2044 22.0477 47.4286 22.0076 47.6429 22.0546C47.8572 22.1016 48.044 22.2318 48.1623 22.4166C48.2806 22.6013 48.3207 22.8255 48.2737 23.0398C48.2267 23.2541 48.0965 23.441 47.9118 23.5593C46.4599 24.3956 44.8067 24.8184 43.1316 24.7818V24.7818Z" fill="#23272B"/>
<path d="M43.0653 16.5212C42.8462 16.5212 42.6361 16.4342 42.4812 16.2793C42.3263 16.1244 42.2393 15.9142 42.2393 15.6952V12.9416C42.2393 12.7225 42.3263 12.5124 42.4812 12.3575C42.6361 12.2026 42.8462 12.1156 43.0653 12.1156C43.2844 12.1156 43.4945 12.2026 43.6494 12.3575C43.8043 12.5124 43.8914 12.7225 43.8914 12.9416V15.6952C43.8914 15.9142 43.8043 16.1244 43.6494 16.2793C43.4945 16.4342 43.2844 16.5212 43.0653 16.5212Z" fill="#23272B"/>
<path d="M61.2388 64.9835H5.61732C5.39824 64.9835 5.18812 64.8965 5.03321 64.7415C4.87829 64.5866 4.79126 64.3765 4.79126 64.1574C4.79126 63.9383 4.87829 63.7282 5.03321 63.5733C5.18812 63.4184 5.39824 63.3314 5.61732 63.3314H61.2388C61.4579 63.3314 61.668 63.4184 61.8229 63.5733C61.9778 63.7282 62.0648 63.9383 62.0648 64.1574C62.0648 64.3765 61.9778 64.5866 61.8229 64.7415C61.668 64.8965 61.4579 64.9835 61.2388 64.9835V64.9835Z" fill="#23272B"/>
<path d="M46.6229 47.6968L57.9951 57.9069C58.2021 58.0895 58.3695 58.3126 58.487 58.5624C58.6045 58.8122 58.6696 59.0835 58.6782 59.3594C58.6869 59.6353 58.6389 59.9101 58.5372 60.1668C58.4356 60.4234 58.2825 60.6566 58.0872 60.8518C57.892 61.047 57.6589 61.2001 57.4022 61.3018C57.1456 61.4034 56.8708 61.4514 56.5949 61.4427C56.3189 61.4341 56.0477 61.369 55.7979 61.2515C55.5481 61.134 55.325 60.9666 55.1424 60.7596L44.8276 49.2718C45.3826 48.6992 45.983 48.1724 46.6229 47.6968V47.6968Z" fill="#C88B66"/>
<path d="M26.8196 63.3314H47.7465V62.9018C47.7465 62.1394 47.4436 61.4082 46.9045 60.8691C46.3654 60.33 45.6342 60.0271 44.8718 60.0271H29.6998C28.9369 60.0271 28.2051 60.3298 27.6651 60.8688C27.1251 61.4077 26.821 62.1389 26.8196 62.9018V63.3314Z" fill="#A7A7A7"/>
<path d="M30.6746 60.5778H44.4422V59.9665C44.4422 59.2523 44.1585 58.5674 43.6535 58.0623C43.1485 57.5573 42.4635 57.2736 41.7493 57.2736H33.3675C32.6533 57.2736 31.9683 57.5573 31.4633 58.0623C30.9583 58.5674 30.6746 59.2523 30.6746 59.9665V60.5778Z" fill="#A7A7A7"/>
<path d="M48.0217 64.4328C47.8026 64.4328 47.5925 64.3457 47.4376 64.1908C47.2827 64.0359 47.1957 63.8258 47.1957 63.6067V63.1772C47.1942 62.6362 46.9795 62.1176 46.598 61.734C46.2164 61.3504 45.699 61.1329 45.1581 61.1285H29.9696C29.4267 61.13 28.9064 61.3463 28.5226 61.7302C28.1387 62.114 27.9224 62.6343 27.9209 63.1772V63.6067C27.9209 63.8258 27.8339 64.0359 27.679 64.1908C27.5241 64.3457 27.3139 64.4328 27.0949 64.4328C26.8758 64.4328 26.6657 64.3457 26.5107 64.1908C26.3558 64.0359 26.2688 63.8258 26.2688 63.6067V63.1772C26.2703 62.1961 26.6606 61.2556 27.3543 60.5619C28.048 59.8682 28.9885 59.4779 29.9696 59.4764H45.1581C46.1391 59.4779 47.0796 59.8682 47.7733 60.5619C48.467 61.2556 48.8574 62.1961 48.8588 63.1772V63.6067C48.8588 63.7161 48.8371 63.8244 48.7949 63.9254C48.7527 64.0263 48.6909 64.1179 48.613 64.1947C48.5351 64.2716 48.4427 64.3322 48.3412 64.3731C48.2397 64.4139 48.1311 64.4342 48.0217 64.4328V64.4328Z" fill="#23272B"/>
<path d="M44.7174 61.1285C44.4984 61.1285 44.2883 61.0415 44.1333 60.8866C43.9784 60.7317 43.8914 60.5215 43.8914 60.3025V59.8729C43.89 59.3319 43.6752 58.8133 43.2937 58.4298C42.9122 58.0462 42.3947 57.8286 41.8538 57.8243H33.2737C32.7309 57.8257 32.2106 58.042 31.8268 58.4259C31.4429 58.8098 31.2266 59.33 31.2251 59.8729V60.3025C31.2251 60.5215 31.1381 60.7317 30.9832 60.8866C30.8283 61.0415 30.6181 61.1285 30.3991 61.1285C30.18 61.1285 29.9699 61.0415 29.8149 60.8866C29.66 60.7317 29.573 60.5215 29.573 60.3025V59.8729C29.5745 58.8919 29.9648 57.9514 30.6585 57.2577C31.3522 56.564 32.2927 56.1736 33.2737 56.1721H41.8538C42.8348 56.1736 43.7753 56.564 44.469 57.2577C45.1627 57.9514 45.5531 58.8919 45.5545 59.8729V60.3025C45.5545 60.4119 45.5328 60.5202 45.4906 60.6211C45.4484 60.7221 45.3866 60.8137 45.3087 60.8905C45.2308 60.9674 45.1384 61.028 45.0369 61.0688C44.9355 61.1097 44.8268 61.13 44.7174 61.1285V61.1285Z" fill="#23272B"/>
<path d="M42.9111 50.7367C42.4365 50.7375 41.9665 50.6445 41.5279 50.463C41.0894 50.2816 40.6911 50.0152 40.3558 49.6793L38.1915 47.5205C37.5163 46.8416 37.1372 45.9229 37.1372 44.9653C37.1372 44.0076 37.5163 43.089 38.1915 42.41L39.5958 41.0112C40.2746 40.3376 41.1921 39.9596 42.1484 39.9596C43.1046 39.9596 44.0221 40.3376 44.7009 41.0112L46.8652 43.1755C47.5401 43.8535 47.919 44.7713 47.919 45.728C47.919 46.6847 47.5401 47.6025 46.8652 48.2805L45.4609 49.6793C45.1263 50.0146 44.7288 50.2805 44.2913 50.462C43.8538 50.6434 43.3848 50.7367 42.9111 50.7367V50.7367ZM42.1456 41.6114C41.8903 41.6077 41.6368 41.6544 41.3995 41.7489C41.1623 41.8434 40.9461 41.9838 40.7633 42.1622L39.359 43.5665C38.9972 43.9333 38.7943 44.4279 38.7943 44.9432C38.7943 45.4585 38.9972 45.9531 39.359 46.32L41.5233 48.4843C41.8895 48.8475 42.3843 49.0513 42.9001 49.0513C43.4158 49.0513 43.9107 48.8475 44.2769 48.4843L45.7087 47.113C46.0693 46.7455 46.2712 46.2511 46.2712 45.7363C46.2712 45.2214 46.0693 44.727 45.7087 44.3595L43.5444 42.1952C43.3624 42.0089 43.1448 41.8612 42.9044 41.7609C42.6641 41.6607 42.406 41.6098 42.1456 41.6114V41.6114Z" fill="#23272B"/>
<path d="M49.773 44.4696C49.4875 44.4695 49.2048 44.413 48.9411 44.3034C48.6775 44.1937 48.438 44.0331 48.2365 43.8308L44.0567 39.6509C43.7463 39.2266 43.5979 38.7053 43.6384 38.1811C43.6788 37.657 43.9053 37.1646 44.277 36.7928C44.6488 36.4211 45.1412 36.1946 45.6653 36.1542C46.1895 36.1138 46.7108 36.2621 47.1351 36.5725L51.3095 40.7524C51.6003 41.0613 51.7958 41.4476 51.8723 41.8649C51.9488 42.2823 51.9032 42.7128 51.741 43.1048C51.5787 43.4969 51.3066 43.8337 50.9575 44.0748C50.6084 44.316 50.1971 44.4511 49.773 44.4641V44.4696ZM45.5766 37.5803C45.5058 37.5801 45.4356 37.5945 45.3706 37.6226C45.3055 37.6506 45.2469 37.6918 45.1984 37.7434C45.1499 37.795 45.1124 37.856 45.0885 37.9227C45.0645 37.9894 45.0544 38.0603 45.059 38.131C45.0608 38.2682 45.1138 38.3998 45.2077 38.5L49.404 42.6908C49.5052 42.7822 49.6367 42.8327 49.773 42.8327C49.9093 42.8327 50.0408 42.7822 50.142 42.6908C50.2333 42.5896 50.2839 42.4582 50.2839 42.3219C50.2839 42.1856 50.2333 42.0541 50.142 41.9529V41.9529L45.9456 37.762C45.9005 37.7073 45.8442 37.6629 45.7806 37.6315C45.717 37.6002 45.6475 37.5827 45.5766 37.5803V37.5803Z" fill="#23272B"/>
<path d="M39.4747 54.7623C39.1895 54.7632 38.907 54.7077 38.6433 54.599C38.3796 54.4904 38.14 54.3306 37.9382 54.129L33.7474 49.9326C33.347 49.5214 33.123 48.9701 33.123 48.3962C33.123 47.8222 33.347 47.271 33.7474 46.8597C34.1586 46.4594 34.7099 46.2354 35.2838 46.2354C35.8578 46.2354 36.409 46.4594 36.8203 46.8597L41.0167 51.0561C41.3214 51.3599 41.5289 51.7474 41.6128 52.1694C41.6967 52.5914 41.6533 53.0288 41.488 53.4261C41.3227 53.8233 41.0431 54.1624 40.6846 54.4004C40.3261 54.6383 39.905 54.7643 39.4747 54.7623ZM35.2838 47.8785C35.2156 47.8777 35.1478 47.8905 35.0845 47.916C35.0212 47.9415 34.9635 47.9793 34.9149 48.0272C34.819 48.1265 34.764 48.2582 34.7607 48.3962C34.7603 48.4649 34.7738 48.5329 34.8003 48.5963C34.8268 48.6597 34.8657 48.7171 34.9149 48.7651L39.1002 52.9615C39.2018 53.0544 39.3344 53.1059 39.472 53.1059C39.6096 53.1059 39.7422 53.0544 39.8437 52.9615C39.935 52.8603 39.9856 52.7289 39.9856 52.5926C39.9856 52.4562 39.935 52.3248 39.8437 52.2236L35.6473 48.0272C35.5485 47.9347 35.4191 47.8817 35.2838 47.8785V47.8785Z" fill="#23272B"/>
<path d="M56.7228 62.4062H56.6402C56.2504 62.3945 55.867 62.3041 55.513 62.1403C55.1591 61.9766 54.8419 61.743 54.5806 61.4534L44.1171 49.795C43.9723 49.6416 43.8916 49.4387 43.8916 49.2277C43.8916 49.0168 43.9723 48.8139 44.1171 48.6605L45.8133 46.9643C45.966 46.8182 46.1692 46.7367 46.3805 46.7367C46.5919 46.7367 46.7951 46.8182 46.9478 46.9643L58.6062 57.4278C58.9 57.685 59.1383 57.9992 59.3068 58.3514C59.4753 58.7036 59.5705 59.0863 59.5865 59.4764C59.5953 59.8588 59.5278 60.2391 59.3881 60.5951C59.2483 60.9511 59.039 61.2757 58.7724 61.55C58.5058 61.8243 58.1873 62.0427 57.8354 62.1925C57.4835 62.3424 57.1053 62.4206 56.7228 62.4227V62.4062ZM45.8684 49.2773L55.7811 60.352C55.8926 60.4744 56.0276 60.573 56.1781 60.6421C56.3285 60.7111 56.4913 60.7492 56.6567 60.7541C56.8219 60.7578 56.9861 60.728 57.1395 60.6664C57.2928 60.6049 57.4321 60.5129 57.5489 60.3961C57.6676 60.2807 57.7608 60.1417 57.8225 59.988C57.8841 59.8343 57.9129 59.6694 57.9069 59.5039C57.9026 59.3384 57.8648 59.1754 57.7957 59.0249C57.7266 58.8743 57.6277 58.7394 57.5048 58.6283L46.4301 48.7156L45.8684 49.2773Z" fill="#23272B"/>
<path d="M47.4877 45.7913C47.3244 45.7912 47.1648 45.7427 47.0291 45.6519C46.8934 45.5611 46.7877 45.4321 46.7252 45.2813C46.6627 45.1304 46.6464 44.9644 46.6782 44.8043C46.71 44.6442 46.7886 44.497 46.9039 44.3815L48.4294 42.856C48.5057 42.7788 48.5966 42.7174 48.6968 42.6756C48.797 42.6337 48.9045 42.6122 49.0131 42.6122C49.1217 42.6122 49.2293 42.6337 49.3295 42.6756C49.4297 42.7174 49.5206 42.7788 49.5969 42.856C49.7503 43.0116 49.8362 43.2213 49.8362 43.4398C49.8362 43.6583 49.7503 43.868 49.5969 44.0236L48.0714 45.549C47.9157 45.7025 47.7063 45.7894 47.4877 45.7913Z" fill="#23272B"/>
<path d="M42.9113 41.2149C42.748 41.2148 42.5884 41.1663 42.4527 41.0755C42.317 40.9847 42.2112 40.8558 42.1488 40.7049C42.0863 40.554 42.07 40.3881 42.1018 40.2279C42.1336 40.0678 42.2121 39.9207 42.3275 39.8051L43.853 38.2797C43.9293 38.2024 44.0202 38.1411 44.1204 38.0992C44.2206 38.0573 44.3281 38.0358 44.4367 38.0358C44.5453 38.0358 44.6529 38.0573 44.7531 38.0992C44.8533 38.1411 44.9442 38.2024 45.0205 38.2797C45.1738 38.4353 45.2598 38.645 45.2598 38.8634C45.2598 39.0819 45.1738 39.2916 45.0205 39.4472L43.506 40.9726C43.3475 41.1287 43.1337 41.2159 42.9113 41.2149V41.2149Z" fill="#23272B"/>
<path d="M36.0438 48.0768C35.9353 48.0773 35.8277 48.0561 35.7275 48.0145C35.6272 47.9729 35.5363 47.9117 35.46 47.8345C35.3067 47.6789 35.2207 47.4692 35.2207 47.2507C35.2207 47.0322 35.3067 46.8225 35.46 46.667L36.9855 45.158C37.0625 45.0814 37.1539 45.0206 37.2544 44.9793C37.3549 44.9379 37.4625 44.9168 37.5712 44.917C37.6799 44.9173 37.7874 44.9389 37.8877 44.9808C37.988 45.0226 38.0791 45.0837 38.1557 45.1608C38.2324 45.2378 38.2931 45.3292 38.3345 45.4296C38.3758 45.5301 38.397 45.6378 38.3967 45.7465C38.3965 45.8551 38.3748 45.9627 38.333 46.063C38.2912 46.1633 38.23 46.2544 38.153 46.331L36.6275 47.851C36.5505 47.926 36.459 47.9846 36.3587 48.0234C36.2584 48.0622 36.1513 48.0804 36.0438 48.0768V48.0768Z" fill="#23272B"/>
<path d="M40.6202 52.6531C40.5116 52.654 40.404 52.6329 40.3037 52.5913C40.2034 52.5497 40.1125 52.4883 40.0365 52.4108C39.8831 52.2552 39.7971 52.0455 39.7971 51.8271C39.7971 51.6086 39.8831 51.3989 40.0365 51.2433L41.5619 49.7179C41.7175 49.5645 41.9272 49.4785 42.1457 49.4785C42.3641 49.4785 42.5738 49.5645 42.7294 49.7179C42.8067 49.7942 42.868 49.8851 42.9099 49.9853C42.9517 50.0855 42.9733 50.193 42.9733 50.3016C42.9733 50.4102 42.9517 50.5177 42.9099 50.6179C42.868 50.7181 42.8067 50.809 42.7294 50.8854L41.204 52.4108C41.1283 52.4888 41.0375 52.5505 40.9371 52.5922C40.8367 52.6339 40.7289 52.6546 40.6202 52.6531V52.6531Z" fill="#23272B"/>
<path d="M26.6818 20.6075H26.5552C26.3361 20.6075 26.126 20.5204 25.9711 20.3655C25.8161 20.2106 25.7291 20.0005 25.7291 19.7814C25.7291 19.5623 25.8161 19.3522 25.9711 19.1973C26.126 19.0424 26.3361 18.9554 26.5552 18.9554H26.6818C27.6453 18.9557 28.6077 18.8894 29.562 18.7571C34.7323 18.0294 39.4189 15.3249 42.6358 11.2124L43.0103 10.7333C43.0695 10.661 43.1129 10.5771 43.1375 10.4869C43.1622 10.3968 43.1676 10.3025 43.1535 10.2101C43.1428 10.1171 43.1134 10.0271 43.067 9.94571C43.0206 9.86431 42.9583 9.79315 42.8837 9.73651C42.7353 9.62757 42.5507 9.57995 42.3682 9.60354C42.1856 9.62712 42.0192 9.7201 41.9034 9.86317L41.5289 10.3423C39.5689 12.8497 37.0037 14.8177 34.0742 16.0613C31.1447 17.305 27.9471 17.7835 24.7819 17.4519C24.5628 17.4811 24.3411 17.4221 24.1655 17.2879C23.9899 17.1536 23.8749 16.9551 23.8457 16.736C23.8165 16.5169 23.8755 16.2952 24.0098 16.1196C24.144 15.9441 24.3425 15.829 24.5616 15.7998C24.6897 15.7857 24.819 15.7857 24.9471 15.7998C27.8353 16.104 30.7534 15.6693 33.4275 14.5365C36.1016 13.4037 38.444 11.6099 40.2347 9.32348L40.6092 8.84437C40.9923 8.36222 41.5482 8.04827 42.1589 7.96911C42.7696 7.88994 43.3871 8.05179 43.8804 8.42032C44.1311 8.60802 44.3416 8.84399 44.4997 9.11435C44.6577 9.3847 44.76 9.68395 44.8006 9.99447C44.8411 10.305 44.8191 10.6205 44.7358 10.9223C44.6525 11.2242 44.5096 11.5063 44.3155 11.7521L43.941 12.2367C40.4559 16.6755 35.3876 19.5925 29.7988 20.3762C28.7664 20.5252 27.7249 20.6025 26.6818 20.6075V20.6075Z" fill="#23272B"/>
<path d="M20.7948 15.6236C18.2891 15.6236 16.1689 13.228 15.7559 9.94578C15.7421 9.8373 15.7499 9.72718 15.7787 9.62169C15.8075 9.51621 15.8568 9.41744 15.9238 9.33102C15.9908 9.2446 16.0742 9.17221 16.1691 9.11801C16.2641 9.0638 16.3688 9.02883 16.4773 9.01508C16.5858 9.00134 16.6959 9.0091 16.8014 9.03792C16.9069 9.06674 17.0056 9.11605 17.0921 9.18304C17.1785 9.25003 17.2509 9.33339 17.3051 9.42836C17.3593 9.52332 17.3942 9.62803 17.408 9.73651C17.7164 12.1486 19.1758 13.9659 20.8114 13.9715C22.447 13.977 23.9008 12.1486 24.2037 9.73651C24.2175 9.62803 24.2524 9.52332 24.3066 9.42836C24.3608 9.33339 24.4332 9.25003 24.5197 9.18304C24.6061 9.11605 24.7048 9.06674 24.8103 9.03792C24.9158 9.0091 25.0259 9.00134 25.1344 9.01508C25.2429 9.02883 25.3476 9.0638 25.4426 9.11801C25.5375 9.17221 25.6209 9.2446 25.6879 9.33102C25.7549 9.41744 25.8042 9.51621 25.833 9.62169C25.8618 9.72718 25.8696 9.8373 25.8558 9.94578C25.4098 13.217 23.2951 15.6181 20.7948 15.6236Z" fill="#23272B"/>
<path d="M14.6875 16.4166C14.4684 16.4166 14.2583 16.3296 14.1034 16.1746C13.9485 16.0197 13.8614 15.8096 13.8614 15.5905C13.8868 13.8855 13.7019 12.1838 13.3107 10.524L13.1841 9.86317C12.8874 8.39401 12.9705 6.87346 13.4253 5.44533C13.8801 4.0172 14.6918 2.7287 15.7834 1.70169C17.3034 0.319412 19.1592 -0.264338 20.7893 0.11565C22.4415 -0.264338 24.2753 0.313905 25.7953 1.70169C26.8889 2.72757 27.7026 4.01556 28.1593 5.44375C28.6161 6.87194 28.7009 8.39307 28.4056 9.86317L28.2734 10.524C27.9812 11.7688 27.797 13.0364 27.7227 14.3129C27.7132 14.532 27.6171 14.7383 27.4555 14.8865C27.2938 15.0347 27.08 15.1126 26.8609 15.1032C26.6418 15.0937 26.4355 14.9975 26.2873 14.8359C26.139 14.6743 26.0611 14.4604 26.0706 14.2413C26.1406 12.8845 26.3249 11.536 26.6213 10.2101L26.748 9.54927C26.9873 8.36066 26.9208 7.13075 26.5548 5.97486C26.1888 4.81897 25.5352 3.77497 24.6553 2.94078C23.4878 1.87791 22.122 1.44285 20.9931 1.77879C20.8401 1.8227 20.6779 1.8227 20.525 1.77879C19.4236 1.44285 18.0303 1.87791 16.8628 2.94078C15.9819 3.77441 15.3273 4.81815 14.9603 5.97407C14.5933 7.12999 14.5259 8.3602 14.7646 9.54927L14.8968 10.2046C15.3073 11.9699 15.5033 13.7783 15.4805 15.5905C15.4807 15.804 15.3982 16.0093 15.2504 16.1633C15.1025 16.3173 14.9008 16.4081 14.6875 16.4166Z" fill="#23272B"/>
<path d="M25.8117 10.1385C25.6917 10.1394 25.573 10.113 25.4647 10.0614C24.5332 9.63136 23.646 9.11122 22.8158 8.50843C22.0942 7.98629 21.4164 7.40612 20.7892 6.7737C20.1639 7.40605 19.488 7.98623 18.7681 8.50843C17.936 9.11126 17.0469 9.6314 16.1137 10.0614C16.0147 10.1121 15.9065 10.1423 15.7955 10.1502C15.6846 10.158 15.5732 10.1434 15.4681 10.1071C15.3629 10.0709 15.2661 10.0138 15.1836 9.93927C15.101 9.86473 15.0344 9.77429 14.9876 9.67337C14.9409 9.57245 14.915 9.46313 14.9115 9.35196C14.9081 9.24079 14.9271 9.13007 14.9674 9.02642C15.0078 8.92278 15.0687 8.82835 15.1464 8.74881C15.2241 8.66926 15.3171 8.60623 15.4198 8.5635C16.2558 8.17239 17.0525 7.70214 17.7989 7.15919C18.6676 6.53187 19.4637 5.80966 20.1724 5.00593C20.2518 4.92105 20.3477 4.85339 20.4543 4.80713C20.5608 4.76086 20.6758 4.73699 20.792 4.73699C20.9081 4.73699 21.0231 4.76086 21.1297 4.80713C21.2362 4.85339 21.3322 4.92105 21.4115 5.00593C22.1202 5.80966 22.9163 6.53187 23.7851 7.15919C24.5319 7.69833 25.3285 8.16488 26.1641 8.55248C26.335 8.63197 26.4735 8.76747 26.5567 8.93651C26.64 9.10555 26.6629 9.29797 26.6218 9.48185C26.5806 9.66573 26.4779 9.83001 26.3305 9.94745C26.1832 10.0649 26.0001 10.1284 25.8117 10.1275V10.1385Z" fill="#23272B"/>
<path d="M26.6873 49.0735H26.5661C26.3507 49.037 26.1582 48.9172 26.0304 48.7399C25.9027 48.5627 25.8498 48.3423 25.8832 48.1263L25.9934 47.4104C26.1255 46.5017 26.2522 45.6812 26.3679 44.9267C27.0617 40.4164 27.3536 38.5495 26.9186 35.9061C26.5304 33.4439 25.6863 31.0757 24.4294 28.9232C24.37 28.8223 24.3343 28.7093 24.3247 28.5927C24.1236 26.8282 24.3 25.0411 24.8424 23.35C24.903 23.1793 24.9691 23.0141 25.0296 22.8489C25.3575 22.1756 25.4892 21.4237 25.4096 20.6791C25.2598 20.0561 25.0495 19.4493 24.7818 18.8672C24.4459 18.0412 24.1375 17.3803 23.9337 16.9508C23.8806 16.8525 23.8479 16.7444 23.8377 16.6331C23.8275 16.5218 23.84 16.4096 23.8744 16.3033C23.9088 16.197 23.9645 16.0987 24.0379 16.0145C24.1114 15.9303 24.2012 15.8619 24.3019 15.8134C24.4026 15.765 24.5121 15.7374 24.6238 15.7325C24.7354 15.7275 24.8469 15.7453 24.9515 15.7847C25.0561 15.8241 25.1516 15.8843 25.2322 15.9617C25.3129 16.0391 25.377 16.132 25.4206 16.2349C25.6354 16.6809 25.9713 17.3748 26.3128 18.2394C26.641 18.9331 26.8922 19.6607 27.0617 20.4092C27.1961 21.4405 27.0357 22.4887 26.5992 23.4326C26.5386 23.5813 26.4835 23.7355 26.4284 23.8897C25.9806 25.2991 25.8251 26.7852 25.9713 28.2568C27.2848 30.544 28.1677 33.0526 28.5762 35.6583C29.0168 38.5495 28.6973 40.6147 28.0255 45.18C27.9098 45.929 27.7832 46.7496 27.6455 47.6582L27.5409 48.3686C27.5122 48.5715 27.4088 48.7563 27.2508 48.8867C27.0929 49.0172 26.8919 49.0838 26.6873 49.0735Z" fill="#23272B"/>
<path d="M13.988 36.611H13.8613C13.6453 36.5771 13.4516 36.459 13.3225 36.2825C13.1935 36.1059 13.1397 35.8854 13.1729 35.6693C13.5767 33.0633 14.4579 30.5541 15.7723 28.2678C15.9241 26.7944 15.7684 25.3054 15.3152 23.8952C15.2601 23.73 15.1995 23.5648 15.139 23.4051C14.869 22.7743 14.6981 22.1055 14.6323 21.4225C14.6132 21.0874 14.6317 20.7512 14.6874 20.4202C14.85 19.6592 15.1014 18.9199 15.4364 18.2174C15.7062 17.54 15.954 17.0114 16.1523 16.5653L16.2624 16.323C16.3617 16.1236 16.5362 15.9719 16.7474 15.9011C16.9586 15.8304 17.1892 15.8464 17.3886 15.9457C17.588 16.0451 17.7397 16.2195 17.8105 16.4307C17.8812 16.6419 17.8652 16.8726 17.7658 17.0719L17.6502 17.3143C17.4519 17.7438 17.2262 18.2339 16.9618 18.8783C16.6878 19.4576 16.472 20.0626 16.3175 20.6846C16.2812 20.8955 16.2683 21.1097 16.2789 21.3234C16.3396 21.8437 16.4769 22.3522 16.6865 22.8323C16.7525 23.0086 16.8186 23.1903 16.8792 23.383C17.4303 25.0704 17.6179 26.8552 17.4299 28.6203C17.4177 28.7389 17.3801 28.8534 17.3198 28.9562C16.0563 31.0963 15.2028 33.4532 14.803 35.9061C14.774 36.1017 14.6758 36.2804 14.5263 36.4098C14.3767 36.5391 14.1857 36.6105 13.988 36.611V36.611Z" fill="#23272B"/>
<path d="M16.6314 62.2299C16.4297 62.2289 16.2353 62.1546 16.0843 62.0208C15.9334 61.8871 15.8362 61.7031 15.8108 61.503C15.6456 60.1483 15.4363 58.3199 15.216 56.4475C14.8691 53.2644 14.4671 49.9602 14.2633 48.5724C14.2478 48.4639 14.2537 48.3534 14.2809 48.2473C14.308 48.1411 14.3558 48.0413 14.4215 47.9536C14.4873 47.8659 14.5696 47.792 14.6639 47.7361C14.7581 47.6802 14.8625 47.6435 14.971 47.6279C15.0795 47.6124 15.1899 47.6184 15.2961 47.6455C15.4023 47.6727 15.5021 47.7204 15.5898 47.7862C15.6775 47.8519 15.7514 47.9342 15.8073 48.0285C15.8631 48.1228 15.8999 48.2271 15.9154 48.3356C16.1192 49.7454 16.5047 53.0662 16.8737 56.2713C17.094 58.1437 17.3032 59.9665 17.4684 61.3213C17.4799 61.4294 17.4698 61.5388 17.4389 61.6431C17.408 61.7473 17.3568 61.8445 17.2882 61.9289C17.2196 62.0133 17.1351 62.0834 17.0394 62.135C16.9437 62.1867 16.8387 62.2189 16.7305 62.2299H16.6314Z" fill="#23272B"/>
<path d="M20.7948 20.9875C19.6838 20.9836 18.6096 20.5893 17.7599 19.8735C16.9103 19.1578 16.3393 18.1661 16.1468 17.0719C16.1298 16.9635 16.1343 16.8527 16.1601 16.746C16.186 16.6392 16.2325 16.5386 16.2972 16.4499C16.3619 16.3612 16.4435 16.2861 16.5372 16.2289C16.6309 16.1716 16.735 16.1334 16.8434 16.1165C16.9519 16.0995 17.0627 16.104 17.1694 16.1298C17.2761 16.1556 17.3767 16.2022 17.4655 16.2669C17.5542 16.3316 17.6293 16.4131 17.6865 16.5068C17.7437 16.6005 17.7819 16.7046 17.7989 16.8131C17.921 17.5223 18.2889 18.1658 18.8382 18.6307C19.3874 19.0957 20.0829 19.3523 20.8025 19.3556C21.5221 19.3589 22.2199 19.1086 22.7733 18.6487C23.3268 18.1888 23.7006 17.5487 23.8292 16.8406C23.848 16.7322 23.888 16.6284 23.9468 16.5354C24.0057 16.4424 24.0824 16.3619 24.1724 16.2985C24.2624 16.235 24.364 16.19 24.4714 16.1658C24.5788 16.1417 24.6899 16.139 24.7984 16.1578C24.9069 16.1766 25.0106 16.2165 25.1036 16.2754C25.1967 16.3343 25.2772 16.4109 25.3406 16.501C25.404 16.591 25.4491 16.6926 25.4732 16.8C25.4973 16.9074 25.5001 17.0185 25.4813 17.127C25.2823 18.2205 24.7024 19.2082 23.8445 19.9148C22.9866 20.6215 21.9061 21.0015 20.7948 20.9875V20.9875Z" fill="#23272B"/>
<path d="M3.85509 34.9314C3.45629 34.934 3.06359 34.8334 2.71512 34.6395C2.16908 34.3355 1.76572 33.8276 1.59335 33.2269C1.42098 32.6262 1.49365 31.9816 1.79544 31.4344L2.14789 30.8396C5.46514 24.7248 10.3845 19.6285 16.3782 16.0972C16.4716 16.0342 16.577 15.991 16.6878 15.9702C16.7985 15.9494 16.9124 15.9516 17.0223 15.9764C17.1322 16.0013 17.2359 16.0484 17.3269 16.1149C17.418 16.1813 17.4945 16.2657 17.5517 16.3628C17.6089 16.4599 17.6456 16.5677 17.6596 16.6795C17.6736 16.7914 17.6646 16.9049 17.633 17.0131C17.6015 17.1213 17.5482 17.2219 17.4764 17.3088C17.4045 17.3956 17.3156 17.4668 17.2152 17.518C11.4798 20.8955 6.77039 25.7687 3.59075 31.6161L3.2438 32.2384C3.19821 32.3192 3.16916 32.4083 3.15834 32.5005C3.14751 32.5926 3.15514 32.686 3.18076 32.7752C3.20639 32.8644 3.24951 32.9476 3.3076 33.0199C3.3657 33.0923 3.43761 33.1524 3.51915 33.1966C3.68478 33.2797 3.87574 33.2969 4.05355 33.2448C4.23136 33.1927 4.38281 33.0751 4.47739 32.9158L4.81882 32.2935C7.33679 27.75 10.7951 23.7961 14.9629 20.6956C15.1396 20.5619 15.3622 20.504 15.5816 20.5344C15.8011 20.5649 15.9995 20.6813 16.1331 20.858C16.2667 21.0348 16.3247 21.2574 16.2942 21.4768C16.2638 21.6963 16.1474 21.8947 15.9706 22.0283C11.9921 24.9865 8.69127 28.7604 6.28921 33.0975L5.94227 33.7253C5.73467 34.0952 5.43132 34.4024 5.06407 34.6146C4.69682 34.8268 4.27921 34.9362 3.85509 34.9314V34.9314Z" fill="#23272B"/>
<path d="M43.0653 26.9847C42.8462 26.9847 42.6361 26.8976 42.4812 26.7427C42.3263 26.5878 42.2393 26.3777 42.2393 26.1586V21.2022C42.2393 20.9832 42.3263 20.773 42.4812 20.6181C42.6361 20.4632 42.8462 20.3762 43.0653 20.3762C43.2844 20.3762 43.4945 20.4632 43.6494 20.6181C43.8043 20.773 43.8914 20.9832 43.8914 21.2022V26.1586C43.8914 26.3777 43.8043 26.5878 43.6494 26.7427C43.4945 26.8976 43.2844 26.9847 43.0653 26.9847Z" fill="#23272B"/>
<path d="M27.921 52.923V55.0873H25.7567L8.37085 39.9428L11.6751 36.6386L27.921 52.923Z" fill="#A7A7A7"/>
<path d="M5.38596 40.5156C5.27781 40.5168 5.1705 40.4965 5.07028 40.4558C4.97006 40.4152 4.87893 40.355 4.80221 40.2787C4.72478 40.202 4.66333 40.1106 4.62139 40.0099C4.57945 39.9093 4.55786 39.8013 4.55786 39.6922C4.55786 39.5832 4.57945 39.4752 4.62139 39.3746C4.66333 39.2739 4.72478 39.1825 4.80221 39.1057L11.284 32.6239C11.3597 32.5428 11.4509 32.4777 11.5522 32.4325C11.6535 32.3874 11.7629 32.3631 11.8738 32.3611C11.9847 32.3592 12.0949 32.3796 12.1978 32.4211C12.3006 32.4627 12.3941 32.5245 12.4725 32.6029C12.5509 32.6814 12.6128 32.7748 12.6543 32.8777C12.6959 32.9805 12.7163 33.0907 12.7143 33.2016C12.7124 33.3125 12.6881 33.4219 12.6429 33.5233C12.5978 33.6246 12.5327 33.7158 12.4515 33.7914L5.96971 40.2787C5.81338 40.4307 5.60395 40.5156 5.38596 40.5156V40.5156Z" fill="#23272B"/>
<path d="M3.05648 31.7097C2.83782 31.7078 2.6285 31.6209 2.47273 31.4674L0.269897 29.2646C0.14333 29.1078 0.0784606 28.9101 0.0875023 28.7087C0.096544 28.5074 0.178873 28.3163 0.318988 28.1715C0.459104 28.0266 0.64734 27.938 0.848256 27.9223C1.04917 27.9065 1.24891 27.9648 1.40986 28.0861L3.64023 30.2889C3.75561 30.4044 3.83416 30.5516 3.86598 30.7117C3.89779 30.8718 3.88143 31.0378 3.81897 31.1887C3.75651 31.3395 3.65074 31.4685 3.51503 31.5593C3.37932 31.65 3.21975 31.6986 3.05648 31.6987V31.7097Z" fill="#23272B"/>
<path d="M8.62977 37.2829C8.41088 37.2821 8.20113 37.195 8.04602 37.0406L4.74178 33.7363C4.58841 33.5807 4.50244 33.3711 4.50244 33.1526C4.50244 32.9341 4.58841 32.7244 4.74178 32.5688C4.8181 32.4916 4.90899 32.4302 5.0092 32.3884C5.10941 32.3465 5.21693 32.325 5.32553 32.325C5.43412 32.325 5.54164 32.3465 5.64185 32.3884C5.74205 32.4302 5.83295 32.4916 5.90927 32.5688L9.21352 35.8731C9.3289 35.9886 9.40746 36.1357 9.43927 36.2959C9.47108 36.456 9.45473 36.622 9.39226 36.7729C9.3298 36.9237 9.22404 37.0527 9.08832 37.1434C8.95261 37.2342 8.79304 37.2827 8.62977 37.2829V37.2829Z" fill="#23272B"/>
<path d="M20.7894 30.1237C19.2502 30.1271 17.7216 29.8701 16.2681 29.3637C16.1654 29.3276 16.0708 29.2715 15.9898 29.1988C15.9087 29.1261 15.8428 29.0382 15.7958 28.94C15.7007 28.7417 15.6884 28.5138 15.7614 28.3064C15.7976 28.2037 15.8536 28.1091 15.9263 28.0281C15.999 27.947 16.087 27.8811 16.1852 27.8341C16.3835 27.739 16.6114 27.7267 16.8188 27.7997C19.4376 28.7071 22.2876 28.6935 24.8977 27.7612C25.0989 27.7059 25.3136 27.7289 25.4986 27.8254C25.6836 27.922 25.8252 28.085 25.8949 28.2817C25.9647 28.4783 25.9574 28.6941 25.8746 28.8857C25.7917 29.0772 25.6395 29.2303 25.4484 29.3142C23.9544 29.8535 22.3777 30.1275 20.7894 30.1237V30.1237Z" fill="#23272B"/>
<path d="M2.0873 63.0725C1.91411 63.0725 1.74482 63.1239 1.60082 63.2201C1.45683 63.3163 1.3446 63.4531 1.27832 63.6131C1.21205 63.7731 1.19471 63.9491 1.2285 64.119C1.26228 64.2888 1.34568 64.4449 1.46813 64.5673C1.59059 64.6898 1.74661 64.7732 1.91647 64.807C2.08632 64.8408 2.26238 64.8234 2.42238 64.7571C2.58238 64.6909 2.71914 64.5786 2.81535 64.4346C2.91157 64.2906 2.96292 64.1213 2.96292 63.9482C2.96292 63.8332 2.94027 63.7193 2.89627 63.6131C2.85226 63.5068 2.78776 63.4103 2.70646 63.329C2.62515 63.2477 2.52862 63.1832 2.42238 63.1392C2.31615 63.0952 2.20228 63.0725 2.0873 63.0725V63.0725Z" fill="#23272B"/>
</svg>
