<svg aria-hidden="true" class="icon icon--participating" width="75" height="65" viewBox="0 0 75 65" fill="none" xmlns="http://www.w3.org/2000/svg">
<g clip-path="url(#clip0_216_363)">
<path d="M61.0442 33.2201V38.5977L54.9677 35.602L48.8912 38.5977V33.214C46.6394 33.617 44.5278 34.5889 42.7571 36.0374C40.9864 37.4858 39.6153 39.3628 38.7739 41.4901C41.4173 43.5296 43.3346 46.3651 44.2427 49.5779C48.8107 51.5648 53.8392 52.2497 58.7722 51.557C63.7052 50.8642 68.3505 48.8207 72.1945 45.6525C71.98 42.6364 70.7678 39.7774 68.7489 37.5264C66.73 35.2753 64.0193 33.7603 61.0442 33.2201V33.2201Z" fill="#C88B66"/>
<path d="M14.5835 23.6982C14.3418 23.6982 14.1099 23.6022 13.939 23.4313C13.7681 23.2603 13.672 23.0285 13.672 22.7868C13.6179 22.5799 13.6382 22.3605 13.7294 22.1671C13.8206 21.9737 13.977 21.8185 14.1711 21.7287C14.3651 21.6389 14.5846 21.6202 14.7911 21.6759C14.9976 21.7316 15.1779 21.8581 15.3005 22.0333C15.4279 22.194 15.4965 22.3934 15.495 22.5984V22.7928C15.4934 23.0335 15.3966 23.2638 15.2259 23.4334C15.0551 23.603 14.8242 23.6982 14.5835 23.6982V23.6982Z" fill="#23272B"/>
<path d="M55.2958 52.7559C51.4632 52.754 47.672 51.9639 44.1576 50.4347C44.0325 50.3781 43.9217 50.2941 43.8333 50.1889C43.745 50.0837 43.6814 49.9601 43.6472 49.8271C42.7905 46.8085 40.994 44.1415 38.5187 42.2132C38.3624 42.0907 38.2501 41.9209 38.1986 41.7291C38.1471 41.5374 38.1592 41.3341 38.2331 41.1499C39.1352 38.8954 40.5926 36.9055 42.4698 35.3651C44.3469 33.8247 46.583 32.7838 48.9702 32.339C49.16 32.2891 49.361 32.3041 49.5414 32.3815C49.7083 32.4492 49.8512 32.5652 49.9519 32.7145C50.0526 32.8639 50.1064 33.0399 50.1065 33.2201V37.1333L54.8644 34.7878C54.9906 34.7278 55.1287 34.6967 55.2685 34.6967C55.4082 34.6967 55.5463 34.7278 55.6725 34.7878L60.4365 37.1333V33.2504C60.4367 33.1171 60.4662 32.9853 60.5229 32.8646C60.5796 32.7438 60.6621 32.637 60.7646 32.5516C60.866 32.4642 60.9861 32.4012 61.1157 32.3675C61.2453 32.3338 61.3809 32.3303 61.512 32.3572C64.6755 32.9442 67.5551 34.5634 69.7002 36.9614C71.8454 39.3594 73.135 42.4009 73.3672 45.61C73.3771 45.7568 73.3519 45.9039 73.2938 46.0391C73.2357 46.1743 73.1463 46.2938 73.033 46.3878C68.0263 50.4825 61.7637 52.731 55.2958 52.7559ZM45.2757 48.9338C48.4516 50.2531 51.8568 50.9325 55.2958 50.933C61.1856 50.9112 66.8988 48.9198 71.5261 45.2758C71.2471 42.746 70.218 40.3575 68.571 38.4171C66.9241 36.4767 64.7345 35.0731 62.2837 34.3867V38.6403C62.2857 38.7958 62.2477 38.9492 62.1731 39.0857C62.0986 39.2223 61.9902 39.3373 61.8583 39.4197C61.7264 39.5021 61.5755 39.5492 61.4201 39.5564C61.2647 39.5635 61.1101 39.5305 60.9712 39.4606L55.2958 36.6472L49.6265 39.4424C49.4871 39.5119 49.3323 39.5446 49.1767 39.5374C49.0212 39.5301 48.8701 39.4831 48.7378 39.4008C48.6056 39.3185 48.4967 39.2038 48.4214 39.0674C48.3461 38.9311 48.307 38.7778 48.3079 38.622V34.3685C46.5335 34.8506 44.8868 35.7166 43.484 36.9052C42.0812 38.0938 40.9566 39.576 40.1897 41.2471C42.5769 43.2777 44.3402 45.9427 45.2757 48.9338V48.9338Z" fill="#23272B"/>
<path d="M52.2576 20.0523H49.827C49.5853 20.0523 49.3534 19.9563 49.1825 19.7854C49.0116 19.6145 48.9155 19.3826 48.9155 19.1409C48.9155 18.8991 49.0116 18.6673 49.1825 18.4964C49.3534 18.3254 49.5853 18.2294 49.827 18.2294H52.2576C52.4993 18.2294 52.7312 18.3254 52.9021 18.4964C53.073 18.6673 53.1691 18.8991 53.1691 19.1409C53.1691 19.3826 53.073 19.6145 52.9021 19.7854C52.7312 19.9563 52.4993 20.0523 52.2576 20.0523Z" fill="#23272B"/>
<path d="M60.7647 20.0523H58.3341C58.0923 20.0523 57.8605 19.9563 57.6896 19.7854C57.5186 19.6145 57.4226 19.3826 57.4226 19.1409C57.4226 18.8991 57.5186 18.6673 57.6896 18.4964C57.8605 18.3254 58.0923 18.2294 58.3341 18.2294H60.7647C61.0064 18.2294 61.2382 18.3254 61.4092 18.4964C61.5801 18.6673 61.6761 18.8991 61.6761 19.1409C61.6761 19.3826 61.5801 19.6145 61.4092 19.7854C61.2382 19.9563 61.0064 20.0523 60.7647 20.0523V20.0523Z" fill="#23272B"/>
<path d="M55.4113 28.7235C54.2475 28.6969 53.1247 28.2892 52.215 27.5629C52.1026 27.4981 52.0053 27.41 51.9297 27.3045C51.854 27.1991 51.8018 27.0787 51.7764 26.9514C51.751 26.8242 51.7531 26.6929 51.7825 26.5665C51.812 26.4401 51.868 26.3215 51.947 26.2185C52.026 26.1155 52.126 26.0306 52.2405 25.9694C52.3549 25.9082 52.4811 25.8722 52.6106 25.8637C52.7401 25.8552 52.8699 25.8745 52.9914 25.9202C53.1128 25.9659 53.2231 26.037 53.3149 26.1288C53.8953 26.6365 54.6402 26.9163 55.4113 26.9163C56.1824 26.9163 56.9273 26.6365 57.5076 26.1288C57.7008 25.9932 57.9391 25.9379 58.1723 25.9744C58.4055 26.0109 58.6154 26.1364 58.7579 26.3246C58.9004 26.5128 58.9643 26.7488 58.9363 26.9832C58.9082 27.2175 58.7904 27.4319 58.6075 27.5811C57.6955 28.3009 56.5729 28.7021 55.4113 28.7235V28.7235Z" fill="#23272B"/>
<path d="M65.0182 50.4347C64.7764 50.4347 64.5446 50.3387 64.3737 50.1677C64.2027 49.9968 64.1067 49.765 64.1067 49.5232V43.4468C64.1067 43.205 64.2027 42.9732 64.3737 42.8023C64.5446 42.6313 64.7764 42.5353 65.0182 42.5353C65.2599 42.5353 65.4917 42.6313 65.6627 42.8023C65.8336 42.9732 65.9296 43.205 65.9296 43.4468V49.5232C65.9296 49.765 65.8336 49.9968 65.6627 50.1677C65.4917 50.3387 65.2599 50.4347 65.0182 50.4347Z" fill="#23272B"/>
<path d="M45.5736 50.4347C45.3318 50.4347 45.1 50.3387 44.9291 50.1677C44.7581 49.9968 44.6621 49.765 44.6621 49.5232V43.4468C44.6621 43.205 44.7581 42.9732 44.9291 42.8023C45.1 42.6313 45.3318 42.5353 45.5736 42.5353C45.8153 42.5353 46.0472 42.6313 46.2181 42.8023C46.389 42.9732 46.4851 43.205 46.4851 43.4468V49.5232C46.4851 49.765 46.389 49.9968 46.2181 50.1677C46.0472 50.3387 45.8153 50.4347 45.5736 50.4347Z" fill="#23272B"/>
<path d="M62.381 0C62.1791 0 61.9817 0.0598716 61.8138 0.172044C61.6459 0.284216 61.5151 0.44365 61.4378 0.630186C61.3605 0.816721 61.3403 1.02198 61.3797 1.22C61.4191 1.41803 61.5163 1.59993 61.6591 1.74269C61.8019 1.88546 61.9838 1.98269 62.1818 2.02208C62.3798 2.06147 62.5851 2.04125 62.7716 1.96399C62.9581 1.88672 63.1176 1.75588 63.2298 1.588C63.3419 1.42012 63.4018 1.22275 63.4018 1.02085C63.4018 0.886787 63.3754 0.754041 63.3241 0.630186C63.2728 0.506331 63.1976 0.393794 63.1028 0.298999C63.008 0.204205 62.8955 0.12901 62.7716 0.0777073C62.6478 0.026405 62.515 0 62.381 0V0Z" fill="#23272B"/>
<path d="M1.0208 46.7888C0.818386 46.7876 0.620181 46.8466 0.451376 46.9583C0.28257 47.07 0.150785 47.2294 0.0727677 47.4162C-0.00524984 47.603 -0.0259778 47.8087 0.0132179 48.0073C0.0524135 48.2059 0.149763 48.3884 0.292896 48.5315C0.436029 48.6746 0.618483 48.772 0.817073 48.8112C1.01566 48.8504 1.22142 48.8296 1.4082 48.7516C1.59498 48.6736 1.75436 48.5418 1.86606 48.373C1.97777 48.2042 2.03677 48.006 2.03557 47.8036C2.03398 47.5349 1.92655 47.2778 1.73659 47.0878C1.54663 46.8978 1.28944 46.7904 1.0208 46.7888V46.7888Z" fill="#23272B"/>
<path d="M42.2374 57.9938C42.0355 57.9938 41.8381 58.0537 41.6702 58.1659C41.5024 58.278 41.3715 58.4375 41.2943 58.624C41.217 58.8106 41.1968 59.0158 41.2362 59.2138C41.2756 59.4119 41.3728 59.5938 41.5156 59.7365C41.6583 59.8793 41.8402 59.9765 42.0382 60.0159C42.2363 60.0553 42.4415 60.0351 42.6281 59.9578C42.8146 59.8805 42.974 59.7497 43.0862 59.5818C43.1984 59.414 43.2582 59.2166 43.2582 59.0147C43.2582 58.7439 43.1507 58.4843 42.9592 58.2928C42.7678 58.1014 42.5081 57.9938 42.2374 57.9938V57.9938Z" fill="#23272B"/>
<path d="M73.264 48.7333C73.0618 48.7321 72.8639 48.7909 72.6952 48.9024C72.5265 49.0138 72.3947 49.1728 72.3165 49.3592C72.2383 49.5457 72.2172 49.7511 72.2559 49.9495C72.2946 50.148 72.3914 50.3304 72.5339 50.4738C72.6764 50.6172 72.8583 50.715 73.0565 50.7549C73.2547 50.7948 73.4603 50.7749 73.6472 50.6978C73.834 50.6208 73.9938 50.4899 74.1063 50.3219C74.2187 50.1539 74.2788 49.9563 74.2788 49.7541C74.2788 49.4844 74.172 49.2257 73.9819 49.0344C73.7918 48.8432 73.5337 48.7349 73.264 48.7333Z" fill="#23272B"/>
<path d="M55.2958 56.5112H55.2472C55.0054 56.5112 54.7736 56.4151 54.6027 56.2442C54.4317 56.0733 54.3357 55.8414 54.3357 55.5997C54.3357 55.358 54.4317 55.1261 54.6027 54.9552C54.7736 54.7843 55.0054 54.6882 55.2472 54.6882V54.6882C60.6069 54.6749 65.8666 53.2362 70.4869 50.5198C70.5903 50.4587 70.7046 50.4186 70.8235 50.4018C70.9423 50.3849 71.0633 50.3917 71.1795 50.4216C71.2958 50.4515 71.405 50.504 71.5009 50.5761C71.5969 50.6482 71.6777 50.7385 71.7387 50.8418C71.7997 50.9452 71.8398 51.0595 71.8567 51.1783C71.8735 51.2972 71.8668 51.4182 71.8369 51.5344C71.807 51.6506 71.7545 51.7598 71.6824 51.8558C71.6103 51.9517 71.52 52.0325 71.4166 52.0936C66.5277 54.9646 60.9653 56.4889 55.2958 56.5112Z" fill="#23272B"/>
<path d="M17.1417 38.8165L23.9716 41.2896L19.7667 45.6586L16.3396 38.8833L17.1417 38.8165Z" fill="#A7A7A7"/>
<path d="M32.1141 39.0656L25.2781 41.5327L29.483 45.9017L32.9101 39.1264L32.1141 39.0656Z" fill="#A7A7A7"/>
<path d="M10.9376 58.3341C10.6959 58.3341 10.464 58.2381 10.2931 58.0672C10.1222 57.8962 10.0261 57.6644 10.0261 57.4226V51.3462C10.0261 51.1044 10.1222 50.8726 10.2931 50.7017C10.464 50.5307 10.6959 50.4347 10.9376 50.4347C11.1793 50.4347 11.4112 50.5307 11.5821 50.7017C11.753 50.8726 11.8491 51.1044 11.8491 51.3462V57.4226C11.8491 57.6644 11.753 57.8962 11.5821 58.0672C11.4112 58.2381 11.1793 58.3341 10.9376 58.3341Z" fill="#23272B"/>
<path d="M37.6742 58.3341C37.4324 58.3341 37.2006 58.2381 37.0297 58.0672C36.8587 57.8962 36.7627 57.6644 36.7627 57.4226V51.3462C36.7627 51.1044 36.8587 50.8726 37.0297 50.7017C37.2006 50.5307 37.4324 50.4347 37.6742 50.4347C37.9159 50.4347 38.1477 50.5307 38.3187 50.7017C38.4896 50.8726 38.5856 51.1044 38.5856 51.3462V57.4226C38.5856 57.6644 38.4896 57.8962 38.3187 58.0672C38.1477 58.2381 37.9159 58.3341 37.6742 58.3341V58.3341Z" fill="#23272B"/>
<path d="M13.7936 26.7365C13.6053 26.7368 13.4216 26.6785 13.2681 26.5696C13.1145 26.4607 12.9987 26.3066 12.9368 26.1288L12.6877 26.0073C12.212 25.7964 11.7851 25.4895 11.4337 25.1057C11.0824 24.7219 10.8142 24.2696 10.646 23.7772C9.64944 21.3892 10.1538 20.2103 10.7614 19.6392C11.0682 19.3612 11.4527 19.1837 11.8632 19.1305C12.2738 19.0772 12.6908 19.1508 13.0583 19.3414C13.2746 19.4476 13.4404 19.6345 13.52 19.8619C13.5996 20.0893 13.5865 20.3388 13.4837 20.5567C13.4318 20.6644 13.3591 20.7607 13.2698 20.8401C13.1805 20.9195 13.0764 20.9805 12.9634 21.0195C12.8504 21.0584 12.7308 21.0747 12.6115 21.0672C12.4923 21.0597 12.3756 21.0287 12.2684 20.976C12.2286 20.9566 12.185 20.9466 12.1408 20.9466C12.0966 20.9466 12.0529 20.9566 12.0132 20.976C11.9038 21.0732 11.7397 21.6748 12.3231 23.0845C12.4104 23.3735 12.5601 23.6398 12.7617 23.8645C12.9634 24.0892 13.2119 24.2669 13.4898 24.3849C13.7522 24.4822 13.9911 24.6337 14.1911 24.8294C14.391 25.0252 14.5475 25.2609 14.6504 25.5212C14.6979 25.6362 14.7216 25.7596 14.7199 25.884C14.7183 26.0084 14.6914 26.1312 14.6408 26.2449C14.5902 26.3586 14.517 26.4608 14.4257 26.5453C14.3344 26.6298 14.2268 26.6948 14.1096 26.7365C14.005 26.7539 13.8982 26.7539 13.7936 26.7365Z" fill="#23272B"/>
<path d="M35.1401 26.7729C35.0299 26.7734 34.9205 26.7528 34.8181 26.7122C34.7043 26.6698 34.6002 26.6051 34.5118 26.5219C34.4234 26.4388 34.3525 26.3388 34.3032 26.2279C34.254 26.1169 34.2274 25.9973 34.225 25.8759C34.2227 25.7546 34.2445 25.634 34.2894 25.5212C34.3912 25.2613 34.5467 25.0258 34.7456 24.83C34.9445 24.6342 35.1825 24.4826 35.4439 24.3849C35.7216 24.2682 35.9701 24.0917 36.1718 23.868C36.3735 23.6443 36.5233 23.3789 36.6106 23.0906C37.2183 21.6808 37.0299 21.0793 36.9205 20.9821C36.8818 20.9628 36.8392 20.9528 36.7959 20.9528C36.7527 20.9528 36.7101 20.9628 36.6714 20.9821C36.5645 21.0556 36.443 21.1055 36.3153 21.1284C36.1875 21.1513 36.0563 21.1466 35.9305 21.1147C35.8047 21.0828 35.6872 21.0244 35.5857 20.9434C35.4843 20.8624 35.4014 20.7606 35.3425 20.645C35.2836 20.5293 35.25 20.4024 35.2441 20.2727C35.2382 20.1431 35.26 20.0136 35.3082 19.8931C35.3563 19.7726 35.4297 19.6637 35.5233 19.5738C35.6169 19.4839 35.7287 19.415 35.8511 19.3718C36.2197 19.1816 36.6376 19.1082 37.049 19.1614C37.4604 19.2146 37.8459 19.3918 38.154 19.6695C38.7617 20.2407 39.266 21.4196 38.2695 23.8076C38.0993 24.2999 37.8297 24.7519 37.4774 25.1355C37.1252 25.5192 36.6977 25.8263 36.2217 26.0377C36.1306 26.0787 36.0432 26.1275 35.9604 26.1835C35.8984 26.3526 35.7871 26.4992 35.6408 26.6043C35.4946 26.7094 35.3201 26.7681 35.1401 26.7729V26.7729Z" fill="#23272B"/>
<path d="M24.482 38.5674C18.8369 38.4823 13.9757 33.1897 12.8881 25.9891C12.8531 25.7499 12.9139 25.5067 13.0573 25.3121C13.2006 25.1176 13.415 24.9875 13.6537 24.95C13.7723 24.931 13.8935 24.9359 14.0103 24.9642C14.127 24.9926 14.2369 25.0439 14.3336 25.1151C14.4303 25.1864 14.5119 25.2762 14.5735 25.3793C14.6352 25.4824 14.6757 25.5967 14.6928 25.7156C15.6468 32.0351 19.7605 36.6533 24.482 36.7444C29.173 36.6715 33.2928 32.0351 34.2408 25.7156C34.2578 25.5967 34.2983 25.4824 34.36 25.3793C34.4217 25.2762 34.5032 25.1864 34.5999 25.1151C34.6966 25.0439 34.8066 24.9926 34.9233 24.9642C35.04 24.9359 35.1612 24.931 35.2799 24.95C35.5186 24.9875 35.7329 25.1176 35.8763 25.3121C36.0196 25.5067 36.0804 25.7499 36.0455 25.9891C34.9578 33.1897 30.0966 38.4823 24.482 38.5674Z" fill="#23272B"/>
<path d="M21.8752 24.3059H18.837C18.5953 24.3059 18.3634 24.2099 18.1925 24.0389C18.0216 23.868 17.9255 23.6361 17.9255 23.3944C17.9255 23.1527 18.0216 22.9208 18.1925 22.7499C18.3634 22.579 18.5953 22.4829 18.837 22.4829H21.8752C22.117 22.4829 22.3488 22.579 22.5198 22.7499C22.6907 22.9208 22.7867 23.1527 22.7867 23.3944C22.7867 23.6361 22.6907 23.868 22.5198 24.0389C22.3488 24.2099 22.117 24.3059 21.8752 24.3059Z" fill="#23272B"/>
<path d="M30.1149 24.3059H27.3805C27.1387 24.3059 26.9069 24.2099 26.736 24.0389C26.565 23.868 26.469 23.6361 26.469 23.3944C26.469 23.1527 26.565 22.9208 26.736 22.7499C26.9069 22.579 27.1387 22.4829 27.3805 22.4829H30.1149C30.3566 22.4829 30.5884 22.579 30.7594 22.7499C30.9303 22.9208 31.0263 23.1527 31.0263 23.3944C31.0263 23.6361 30.9303 23.868 30.7594 24.0389C30.5884 24.2099 30.3566 24.3059 30.1149 24.3059Z" fill="#23272B"/>
<path d="M24.5976 34.2591C23.3647 34.2365 22.1735 33.8095 21.2069 33.0438C21.1008 32.976 21.0099 32.8869 20.9399 32.7822C20.87 32.6775 20.8225 32.5594 20.8004 32.4354C20.7784 32.3114 20.7823 32.1842 20.8119 32.0618C20.8415 31.9393 20.8961 31.8244 20.9723 31.7241C21.0486 31.6239 21.1448 31.5405 21.2548 31.4793C21.3649 31.4181 21.4865 31.3804 21.6118 31.3685C21.7372 31.3566 21.8637 31.3708 21.9833 31.4103C22.1029 31.4497 22.213 31.5135 22.3068 31.5976C22.9408 32.1503 23.7535 32.4548 24.5945 32.4548C25.4356 32.4548 26.2483 32.1503 26.8823 31.5976C27.0755 31.4621 27.3138 31.4067 27.547 31.4432C27.7801 31.4797 27.9901 31.6053 28.1326 31.7934C28.2751 31.9816 28.339 32.2177 28.311 32.452C28.2829 32.6864 28.1651 32.9007 27.9822 33.0499C27.0165 33.8122 25.8276 34.2369 24.5976 34.2591V34.2591Z" fill="#23272B"/>
<path d="M3.99226 53.8193H3.93149C3.69341 53.8037 3.47112 53.6947 3.31295 53.516C3.15479 53.3374 3.07354 53.1035 3.08686 52.8653C3.31591 49.1438 4.7929 45.6082 7.27923 42.8297C9.76556 40.0512 13.116 38.192 16.7893 37.5526H16.8987H17.0445C17.2863 37.5195 17.5312 37.5839 17.7255 37.7315C17.9198 37.879 18.0475 38.0977 18.0806 38.3395C18.1136 38.5812 18.0492 38.8262 17.9017 39.0205C17.7541 39.2148 17.5354 39.3425 17.2936 39.3755L17.0567 39.4181C13.7984 39.9938 10.8284 41.6485 8.62415 44.1161C6.41993 46.5837 5.10956 49.7209 4.90373 53.0233C4.87549 53.2445 4.76713 53.4477 4.59915 53.5944C4.43118 53.7411 4.21526 53.8211 3.99226 53.8193Z" fill="#23272B"/>
<path d="M24.3667 61.3723C16.6721 61.3835 9.23066 58.6247 3.40284 53.6005C3.21993 53.4394 3.10853 53.2122 3.09314 52.9689C3.07776 52.7256 3.15965 52.4861 3.32081 52.3032C3.48197 52.1203 3.70919 52.0089 3.95249 51.9935C4.19578 51.9781 4.43522 52.06 4.61814 52.2212C10.109 56.9535 17.1179 59.5544 24.3667 59.5494H24.4396C31.6012 59.5493 38.5296 57.0036 43.9876 52.367C43.6447 49.174 42.2744 46.1787 40.0828 43.8314C37.8912 41.4842 34.9967 39.912 31.8346 39.3512C31.715 39.3301 31.6006 39.2856 31.4981 39.2202C31.3956 39.1549 31.307 39.07 31.2373 38.9704C31.1676 38.8708 31.1182 38.7585 31.092 38.6398C31.0657 38.5211 31.0631 38.3984 31.0842 38.2787C31.1054 38.159 31.1499 38.0447 31.2152 37.9422C31.2805 37.8397 31.3654 37.7511 31.465 37.6814C31.5646 37.6117 31.677 37.5623 31.7956 37.536C31.9143 37.5098 32.037 37.5071 32.1567 37.5283C35.7949 38.1812 39.1133 40.0237 41.5912 42.7665C44.069 45.5094 45.5659 48.9974 45.847 52.683C45.8573 52.824 45.8347 52.9655 45.7809 53.0963C45.7271 53.2271 45.6437 53.3435 45.5371 53.4365C39.6999 58.5531 32.2019 61.3735 24.4396 61.3723H24.3667Z" fill="#23272B"/>
<path d="M24.5853 42.2011C21.6235 42.172 18.7714 41.0761 16.5522 39.1142L17.7311 37.7288C19.6244 39.4049 22.0569 40.3451 24.5853 40.3781C27.1027 40.3482 29.5259 39.4168 31.4153 37.7531L32.5881 39.1446C30.3724 41.0886 27.5328 42.1732 24.5853 42.2011Z" fill="#23272B"/>
<path d="M19.5116 47.0562H19.3779C19.2415 47.0338 19.1119 46.9813 18.9984 46.9024C18.8848 46.8236 18.7903 46.7204 18.7217 46.6005L16.6374 42.9546L14.5593 39.3087C14.44 39.0984 14.4092 38.8493 14.4736 38.6163C14.538 38.3832 14.6923 38.1853 14.9026 38.066C15.1129 37.9468 15.362 37.916 15.595 37.9803C15.8281 38.0447 16.026 38.1991 16.1453 38.4094L18.2234 42.0553C18.7278 42.9424 19.2321 43.8235 19.7304 44.7107L23.6983 40.9068C23.7853 40.823 23.8879 40.7572 24.0003 40.713C24.1128 40.6689 24.2328 40.6474 24.3535 40.6496C24.4743 40.6519 24.5934 40.6779 24.7041 40.7262C24.8148 40.7745 24.9149 40.8441 24.9987 40.9311C25.0825 41.0181 25.1483 41.1207 25.1924 41.2331C25.2365 41.3456 25.2581 41.4656 25.2558 41.5863C25.2536 41.7071 25.2276 41.8262 25.1793 41.9369C25.131 42.0476 25.0613 42.1477 24.9744 42.2315L20.1132 46.8071C19.9508 46.9623 19.7362 47.0512 19.5116 47.0562Z" fill="#23272B"/>
<path d="M29.6776 47.0562C29.452 47.0526 29.2357 46.9661 29.0699 46.8131L24.2087 42.2315C24.1188 42.15 24.0461 42.0514 23.9948 41.9415C23.9434 41.8316 23.9146 41.7125 23.9099 41.5913C23.9052 41.4701 23.9247 41.3492 23.9673 41.2356C24.01 41.122 24.0748 41.0181 24.1582 40.9299C24.2415 40.8417 24.3416 40.7711 24.4526 40.7221C24.5635 40.6731 24.6832 40.6468 24.8045 40.6446C24.9258 40.6424 25.0463 40.6645 25.1589 40.7096C25.2716 40.7546 25.3741 40.8216 25.4605 40.9068L29.4467 44.6864L32.9953 38.4337C33.1146 38.2234 33.3125 38.069 33.5455 38.0046C33.7786 37.9403 34.0276 37.9711 34.238 38.0903C34.4483 38.2096 34.6026 38.4075 34.667 38.6406C34.7314 38.8736 34.7005 39.1227 34.5813 39.333L30.4614 46.6248C30.3928 46.7447 30.2983 46.8479 30.1848 46.9267C30.0712 47.0055 29.9416 47.0581 29.8052 47.0805L29.6776 47.0562Z" fill="#23272B"/>
<path d="M66.5252 36.1915C66.3794 36.1897 66.2359 36.1544 66.1059 36.0882C65.8961 35.9756 65.7382 35.7859 65.6656 35.5592C65.5931 35.3324 65.6115 35.0863 65.717 34.8729C67.3921 31.7028 68.3953 28.2214 68.6641 24.6462C68.7553 23.3336 69.369 11.7094 62.059 6.36206C60.3039 5.1032 58.2477 4.32976 56.098 4.11985C55.5155 4.07432 54.9304 4.07432 54.348 4.11985C52.1902 4.33133 50.126 5.10671 48.3626 6.36814C41.0709 11.7154 41.6785 23.3397 41.7575 24.6522C42.0246 28.2228 43.0302 31.699 44.7107 34.8607C44.8003 34.9641 44.8654 35.0863 44.9013 35.2184C44.9372 35.3504 44.9429 35.4888 44.9181 35.6233C44.8932 35.7578 44.8383 35.885 44.7576 35.9954C44.6769 36.1059 44.5723 36.1967 44.4517 36.2613C44.331 36.3258 44.1974 36.3623 44.0608 36.3682C43.9241 36.374 43.7878 36.349 43.6621 36.295C43.5364 36.2411 43.4245 36.1595 43.3346 36.0564C43.2447 35.9532 43.1792 35.8312 43.1429 35.6993C41.3377 32.314 40.2613 28.5881 39.9832 24.7616C39.8799 23.3519 39.2236 10.7857 47.3296 4.8794C49.3614 3.40993 51.753 2.51757 54.2507 2.2969C54.9081 2.24821 55.5682 2.24821 56.2256 2.2969C58.7241 2.52323 61.1152 3.41963 63.1467 4.89156C71.2466 10.8161 70.5904 23.364 70.4931 24.7738C70.2055 28.5986 69.1297 32.3225 67.3334 35.7114C67.2545 35.8569 67.1377 35.9783 66.9954 36.0628C66.8532 36.1473 66.6907 36.1918 66.5252 36.1915V36.1915Z" fill="#23272B"/>
<path d="M55.2228 32.74H55.1864C51.8261 32.6124 48.6238 29.8841 46.9406 27.2347C45.6972 25.2417 45.046 22.9362 45.063 20.5871C45.0287 17.6509 45.8961 14.7749 47.5483 12.3474C47.6449 12.2044 47.7801 12.0918 47.9382 12.0226C48.0963 11.9535 48.2708 11.9306 48.4413 11.9567C48.6119 11.9828 48.7716 12.0568 48.9018 12.17C49.032 12.2833 49.1273 12.4312 49.1768 12.5965C49.3894 13.3135 49.6021 14.0245 49.7844 14.7415C50.3921 14.8144 50.9997 14.8752 51.662 14.9299C51.7813 14.9398 51.8975 14.9732 52.0039 15.0281C52.1103 15.0829 52.2049 15.1582 52.2822 15.2496C52.3595 15.341 52.418 15.4468 52.4545 15.5608C52.4909 15.6749 52.5045 15.795 52.4945 15.9143C52.4713 16.154 52.3555 16.3752 52.1716 16.5307C51.9877 16.6862 51.7503 16.7637 51.5101 16.7468C50.6047 16.6738 49.7419 16.5766 48.9519 16.4672C48.7792 16.4371 48.6188 16.3582 48.4896 16.2397C48.3603 16.1212 48.2677 15.9683 48.2228 15.7988L48.0405 15.1912C47.252 16.8706 46.8572 18.7077 46.8859 20.5628C46.8694 22.5766 47.4212 24.5542 48.478 26.2686C49.8573 28.4318 52.5492 30.8077 55.2228 30.9292C57.8965 30.8077 60.5884 28.4318 61.9617 26.2686C63.0228 24.5584 63.575 22.5814 63.5537 20.5688C63.5848 18.7123 63.1921 16.8731 62.4052 15.1912C62.3445 15.4039 62.2837 15.6165 62.2169 15.8353C62.1686 16.0038 62.0722 16.1545 61.9394 16.269C61.8066 16.3834 61.6433 16.4565 61.4695 16.4794C59.3974 16.7616 57.308 16.8977 55.2168 16.8865C54.6091 16.8865 54.0015 16.8865 53.4728 16.8865C53.2311 16.8752 53.0037 16.7684 52.8408 16.5895C52.6778 16.4106 52.5926 16.1742 52.6039 15.9325C52.6152 15.6908 52.722 15.4634 52.9009 15.3005C53.0798 15.1375 53.3162 15.0523 53.5579 15.0636C54.0865 15.0636 54.6395 15.1 55.2107 15.0636C57.0243 15.081 58.8371 14.9775 60.637 14.7537C60.8436 14.0366 61.0502 13.3257 61.2446 12.6087C61.2937 12.4422 61.3887 12.2928 61.5187 12.1778C61.6488 12.0628 61.8086 11.9868 61.9799 11.9585C62.1504 11.9314 62.325 11.9537 62.4833 12.0226C62.6415 12.0915 62.7768 12.2042 62.8731 12.3474C64.5253 14.7749 65.3927 17.6509 65.3584 20.5871C65.3703 22.9346 64.7217 25.2382 63.4868 27.2347C61.7976 29.8841 58.5953 32.6124 55.2411 32.74H55.2228Z" fill="#23272B"/>
<path d="M53.5154 16.8501C53.2768 16.8501 53.0477 16.7566 52.8773 16.5896C52.7069 16.4226 52.6087 16.1954 52.604 15.9568V15.89L52.3245 16.3275C52.1915 16.5241 51.9871 16.6611 51.7547 16.7093C51.5223 16.7576 51.2803 16.7133 51.0801 16.5858C50.8799 16.4584 50.7372 16.2579 50.6825 16.027C50.6278 15.796 50.6653 15.5529 50.7871 15.3492L52.683 12.3656C52.7888 12.2015 52.9445 12.0758 53.1272 12.0068C53.3099 11.9379 53.5099 11.9295 53.6977 11.9828C53.8862 12.0343 54.0528 12.1457 54.1723 12.3003C54.2918 12.4549 54.3577 12.6442 54.3601 12.8396L54.4269 15.9204C54.4293 16.0401 54.4081 16.1591 54.3646 16.2706C54.321 16.3821 54.2558 16.4839 54.1729 16.5702C54.0899 16.6566 53.9908 16.7257 53.8811 16.7737C53.7714 16.8218 53.6534 16.8477 53.5337 16.8501H53.5154Z" fill="#23272B"/>
<path d="M71.7022 13.7389C71.5127 13.7415 71.3272 13.6841 71.1723 13.5749C71.0173 13.4658 70.9008 13.3105 70.8393 13.1313C70.1257 10.8557 69.0327 8.71711 67.6067 6.80565C66.6444 5.53703 65.5045 4.41352 64.2221 3.46966C64.1209 3.40089 64.0346 3.31244 63.9683 3.20961C63.902 3.10677 63.8572 2.99165 63.8363 2.87109C63.8155 2.75054 63.8191 2.62702 63.847 2.50791C63.8749 2.38879 63.9266 2.27652 63.9988 2.17777C64.071 2.07902 64.1624 1.99582 64.2674 1.93314C64.3725 1.87045 64.4891 1.82955 64.6103 1.81288C64.7315 1.79622 64.8548 1.80412 64.9729 1.83612C65.091 1.86812 65.2014 1.92357 65.2976 1.99916C66.7209 3.0455 67.9858 4.29188 69.0529 5.69973C70.6059 7.77285 71.7956 10.0947 72.5711 12.5661C72.6085 12.6814 72.6224 12.803 72.6119 12.9237C72.6014 13.0444 72.5668 13.1618 72.5102 13.2689C72.4535 13.376 72.3759 13.4706 72.282 13.5472C72.1881 13.6237 72.0798 13.6807 71.9635 13.7146C71.878 13.7348 71.79 13.743 71.7022 13.7389V13.7389Z" fill="#23272B"/>
<path d="M2.43061 46.1812C2.28904 46.1822 2.14933 46.1488 2.02349 46.0839C1.91636 46.0315 1.82064 45.9584 1.74184 45.8689C1.66303 45.7793 1.6027 45.6751 1.5643 45.5622C1.52591 45.4492 1.51021 45.3298 1.5181 45.2108C1.52599 45.0918 1.55732 44.9755 1.61029 44.8686C1.99541 44.1033 2.42767 43.3625 2.90458 42.6507C4.86168 39.7151 7.55383 37.3435 10.7128 35.7722C10.8202 35.7175 10.9372 35.6845 11.0573 35.6751C11.1774 35.6657 11.2981 35.68 11.4127 35.7172C11.5272 35.7545 11.6333 35.8139 11.7249 35.8921C11.8164 35.9704 11.8917 36.0659 11.9464 36.1732C12.001 36.2806 12.034 36.3976 12.0434 36.5177C12.0529 36.6377 12.0386 36.7585 12.0013 36.873C11.9641 36.9876 11.9046 37.0937 11.8264 37.1852C11.7482 37.2768 11.6526 37.3521 11.5453 37.4067C7.94018 39.1666 5.01467 42.0643 3.22056 45.6525C3.15026 45.8048 3.03932 45.9347 2.89995 46.028C2.76058 46.1212 2.59818 46.1742 2.43061 46.1812V46.1812Z" fill="#23272B"/>
<path d="M24.4516 65.0182C22.979 65.0207 21.5077 64.9314 20.0462 64.7509C19.8044 64.7218 19.5841 64.598 19.4337 64.4066C19.2833 64.2151 19.2151 63.9717 19.2441 63.73C19.2731 63.4883 19.3969 63.268 19.5884 63.1175C19.7798 62.9671 20.0232 62.8989 20.2649 62.9279C21.652 63.098 23.0481 63.1833 24.4455 63.1831C29.6372 63.172 34.7572 61.9704 39.4119 59.6709C39.5192 59.6179 39.636 59.5865 39.7554 59.5785C39.8749 59.5706 39.9947 59.5862 40.1082 59.6246C40.2216 59.6629 40.3263 59.7233 40.4164 59.8021C40.5065 59.881 40.5802 59.9768 40.6333 60.0841C40.6863 60.1915 40.7177 60.3082 40.7257 60.4277C40.7336 60.5471 40.718 60.667 40.6796 60.7804C40.6412 60.8938 40.5809 60.9986 40.5021 61.0887C40.4232 61.1788 40.3274 61.2524 40.2201 61.3055C35.3156 63.7287 29.922 64.9986 24.4516 65.0182V65.0182Z" fill="#23272B"/>
<path d="M14.7051 23.6314C14.5724 23.6311 14.4412 23.6022 14.3206 23.5466C14.2 23.491 14.0928 23.4101 14.0063 23.3093L13.8605 23.1514L13.824 23.0906C13.2977 22.516 12.8465 21.8769 12.4811 21.1887C10.5914 17.6218 11.7216 13.034 11.7337 12.9915C13.3075 7.0244 19.4448 4.35075 24.7738 4.35075C31.0873 4.35075 36.0579 7.74142 37.4433 12.9915C37.4433 13.034 38.5857 17.6218 36.6959 21.2008C36.3297 21.8848 35.8785 22.5198 35.353 23.0906L35.3104 23.1453C35.2732 23.1927 35.2326 23.2373 35.1889 23.279C35.0685 23.4253 34.9057 23.5307 34.7229 23.5807C34.5401 23.6308 34.3463 23.623 34.1681 23.5585C33.9893 23.4982 33.8342 23.3828 33.725 23.2288C33.6158 23.0749 33.5582 22.8904 33.5604 22.7017C33.5732 21.2459 33.3809 19.7956 32.9892 18.3935C32.8278 17.7729 32.6248 17.1639 32.3816 16.5705C29.8396 17.1403 27.3434 17.8978 24.9136 18.8371C24.701 18.9219 24.4639 18.9219 24.2513 18.8371C21.8308 17.9055 19.3449 17.154 16.8137 16.5888C16.5705 17.1821 16.3675 17.7911 16.206 18.4117C15.8143 19.8138 15.6221 21.2642 15.6348 22.7199C15.6365 22.9092 15.5787 23.0943 15.4697 23.249C15.3607 23.4038 15.206 23.5205 15.0272 23.5828C14.9234 23.6172 14.8145 23.6336 14.7051 23.6314V23.6314ZM24.7738 6.17369C20.1193 6.17369 14.8206 8.42807 13.4959 13.4655C13.2893 14.2432 12.7607 17.6218 13.976 20.101C14.0837 19.3648 14.2379 18.6362 14.4378 17.9195C14.6974 16.9701 15.039 16.0451 15.4586 15.1547C15.544 14.9682 15.6906 14.8165 15.8741 14.7248C16.0576 14.6331 16.2669 14.6068 16.4673 14.6504C19.2312 15.2239 21.9457 16.0142 24.5855 17.0141C27.2272 16.0106 29.9436 15.2162 32.7097 14.6382C32.911 14.5943 33.1213 14.6203 33.3058 14.712C33.4903 14.8037 33.638 14.9556 33.7245 15.1426C34.1441 16.0329 34.4857 16.958 34.7453 17.9074C34.9446 18.6242 35.0988 19.3527 35.2071 20.0888C36.4224 17.5792 35.8877 14.2311 35.6811 13.4472C34.2653 8.08171 28.918 6.17369 24.7738 6.17369Z" fill="#23272B"/>
</g>
<defs>
<clipPath id="clip0_216_363">
<rect width="74.2788" height="65" fill="white"/>
</clipPath>
</defs>
</svg>
