<svg aria=hidden="true" class="icon icon--quotes" xmlns="http://www.w3.org/2000/svg" width="48" height="48"><path d="M10.547 21c5.799 0 10.5 4.701 10.5 10.5S16.346 42 10.547 42 .047 37.299.047 31.5L0 30C0 18.402 9.402 9 21 9v6c-4.007 0-7.773 1.56-10.607 4.393a15.263 15.263 0 0 0-1.492 1.735 10.625 10.625 0 0 1 1.645-.129zm27 0c5.799 0 10.5 4.701 10.5 10.5S43.346 42 37.547 42s-10.5-4.701-10.5-10.5L27 30c0-11.598 9.402-21 21-21v6c-4.007 0-7.773 1.56-10.607 4.393a15.263 15.263 0 0 0-1.492 1.735 10.628 10.628 0 0 1 1.646-.129z"/></svg>
