<svg aria-hidden="true" class="icon icon--rules" width="73" height="65" viewBox="0 0 73 65" fill="none" xmlns="http://www.w3.org/2000/svg">
<path d="M16.0955 16.0952C15.8492 16.1092 15.6075 16.0248 15.4235 15.8605C15.2395 15.6962 15.1282 15.4656 15.1143 15.2193C15.1003 14.973 15.1848 14.7313 15.349 14.5473C15.5133 14.3633 15.744 14.2521 15.9902 14.2381C16.894 14.1329 18.8564 13.5448 19.785 12.0652C19.8787 11.9115 20.0154 11.7885 20.1782 11.7115C20.3411 11.6345 20.5228 11.6068 20.7012 11.6319C20.8789 11.6584 21.0453 11.7355 21.1804 11.8541C21.3154 11.9727 21.4134 12.1276 21.4626 12.3005C21.7412 13.26 23.7593 14.071 24.5207 14.1948C24.767 14.2325 24.9882 14.3666 25.1356 14.5674C25.283 14.7683 25.3447 15.0195 25.3069 15.2657C25.2691 15.512 25.1351 15.7332 24.9343 15.8806C24.7334 16.0281 24.4822 16.0897 24.2359 16.0519C22.8309 15.7754 21.5288 15.1179 20.4721 14.1514C19.29 15.2242 17.804 15.9034 16.2193 16.0952H16.0955Z" fill="#23272B"/>
<path d="M13.3777 21.0105H13.2291C13.1085 20.9917 12.9928 20.9491 12.8887 20.8853C12.7846 20.8214 12.6943 20.7375 12.6228 20.6385C12.5514 20.5394 12.5004 20.4272 12.4727 20.3083C12.445 20.1894 12.4412 20.0661 12.4615 19.9457C12.6314 18.921 12.6314 17.8752 12.4615 16.8505C12.2378 15.5137 12.3247 14.1434 12.7154 12.8456C13.1061 11.5477 13.7903 10.3572 14.7149 9.36619C15.4136 8.64585 16.3514 8.20555 17.352 8.1281V8.1281C17.5101 8.12828 17.6678 8.14487 17.8225 8.17762C18.3071 7.77163 18.8792 7.48346 19.4939 7.33572C20.2405 7.1284 21.0207 7.07036 21.7897 7.16489C22.5588 7.25943 23.3016 7.5047 23.9758 7.88667C25.3129 8.76572 28.4268 11.1367 28.4268 14.0771C28.4253 14.7562 28.4874 15.434 28.6125 16.1014C28.7501 16.7375 28.798 17.3897 28.7548 18.039C28.7384 18.2853 28.6249 18.515 28.4391 18.6775C28.2534 18.8401 28.0106 18.9221 27.7644 18.9057C27.5181 18.8893 27.2884 18.7757 27.1259 18.59C26.9634 18.4042 26.8813 18.1615 26.8977 17.9152C26.9284 17.4131 26.8909 16.9092 26.7863 16.4171C26.6372 15.6462 26.5646 14.8624 26.5696 14.0771C26.5696 12.4367 24.7125 10.6229 22.9482 9.46524C22.0339 8.98519 20.9703 8.87439 19.9768 9.15572C19.5556 9.22277 19.1741 9.44327 18.9058 9.77476C18.8409 9.9069 18.7452 10.0215 18.6266 10.1087C18.5081 10.196 18.3703 10.2535 18.2248 10.2762C18.0788 10.2997 17.9292 10.2884 17.7883 10.2432C17.6474 10.198 17.5191 10.1202 17.4139 10.0162C16.8896 10.0575 16.4006 10.2965 16.0458 10.6848C15.3218 11.4687 14.787 12.4079 14.4822 13.4305C14.1775 14.4532 14.111 15.532 14.2877 16.5843C14.4858 17.7978 14.4858 19.0355 14.2877 20.2491C14.2487 20.4622 14.1364 20.655 13.9702 20.7941C13.804 20.9331 13.5944 21.0097 13.3777 21.0105V21.0105Z" fill="#23272B"/>
<path d="M20.373 20.6452C18.9616 20.6452 16.4854 19.9767 15.8168 15.5195C15.7989 15.3976 15.8052 15.2733 15.8354 15.1538C15.8655 15.0343 15.9189 14.9219 15.9925 14.823C16.0661 14.7242 16.1584 14.6408 16.2642 14.5776C16.37 14.5144 16.4873 14.4726 16.6092 14.4548C16.7311 14.4369 16.8554 14.4432 16.9749 14.4733C17.0944 14.5035 17.2068 14.5569 17.3057 14.6304C17.4046 14.704 17.488 14.7963 17.5512 14.9022C17.6143 15.008 17.6561 15.1252 17.674 15.2471C18.0268 17.5933 18.9121 18.7881 20.3978 18.7881C22.3973 18.7881 23.0411 16.5657 23.2454 15.241C23.2832 14.9947 23.4172 14.7735 23.618 14.6261C23.8189 14.4786 24.0701 14.417 24.3163 14.4548C24.5626 14.4925 24.7838 14.6266 24.9312 14.8274C25.0787 15.0283 25.1403 15.2794 25.1025 15.5257C24.5578 18.7324 22.8121 20.6452 20.373 20.6452Z" fill="#23272B"/>
<path d="M54.495 56.9524H29.114V50.7619H52.6378L54.495 56.9524Z" fill="#A7A7A7"/>
<path d="M68.0459 1.23809H66.325C65.908 1.23564 65.4946 1.31566 65.1087 1.47353C64.7228 1.63141 64.3719 1.86403 64.0761 2.15802C63.7804 2.45201 63.5458 2.80156 63.3856 3.18656C63.2255 3.57157 63.1431 3.98444 63.1431 4.40142V4.40142V6.19047H71.1907V4.40142C71.1907 3.56566 70.86 2.76386 70.2707 2.17115C69.6815 1.57844 68.8817 1.243 68.0459 1.23809V1.23809Z" fill="#777B80"/>
<path d="M28.4764 27.9995C27.4199 28.0079 26.3649 27.9167 25.3255 27.7271C25.098 27.6673 24.9017 27.5234 24.7763 27.3245C24.6508 27.1255 24.6055 26.8864 24.6495 26.6554C24.6935 26.4243 24.8236 26.2186 25.0134 26.0797C25.2032 25.9409 25.4386 25.8792 25.6721 25.9071C30.5317 26.8233 37.5021 24.8671 39.9721 23.171C40.5846 22.7822 41.1606 22.3388 41.6931 21.8462C41.6262 21.7374 41.5539 21.632 41.4764 21.5305C41.204 21.1838 40.9317 20.9795 40.7336 20.9733C40.5142 21.011 40.3173 21.1305 40.1826 21.3076C40.117 21.3869 40.0398 21.4557 39.9536 21.5119C34.8897 24.83 25.6474 23.2638 24.6878 23.0905L23.4497 23.041C23.204 23.0281 22.9731 22.9189 22.8074 22.7369C22.6417 22.5549 22.5544 22.315 22.5645 22.069C22.5685 21.9476 22.5966 21.8282 22.6471 21.7177C22.6977 21.6073 22.7697 21.5079 22.859 21.4256C22.9483 21.3432 23.053 21.2794 23.1672 21.2379C23.2814 21.1964 23.4027 21.178 23.524 21.1838L24.7993 21.2395C24.8444 21.2331 24.8903 21.2331 24.9355 21.2395C25.0283 21.2395 34.1593 22.9295 38.7959 20.0014C39.0333 19.7286 39.3236 19.5067 39.6492 19.3492C39.9748 19.1917 40.3289 19.1019 40.6902 19.0852C41.1451 19.1126 41.5866 19.2489 41.9777 19.4827C42.3688 19.7165 42.698 20.0409 42.9374 20.4286C43.1548 20.6564 43.3222 20.9272 43.4288 21.2236C43.5354 21.52 43.5789 21.8354 43.5564 22.1495C43.414 23.0471 42.5412 23.6848 41.0183 24.7371C38.6721 26.3095 33.3297 27.9995 28.4764 27.9995Z" fill="#23272B"/>
<path d="M26.161 52.6624H26.0806C25.9587 52.6523 25.84 52.6181 25.7315 52.5617C25.623 52.5054 25.5268 52.428 25.4484 52.3341C25.3701 52.2402 25.3112 52.1316 25.2752 52.0148C25.2392 51.8979 25.2267 51.7751 25.2386 51.6533C25.2386 51.5853 25.8577 44.3053 25.2386 39.7553C25.0064 37.5201 24.3664 35.3464 23.3506 33.3419C23.2895 33.231 23.2516 33.1089 23.2391 32.9829C23.0163 30.94 23.9263 28.4143 24.4153 27.0648C24.4896 26.8543 24.5577 26.6748 24.6072 26.5262C24.6955 26.3066 24.8644 26.129 25.0793 26.0297C25.2941 25.9305 25.5388 25.917 25.7633 25.9921C25.9878 26.0672 26.1751 26.2251 26.287 26.4337C26.3989 26.6423 26.4269 26.8858 26.3653 27.1143C26.3158 27.2691 26.2477 27.4672 26.1672 27.69C25.7401 28.86 24.9725 31.0081 25.0715 32.6053C26.1375 34.7675 26.8183 37.0991 27.0834 39.4953C27.7582 44.2557 27.0834 51.5172 27.0834 51.8205C27.0619 52.0504 26.9554 52.264 26.7849 52.4197C26.6143 52.5753 26.3919 52.6619 26.161 52.6624Z" fill="#23272B"/>
<path d="M14.8202 42.0952H14.7459C14.5005 42.0763 14.2727 41.9606 14.1125 41.7737C13.9523 41.5869 13.8728 41.344 13.8916 41.0986C13.935 40.5786 13.9969 40.0462 14.0835 39.4829C14.3229 37.0817 15.005 34.7456 16.0954 32.5929C16.1 31.0112 15.8081 29.4427 15.235 27.9686L15.1731 27.789C15.1324 27.6736 15.1149 27.5513 15.1215 27.4291C15.1281 27.3069 15.1588 27.1872 15.2117 27.0768C15.2645 26.9664 15.3386 26.8676 15.4297 26.7858C15.5208 26.7041 15.6271 26.6411 15.7426 26.6005C15.858 26.5598 15.9803 26.5423 16.1025 26.5489C16.2247 26.5556 16.3444 26.5862 16.4548 26.6391C16.5652 26.692 16.6641 26.7661 16.7458 26.8572C16.8275 26.9483 16.8905 27.0546 16.9311 27.17L16.9931 27.3495C17.6906 29.1209 18.0091 31.0189 17.9278 32.921C17.9151 33.0583 17.8728 33.1914 17.804 33.311C16.925 34.7843 16.2997 36.8767 15.9035 39.7057C15.8292 40.2381 15.7735 40.7271 15.7302 41.21C15.7207 41.446 15.621 41.6694 15.4517 41.8341C15.2824 41.9988 15.0564 42.0923 14.8202 42.0952V42.0952Z" fill="#23272B"/>
<path d="M15.3958 60.0476C15.1678 60.0476 14.9478 59.9636 14.7777 59.8118C14.6076 59.66 14.4993 59.4508 14.4734 59.2243L13.7987 53.17C13.7708 52.9237 13.8418 52.6765 13.9962 52.4826C14.1506 52.2887 14.3757 52.1641 14.622 52.1362C14.8683 52.1083 15.1156 52.1793 15.3094 52.3338C15.5033 52.4882 15.6279 52.7133 15.6558 52.9595L16.3306 59.0138C16.3451 59.1383 16.3343 59.2644 16.2988 59.3846C16.2633 59.5047 16.2039 59.6165 16.1241 59.7131C16.0443 59.8096 15.9457 59.8891 15.8344 59.9466C15.7231 60.0041 15.6013 60.0385 15.4763 60.0476H15.3958Z" fill="#23272B"/>
<path d="M4.13536 38.5729C3.70735 38.5708 3.28489 38.4758 2.89726 38.2943C2.61683 38.1772 2.36742 37.9966 2.16868 37.7667C1.96994 37.5368 1.82731 37.2639 1.75203 36.9695C1.46107 35.8243 2.25345 34.6048 2.50107 34.2581C5.59631 28.6186 9.42203 24.8238 15.6001 21.1776C15.7491 21.0871 15.9212 21.042 16.0954 21.0476H17.6925C17.9388 21.0476 18.175 21.1455 18.3491 21.3196C18.5232 21.4937 18.6211 21.7299 18.6211 21.9762C18.6211 22.2225 18.5232 22.4587 18.3491 22.6328C18.175 22.8069 17.9388 22.9048 17.6925 22.9048H16.3182C10.5611 26.3405 7.0325 29.9186 4.09203 35.2052C4.07448 35.2453 4.05157 35.2828 4.02393 35.3167C3.74402 35.6601 3.57749 36.0818 3.54726 36.5238C3.54726 36.5238 3.62155 36.5919 3.67107 36.6167C3.93815 36.7163 4.22921 36.7324 4.50562 36.6627C4.78204 36.593 5.03073 36.441 5.21869 36.2267C7.53393 32.0976 11.9354 28.0181 15.7425 26.5014C15.9681 26.4218 16.2157 26.4324 16.4338 26.5308C16.6518 26.6293 16.8234 26.8082 16.9128 27.0301C17.0022 27.252 17.0025 27.4998 16.9137 27.722C16.8248 27.9441 16.6536 28.1234 16.4358 28.2224C13.5139 29.38 9.15583 32.9333 6.80964 37.2295C6.77814 37.2849 6.74078 37.3368 6.69821 37.3843C6.37476 37.7468 5.98051 38.0393 5.53975 38.2437C5.09899 38.4481 4.62105 38.5601 4.13536 38.5729V38.5729Z" fill="#23272B"/>
<path d="M42.4235 35.9048C42.3 35.9072 42.1772 35.885 42.0624 35.8395C41.9476 35.7939 41.843 35.7259 41.7548 35.6394C41.6666 35.553 41.5966 35.4498 41.5487 35.3359C41.5009 35.222 41.4763 35.0997 41.4763 34.9762V21.9762C41.4763 21.7299 41.5741 21.4937 41.7483 21.3196C41.9224 21.1455 42.1586 21.0476 42.4049 21.0476C42.6512 21.0476 42.8873 21.1455 43.0615 21.3196C43.2356 21.4937 43.3335 21.7299 43.3335 21.9762V34.9762C43.3335 35.2193 43.2382 35.4527 43.0681 35.6263C42.8979 35.7999 42.6665 35.8999 42.4235 35.9048Z" fill="#23272B"/>
<path d="M31.6707 33.3543C31.4169 33.3543 31.1631 33.3543 30.9093 33.3543C30.7873 33.3462 30.6682 33.3141 30.5586 33.2599C30.4491 33.2057 30.3513 33.1305 30.2708 33.0385C30.1903 32.9466 30.1287 32.8396 30.0896 32.7239C30.0504 32.6081 30.0345 32.4858 30.0426 32.3638C30.0507 32.2419 30.0828 32.1227 30.137 32.0132C30.1911 31.9036 30.2664 31.8058 30.3583 31.7253C30.4503 31.6449 30.5572 31.5833 30.673 31.5441C30.7888 31.505 30.9111 31.489 31.0331 31.4972C32.7922 31.6228 34.5508 31.2449 36.1031 30.4076C36.6149 30.0995 37.1032 29.754 37.564 29.3738C38.3706 28.6429 39.3342 28.1071 40.3807 27.8076C40.9601 27.6519 41.5574 27.5728 42.1574 27.5724V27.5724C42.4036 27.5724 42.6398 27.6702 42.814 27.8444C42.9881 28.0185 43.0859 28.2547 43.0859 28.501C43.0859 28.7472 42.9881 28.9834 42.814 29.1576C42.6398 29.3317 42.4036 29.4295 42.1574 29.4295C41.7182 29.4285 41.2809 29.4868 40.8574 29.6029C40.0587 29.8436 39.3274 30.2676 38.7216 30.841C38.1833 31.3006 37.6076 31.7147 37.0007 32.0791C35.3569 32.9385 33.5255 33.3767 31.6707 33.3543V33.3543Z" fill="#23272B"/>
<path d="M33.5898 43.2529H33.3112C32.6605 43.2181 32.0231 43.0552 31.4354 42.7736C30.8478 42.492 30.3215 42.0972 29.8868 41.6118C29.452 41.1264 29.1173 40.56 28.9019 39.9451C28.6864 39.3301 28.5944 38.6787 28.6312 38.0281C28.6423 37.7894 28.7451 37.5642 28.918 37.3993C29.091 37.2345 29.3208 37.1426 29.5598 37.1429H37.6074C37.8453 37.1425 38.0743 37.2335 38.2471 37.3971C38.4198 37.5607 38.5233 37.7843 38.5359 38.0219C38.5359 38.2014 38.5359 38.3871 38.5359 38.5667C38.4678 39.8334 37.916 41.0257 36.9946 41.8977C36.0731 42.7696 34.8522 43.2547 33.5836 43.2529H33.5898ZM30.5626 39C30.6817 39.5066 30.9265 39.975 31.2745 40.3619C31.5464 40.6689 31.8772 40.918 32.2473 41.0946C32.6174 41.2711 33.0192 41.3714 33.4288 41.3895C34.1544 41.4273 34.8702 41.2086 35.4508 40.7718C36.0314 40.3349 36.4398 39.7077 36.6045 39H30.5626Z" fill="#23272B"/>
<path d="M37.5639 39C37.4169 38.999 37.2721 38.9639 37.141 38.8972C37.0099 38.8306 36.8961 38.7344 36.8087 38.6162L33.5649 34.1281L30.3334 38.6038C30.2619 38.7026 30.1716 38.7863 30.0677 38.8502C29.9638 38.914 29.8484 38.9568 29.7279 38.9761C29.6075 38.9954 29.4845 38.9907 29.3658 38.9624C29.2472 38.9341 29.1353 38.8827 29.0365 38.8112C28.9378 38.7396 28.854 38.6494 28.7902 38.5455C28.7263 38.4416 28.6835 38.3261 28.6642 38.2057C28.645 38.0853 28.6496 37.9622 28.6779 37.8436C28.7062 37.725 28.7576 37.6131 28.8291 37.5143L32.8096 31.9862C32.8995 31.8728 33.0138 31.7811 33.144 31.7182C33.2743 31.6552 33.4171 31.6225 33.5618 31.6225C33.7064 31.6225 33.8493 31.6552 33.9795 31.7182C34.1098 31.7811 34.2241 31.8728 34.3139 31.9862L38.313 37.5143C38.385 37.6125 38.4369 37.7239 38.4656 37.8423C38.4943 37.9606 38.4993 38.0835 38.4803 38.2037C38.4613 38.324 38.4187 38.4394 38.3549 38.5431C38.2911 38.6468 38.2074 38.7369 38.1087 38.8081C37.9532 38.9303 37.7617 38.9978 37.5639 39V39Z" fill="#23272B"/>
<path d="M53.4858 33.3543C51.6321 33.3535 49.8074 32.8942 48.1744 32.0171C47.5616 31.6528 46.9798 31.2387 46.4348 30.779C45.8305 30.207 45.1015 29.7832 44.3053 29.5409C43.8797 29.4248 43.4403 29.3665 42.9991 29.3676C42.7529 29.3676 42.5167 29.2698 42.3425 29.0956C42.1684 28.9215 42.0706 28.6853 42.0706 28.439C42.0706 28.1928 42.1684 27.9566 42.3425 27.7824C42.5167 27.6083 42.7529 27.5105 42.9991 27.5105C43.6011 27.5113 44.2004 27.5904 44.782 27.7457C45.826 28.0467 46.7873 28.5824 47.5925 29.3119C48.0593 29.6965 48.5538 30.0461 49.072 30.3581C50.632 31.1916 52.3966 31.5652 54.1606 31.4352C54.4068 31.4172 54.6502 31.4977 54.8371 31.6591C55.024 31.8204 55.1392 32.0494 55.1572 32.2957C55.1753 32.542 55.0948 32.7853 54.9334 32.9723C54.772 33.1592 54.543 33.2743 54.2968 33.2924C54.0244 33.3481 53.7582 33.3543 53.4858 33.3543Z" fill="#23272B"/>
<path d="M51.5854 43.2528C50.3168 43.2547 49.0959 42.7696 48.1744 41.8977C47.253 41.0257 46.7012 39.8334 46.6331 38.5667C46.6331 38.3871 46.6331 38.2014 46.6331 38.0219C46.6458 37.7832 46.7501 37.5587 46.9242 37.3949C47.0983 37.2312 47.3288 37.1409 47.5678 37.1429H55.6154C55.8534 37.1425 56.0823 37.2335 56.2551 37.3971C56.4279 37.5607 56.5313 37.7843 56.544 38.0219C56.5808 38.6725 56.4888 39.3239 56.2733 39.9389C56.0579 40.5538 55.7232 41.1202 55.2884 41.6056C54.8536 42.091 54.3274 42.4858 53.7397 42.7674C53.1521 43.049 52.5147 43.2119 51.864 43.2467L51.5854 43.2528ZM48.5707 39C48.6981 39.5536 48.9755 40.0616 49.3723 40.4681C49.7692 40.8746 50.2703 41.164 50.8208 41.3047C51.3712 41.4453 51.9498 41.4317 52.493 41.2655C53.0363 41.0992 53.5233 40.7866 53.9007 40.3619C54.2487 39.975 54.4935 39.5066 54.6126 39H48.5707Z" fill="#23272B"/>
<path d="M55.6092 39C55.463 38.9995 55.3189 38.9645 55.1887 38.8978C55.0586 38.8311 54.946 38.7346 54.8602 38.6162L51.6102 34.1281L48.3664 38.6162C48.2203 38.8157 48.0009 38.9489 47.7565 38.9867C47.5121 39.0244 47.2628 38.9635 47.0633 38.8174C46.8638 38.6713 46.7305 38.4519 46.6928 38.2075C46.6551 37.9631 46.716 37.7138 46.8621 37.5143L50.8611 31.9862C50.951 31.8728 51.0653 31.7811 51.1955 31.7182C51.3258 31.6552 51.4686 31.6225 51.6133 31.6225C51.758 31.6225 51.9008 31.6552 52.031 31.7182C52.1613 31.7811 52.2756 31.8728 52.3654 31.9862L56.3335 37.5143C56.4055 37.6125 56.4574 37.7239 56.4862 37.8423C56.5149 37.9606 56.5199 38.0835 56.5009 38.2037C56.4819 38.324 56.4393 38.4394 56.3755 38.5431C56.3117 38.6468 56.228 38.7369 56.1292 38.8081C55.9805 38.9253 55.7985 38.9925 55.6092 39V39Z" fill="#23272B"/>
<path d="M24.4772 54.2595L25.152 56.9524H21.7843L6.98291 42.151L9.67577 39.4581L24.4772 54.2595Z" fill="#A7A7A7"/>
<path d="M5.97404 43.8967C5.72799 43.8958 5.49221 43.7979 5.31785 43.6243C5.23101 43.5385 5.16206 43.4363 5.11499 43.3237C5.06793 43.211 5.0437 43.0902 5.0437 42.9681C5.0437 42.846 5.06793 42.7252 5.11499 42.6125C5.16206 42.4999 5.23101 42.3977 5.31785 42.3119L10.0288 37.601C10.1138 37.5097 10.2163 37.4366 10.3302 37.3858C10.4441 37.3351 10.5671 37.3078 10.6918 37.3056C10.8165 37.3034 10.9403 37.3263 11.0559 37.373C11.1716 37.4197 11.2766 37.4892 11.3648 37.5774C11.4529 37.6656 11.5224 37.7706 11.5691 37.8862C11.6159 38.0018 11.6388 38.1257 11.6366 38.2504C11.6344 38.375 11.6071 38.498 11.5563 38.6119C11.5056 38.7258 11.4324 38.8283 11.3412 38.9133L6.63023 43.6243C6.45588 43.7979 6.2201 43.8958 5.97404 43.8967Z" fill="#23272B"/>
<path d="M2.61252 35.8243C2.48903 35.8249 2.3667 35.8005 2.25288 35.7526C2.13905 35.7048 2.03607 35.6344 1.95014 35.5457L0.266326 33.8371C0.176084 33.7512 0.104055 33.648 0.0545303 33.5337C0.00500515 33.4194 -0.0210033 33.2962 -0.0219461 33.1716C-0.0228888 33.047 0.00125345 32.9235 0.0490428 32.8085C0.0968321 32.6934 0.167291 32.5891 0.256223 32.5018C0.345155 32.4146 0.45074 32.3461 0.566691 32.3005C0.682642 32.2549 0.806586 32.2331 0.931142 32.2364C1.0557 32.2397 1.17832 32.268 1.29169 32.3197C1.40507 32.3713 1.50689 32.4453 1.59109 32.5371L3.2749 34.2457C3.44879 34.4198 3.54646 34.6558 3.54646 34.9019C3.54646 35.148 3.44879 35.384 3.2749 35.5581C3.18792 35.6445 3.08448 35.7126 2.9707 35.7584C2.85692 35.8041 2.73512 35.8265 2.61252 35.8243V35.8243Z" fill="#23272B"/>
<path d="M7.99201 41.2038C7.86863 41.2037 7.74651 41.179 7.63278 41.1312C7.51905 41.0834 7.41599 41.0134 7.32963 40.9252L5.23725 38.8019C5.07452 38.6244 4.98712 38.3906 4.99349 38.1499C4.99985 37.9092 5.09948 37.6803 5.27136 37.5117C5.44323 37.343 5.67391 37.2477 5.91471 37.2459C6.15551 37.2441 6.3876 37.3359 6.56201 37.5019L8.66677 39.6191C8.84066 39.7932 8.93833 40.0292 8.93833 40.2752C8.93833 40.5213 8.84066 40.7573 8.66677 40.9314C8.57886 41.0205 8.47364 41.0906 8.35759 41.1375C8.24154 41.1843 8.11712 41.2069 7.99201 41.2038V41.2038Z" fill="#23272B"/>
<path d="M32.5186 65H7.7567C7.51043 65 7.27424 64.9022 7.1001 64.728C6.92596 64.5539 6.82813 64.3177 6.82813 64.0714V62.6229C6.82732 62.1224 6.92519 61.6266 7.11615 61.164C7.30712 60.7014 7.58742 60.281 7.94103 59.9268C8.29463 59.5726 8.7146 59.2916 9.17691 59.0999C9.63922 58.9082 10.1348 58.8095 10.6353 58.8095H29.6462C30.6527 58.8161 31.6157 59.2209 32.3245 59.9355C33.0333 60.6501 33.4303 61.6163 33.4286 62.6229V64.0714C33.4287 64.3145 33.3334 64.5479 33.1632 64.7215C32.9931 64.8952 32.7616 64.9951 32.5186 65V65ZM8.6667 63.1429H31.5715V62.6229C31.5715 62.1094 31.3697 61.6164 31.0095 61.2505C30.6493 60.8845 30.1597 60.6748 29.6462 60.6667V59.7381V60.6667H10.6353C10.3799 60.666 10.127 60.7161 9.8911 60.8138C9.65521 60.9116 9.44104 61.0551 9.26099 61.2362C9.07797 61.4151 8.93271 61.6289 8.83382 61.865C8.73493 62.101 8.68442 62.3545 8.68527 62.6105L8.6667 63.1429Z" fill="#23272B"/>
<path d="M57.2806 57.5714H29.4234C29.1772 57.5714 28.941 57.4736 28.7668 57.2995C28.5927 57.1253 28.4949 56.8891 28.4949 56.6429C28.4949 56.3966 28.5927 56.1604 28.7668 55.9863C28.941 55.8121 29.1772 55.7143 29.4234 55.7143H57.2806C57.5269 55.7143 57.763 55.8121 57.9372 55.9863C58.1113 56.1604 58.2092 56.3966 58.2092 56.6429C58.2092 56.8891 58.1113 57.1253 57.9372 57.2995C57.763 57.4736 57.5269 57.5714 57.2806 57.5714Z" fill="#23272B"/>
<path d="M52.9473 51.3809H29.4234C29.1772 51.3809 28.941 51.2831 28.7668 51.109C28.5927 50.9348 28.4949 50.6986 28.4949 50.4524C28.4949 50.2061 28.5927 49.9699 28.7668 49.7958C28.941 49.6216 29.1772 49.5238 29.4234 49.5238H52.9473C53.1935 49.5238 53.4297 49.6216 53.6038 49.7958C53.778 49.9699 53.8758 50.2061 53.8758 50.4524C53.8758 50.6986 53.778 50.9348 53.6038 51.109C53.4297 51.2831 53.1935 51.3809 52.9473 51.3809Z" fill="#23272B"/>
<path d="M23.8519 6.19048C23.7402 6.19079 23.6292 6.17194 23.5238 6.13476C23.2972 6.04716 23.1135 5.87472 23.0118 5.654C22.9101 5.43327 22.8984 5.18161 22.9791 4.95238L23.5981 3.28095C23.6183 3.23232 23.641 3.18479 23.6662 3.13857C24.1857 2.23639 24.9244 1.47979 25.8138 0.938762C26.7032 0.397738 27.7148 0.0897656 28.7548 0.043335H65.9472C66.1935 0.043335 66.4296 0.141166 66.6038 0.315307C66.7779 0.489448 66.8757 0.725634 66.8757 0.971906C66.8757 1.21818 66.7779 1.45436 66.6038 1.62851C66.4296 1.80265 66.1935 1.90048 65.9472 1.90048H28.8043C28.092 1.9406 27.4007 2.15596 26.7916 2.52745C26.1825 2.89894 25.6746 3.41507 25.3129 4.03L24.7248 5.57143C24.6609 5.75205 24.5428 5.9085 24.3865 6.01933C24.2302 6.13016 24.0435 6.18994 23.8519 6.19048V6.19048Z" fill="#23272B"/>
<path d="M71.5188 6.80952H62.8522C62.6059 6.80952 62.3697 6.71169 62.1956 6.53755C62.0214 6.36341 61.9236 6.12722 61.9236 5.88095C61.9236 5.63468 62.0214 5.39849 62.1956 5.22435C62.3697 5.05021 62.6059 4.95238 62.8522 4.95238H71.5188C71.7651 4.95238 72.0013 5.05021 72.1754 5.22435C72.3496 5.39849 72.4474 5.63468 72.4474 5.88095C72.4474 6.12722 72.3496 6.36341 72.1754 6.53755C72.0013 6.71169 71.7651 6.80952 71.5188 6.80952Z" fill="#23272B"/>
<path d="M57.8997 57.5714C57.0463 57.5713 56.2021 57.3947 55.4202 57.0528C54.6382 56.7108 53.9354 56.2108 53.3559 55.5843C52.2045 54.2781 51.7526 52.489 52.025 50.3348C52.0404 50.2128 52.0797 50.0951 52.1407 49.9884C52.2016 49.8816 52.283 49.7879 52.3801 49.7126C52.4773 49.6373 52.5883 49.5819 52.7069 49.5495C52.8254 49.5171 52.9492 49.5084 53.0712 49.5238C53.1931 49.5393 53.3108 49.5786 53.4176 49.6395C53.5243 49.7004 53.618 49.7818 53.6933 49.879C53.7686 49.9761 53.8241 50.0871 53.8565 50.2057C53.8889 50.3243 53.8976 50.4481 53.8821 50.57C53.6778 52.1919 53.975 53.4671 54.7612 54.3586C55.1668 54.7833 55.6537 55.1222 56.1928 55.3551C56.732 55.588 57.3125 55.7101 57.8997 55.7143C59.8002 55.7143 62.3631 53.8571 63.1926 50.8238C64.1336 47.4005 63.6755 42.1571 63.2793 37.5886L63.1431 36.301V36.2205C63.1431 35.8552 63.0069 34.9824 62.8521 33.6886C62.0721 27.0895 60.2397 11.6257 61.3045 6.32048C62.1959 1.95 64.0097 0 67.1855 0C67.997 0.0321376 68.7913 0.244321 69.5108 0.62119C70.2303 0.998059 70.8569 1.53018 71.3455 2.17905C71.8086 2.70775 72.1465 3.3341 72.3341 4.01148C72.5216 4.68885 72.554 5.39981 72.4288 6.09143C72.3728 6.33105 72.224 6.53867 72.0151 6.66867C71.8062 6.79867 71.5542 6.84042 71.3145 6.78476C71.1954 6.7578 71.0829 6.70747 70.9835 6.6367C70.884 6.56592 70.7996 6.4761 70.7351 6.37245C70.6706 6.2688 70.6273 6.15338 70.6078 6.03288C70.5882 5.91238 70.5928 5.7892 70.6212 5.67048C70.6782 5.25218 70.6429 4.82648 70.5177 4.42328C70.3926 4.02009 70.1807 3.6492 69.8969 3.33667C69.5796 2.90786 69.1726 2.55336 68.7044 2.29785C68.2361 2.04233 67.7178 1.89194 67.1855 1.85714C65.6317 1.85714 64.0345 2.22857 63.1431 6.67952C62.1402 11.7 64.0097 27.5167 64.7155 33.4719C64.8702 34.7471 64.9817 35.6757 65.0126 36.0905C65.0157 36.1172 65.0157 36.1442 65.0126 36.171L65.1178 37.409C65.5326 42.1633 66.0031 47.5552 64.9817 51.3005C64.0097 54.891 60.9578 57.5714 57.8997 57.5714Z" fill="#23272B"/>
<path d="M42.2315 4.11047L43.6553 8.48095H48.2548L44.5344 11.1862L45.952 15.5629L42.2315 12.8576L38.5172 15.5629L39.9348 11.1862L36.2144 8.48095H40.8139L42.2315 4.11047Z" fill="#C88B66"/>
</svg>
