<svg aria-hidden="true" class="icon icon--wrench" xmlns="http://www.w3.org/2000/svg" width="48" height="48"><path d="M47.013 38.338 25.425 19.834a13.444 13.444 0 0 0 1.576-6.334c0-7.456-6.044-13.5-13.5-13.5A13.5 13.5 0 0 0 9.58.579l7.8 7.8a3.009 3.009 0 0 1 0 4.243l-4.757 4.757a3.009 3.009 0 0 1-4.243 0l-7.8-7.8A13.5 13.5 0 0 0 .001 13.5c0 7.456 6.044 13.5 13.5 13.5 2.289 0 4.445-.57 6.334-1.576l18.504 21.588c1.074 1.253 2.907 1.323 4.074.156l4.757-4.757c1.167-1.167 1.096-3-.156-4.074z"/></svg>
